<?xml version="1.0" standalone="no"?>
<!DOCTYPE svg PUBLIC "-//W3C//DTD SVG 1.1//EN" "http://www.w3.org/Graphics/SVG/1.1/DTD/svg11.dtd" >
<svg>
<metadata>
Created by FontForge 20120731 at Thu Jan 14 12:12:47 2016
 By ,,,
Copyright (c) 2000, 2001 Adobe Systems Incorporated. All Rights Reserved. U.S.Patent Des. 327,902 and 327,903.Adobe Garamond is either a registered trademark or a trademark of Adobe Systems Incorporated in the United States and/or other countries.
</metadata>
<defs>
<font id="AGaramondPro-Italic" horiz-adv-x="360" >
  <font-face 
    font-family="Adobe Garamond Pro"
    font-weight="400"
    font-style="italic"
    font-stretch="normal"
    units-per-em="1000"
    panose-1="2 2 5 2 5 5 6 9 4 3"
    ascent="725"
    descent="-275"
    x-height="408"
    cap-height="663"
    bbox="-182 -338 1667.63 917"
    underline-thickness="50"
    underline-position="-50"
    slope="-18.5"
    stemh="37"
    stemv="74"
    unicode-range="U+0020-FB06"
  />
<missing-glyph horiz-adv-x="500" 
d="M0 0v700h500v-700h-500zM250 395l170 255h-340zM280 350l170 -255v510zM80 50h340l-170 255zM50 605v-510l170 255z" />
    <glyph glyph-name="fi" unicode="fi" horiz-adv-x="503" 
d="M158 357h-83c-10 10 -6 29 7 37h86c25 84 61 181 117 240c54 57 110 81 166 81c64 0 109 -32 109 -79c0 -30 -28 -43 -47 -43c-18 0 -29 7 -29 25c0 45 -19 67 -51 67c-33 0 -66 -20 -94 -57c-46 -63 -73 -151 -99 -234h95c33 0 61 4 84 7c23 4 40 7 49 7
c21 0 19 -25 8 -53l-114 -285c-4 -10 -5 -22 3 -22c17 0 70 35 104 74c10 -1 15 -8 15 -17c-15 -29 -118 -119 -187 -119c-5 0 -11 3 -16 9c-6 7 -7 16 -3 27l118 304c9 24 7 31 -29 31h-137c-6 -17 -14 -49 -23 -79c-32 -111 -60 -222 -94 -332c-27 -90 -58 -145 -79 -164
c-12 -12 -55 -51 -114 -51c-46 0 -65 34 -65 51c0 22 12 31 19 36c14 12 21 4 29 -9c14 -23 40 -37 60 -37c18 0 42 15 63 83c51 167 84 339 132 502z" />
    <glyph glyph-name="fl" unicode="fl" horiz-adv-x="489" 
d="M83 394h85c30 103 62 181 115 242c42 47 96 79 157 79c29 0 60 -12 81 -32c28 18 45 27 59 32l7 -6c-14 -36 -24 -64 -61 -172l-160 -472c-8 -23 -7 -33 5 -33c22 0 69 49 115 101c10 1 16 -4 16 -14c-26 -50 -89 -133 -173 -133c-29 0 -38 14 -38 30s5 34 22 85l87 256
h-170c-6 -17 -14 -49 -23 -79c-32 -111 -60 -222 -94 -332c-27 -90 -58 -145 -79 -164c-12 -12 -55 -51 -114 -51c-46 0 -65 34 -65 51c0 22 12 31 19 36c14 12 21 4 29 -9c14 -23 40 -37 60 -37c18 0 42 15 63 83c51 167 84 339 132 502h-82c-10 9 -6 28 7 37zM240 394h172
l71 207c17 48 -13 84 -55 84c-35 0 -64 -20 -88 -52c-27 -37 -60 -103 -100 -239z" />
    <glyph glyph-name="ff" unicode="ff" horiz-adv-x="504" 
d="M401 357h-171c-6 -17 -14 -49 -23 -79c-32 -111 -60 -222 -94 -332c-27 -90 -58 -145 -79 -164c-12 -12 -55 -51 -114 -51c-46 0 -65 34 -65 51c0 24 12 30 19 36c14 12 21 4 29 -9c14 -23 40 -37 60 -37c18 0 42 15 63 83c51 167 84 339 132 502h-82c-10 9 -8 28 5 37
h88c24 82 52 158 100 215c43 52 95 82 159 82c49 0 92 -21 88 -65l2 -2c58 69 115 91 172 91c42 0 82 -26 82 -65c0 -31 -19 -51 -35 -60c-13 -7 -21 0 -21 13c0 60 -36 78 -62 78c-29 0 -54 -20 -78 -53c-25 -34 -56 -98 -94 -234h124c7 -11 5 -30 -10 -37h-123
c-38 -131 -70 -252 -109 -379c-30 -97 -60 -152 -80 -172c-12 -12 -55 -51 -114 -51c-46 0 -65 34 -65 51c0 24 12 30 19 36c14 12 21 4 29 -9c14 -23 40 -37 60 -37c18 0 43 16 64 91c47 163 85 339 124 470zM239 394h172c20 67 41 126 77 190c-4 47 -39 77 -73 77
c-35 0 -71 -22 -100 -72c-22 -38 -44 -85 -76 -195z" />
    <glyph glyph-name="ffi" unicode="ffi" horiz-adv-x="746" 
d="M401 357h-171c-6 -17 -14 -49 -23 -79c-32 -111 -60 -222 -94 -332c-27 -90 -58 -145 -79 -164c-12 -12 -55 -51 -114 -51c-46 0 -65 34 -65 51c0 24 12 30 19 36c14 12 21 4 29 -9c14 -23 40 -37 60 -37c18 0 42 15 63 83c51 167 84 339 132 502h-82c-10 9 -8 28 5 37
h88c24 82 52 158 100 215c43 52 95 82 159 82c49 0 92 -21 88 -65l2 -2c57 65 119 91 179 91c64 0 109 -32 109 -79c0 -30 -28 -43 -47 -43c-18 0 -29 7 -29 25c0 45 -19 67 -51 67c-35 0 -66 -20 -96 -57c-46 -59 -74 -151 -100 -234h95c65 0 115 14 133 14
c21 0 19 -25 8 -53l-114 -285c-4 -10 -5 -22 3 -22c17 0 70 35 104 74c10 -1 15 -8 15 -17c-15 -29 -118 -119 -187 -119c-5 0 -11 3 -16 9c-6 7 -7 16 -3 27l118 304c9 24 7 31 -29 31h-137c-38 -131 -70 -252 -109 -379c-30 -97 -60 -152 -80 -172
c-12 -12 -55 -51 -114 -51c-46 0 -65 34 -65 51c0 24 12 30 19 36c14 12 21 4 29 -9c14 -23 40 -37 60 -37c18 0 43 16 64 91c47 163 85 339 124 470zM239 394h172c20 67 41 126 77 190c-4 47 -39 77 -73 77c-35 0 -71 -22 -100 -72c-22 -38 -44 -85 -76 -195z" />
    <glyph glyph-name="ffl" unicode="ffl" horiz-adv-x="732" 
d="M158 357h-82c-10 9 -8 28 5 37h88c24 82 52 158 100 215c43 52 95 82 159 82c49 0 92 -21 88 -65l2 -2c58 69 115 91 165 91c29 0 60 -12 81 -32c28 18 45 27 59 32l7 -6c-14 -36 -24 -64 -61 -172l-160 -472c-8 -23 -7 -33 5 -33c22 0 69 49 115 101c10 1 16 -4 16 -14
c-26 -50 -89 -133 -173 -133c-29 0 -38 14 -38 30s5 34 22 85l87 256h-170c-38 -131 -70 -252 -109 -379c-30 -97 -60 -152 -80 -172c-12 -12 -55 -51 -114 -51c-46 0 -65 34 -65 51c0 24 12 30 19 36c14 12 21 4 29 -9c14 -23 40 -37 60 -37c18 0 43 16 64 91
c47 163 85 339 124 470h-171c-6 -17 -14 -49 -23 -79c-32 -111 -60 -222 -94 -332c-27 -90 -58 -145 -79 -164c-12 -12 -55 -51 -114 -51c-46 0 -65 34 -65 51c0 24 12 30 19 36c14 12 21 4 29 -9c14 -23 40 -37 60 -37c18 0 42 15 63 83c51 167 84 339 132 502zM239 394
h172c20 67 41 126 77 190c-4 47 -39 77 -73 77c-35 0 -71 -22 -100 -72c-22 -38 -44 -85 -76 -195zM483 394h172l71 207c17 48 -13 84 -55 84c-31 0 -64 -20 -89 -51c-30 -38 -59 -100 -99 -240z" />
    <glyph glyph-name="f_j" unicode="fj" horiz-adv-x="503" 
d="M158 357h-83c-10 10 -6 29 7 37h86c25 84 61 181 117 240c54 57 110 81 166 81c64 0 109 -32 109 -79c0 -30 -28 -43 -47 -43c-18 0 -29 7 -29 25c0 45 -19 67 -51 67c-33 0 -66 -20 -94 -57c-46 -63 -73 -151 -99 -234h95c33 0 61 4 84 7c23 4 40 7 49 7
c21 0 14 -24 8 -53c-7 -33 -30 -105 -42 -145c-20 -67 -60 -205 -91 -280c-36 -88 -92 -175 -180 -175c-48 0 -67 32 -67 54c0 17 13 39 32 39c5 0 9 -4 12 -10c16 -27 39 -43 57 -43s33 11 50 50c37 85 81 233 108 323c20 68 42 135 47 158c5 24 1 31 -35 31h-137
c-6 -17 -14 -49 -23 -79c-32 -111 -60 -222 -94 -332c-27 -90 -58 -145 -79 -164c-12 -12 -55 -51 -114 -51c-46 0 -65 34 -65 51c0 22 12 31 19 36c14 12 21 4 29 -9c14 -23 40 -37 60 -37c18 0 42 15 63 83c51 167 84 339 132 502z" />
    <glyph glyph-name="f_f_j" unicode="ffj" horiz-adv-x="746" 
d="M401 357h-171c-6 -17 -14 -49 -23 -79c-32 -111 -60 -222 -94 -332c-27 -90 -58 -145 -79 -164c-12 -12 -55 -51 -114 -51c-46 0 -65 34 -65 51c0 24 12 30 19 36c14 12 21 4 29 -9c14 -23 40 -37 60 -37c18 0 42 15 63 83c51 167 84 339 132 502h-82c-10 9 -8 28 5 37
h88c24 82 52 158 100 215c43 52 95 82 159 82c49 0 92 -21 88 -65l2 -2c57 65 119 91 179 91c64 0 109 -32 109 -79c0 -30 -28 -43 -47 -43c-18 0 -29 7 -29 25c0 45 -19 67 -51 67c-35 0 -66 -20 -96 -57c-46 -59 -74 -151 -100 -234h95c65 0 115 14 133 14
c21 0 19 -25 8 -53c-7 -33 -30 -105 -42 -145c-20 -67 -61 -205 -91 -280c-36 -88 -92 -175 -180 -175c-48 0 -67 32 -67 54c0 17 13 39 32 39c5 0 9 -4 12 -10c16 -27 39 -43 57 -43s33 11 50 50c36 86 81 233 108 323c20 68 42 135 47 158c3 24 1 31 -35 31h-137
c-38 -131 -70 -252 -109 -379c-30 -97 -60 -152 -80 -172c-12 -12 -55 -51 -114 -51c-46 0 -65 34 -65 51c0 24 12 30 19 36c14 12 21 4 29 -9c14 -23 40 -37 60 -37c18 0 43 16 64 91c47 163 85 339 124 470zM239 394h172c20 67 41 126 77 190c-4 47 -39 77 -73 77
c-35 0 -71 -22 -100 -72c-22 -38 -44 -85 -76 -195z" />
    <glyph glyph-name="T_h" unicode="Th" horiz-adv-x="995" 
d="M306 660h415c41 0 50 3 54 11l10 21c23 13 48 22 68 23l4 -6c-20 -56 -52 -147 -72 -204l-103 -299l2 -2c70 99 122 139 158 165s68 39 95 39c44 0 60 -32 60 -67c0 -69 -42 -170 -78 -234c-19 -34 -39 -56 -65 -82c-33 -33 -60 -39 -73 -39c-33 0 -37 21 -37 29
c0 17 14 32 27 32c4 0 9 -2 14 -6c8 -6 19 -13 26 -13c15 0 25 15 40 50c27 65 72 203 72 258c0 19 -7 30 -21 30s-35 -12 -54 -27c-42 -32 -75 -65 -127 -133c-45 -60 -95 -157 -121 -208c-4 -8 -9 -12 -18 -12c-11 0 -37 3 -29 26l178 537c21 63 25 80 -66 80h-109
c-32 0 -32 -3 -46 -44l-146 -441c-31 -93 -32 -115 18 -119l37 -3c8 -7 7 -21 -4 -25c-50 2 -85 3 -128 3c-41 0 -75 -1 -122 -3c-8 5 -8 19 -1 25l35 3c44 4 56 17 90 119l147 441c15 44 10 44 -22 44h-80c-99 0 -120 -24 -168 -90c-10 -4 -21 1 -23 10
c25 40 58 102 72 134c4 5 15 5 19 0c-3 -18 11 -23 72 -23z" />
    <glyph glyph-name="T_h.caron" unicode="&#x164;h" horiz-adv-x="995" 
d="M306 660h415c41 0 52 3 56 11l10 21c21 13 46 22 66 23l4 -6c-20 -56 -52 -147 -72 -204l-103 -299l2 -2c70 99 122 139 158 165s68 39 95 39c44 0 60 -32 60 -67c0 -69 -42 -170 -78 -234c-19 -34 -39 -56 -65 -82c-33 -33 -60 -39 -73 -39c-33 0 -37 21 -37 29
c0 17 14 32 27 32c4 0 9 -2 14 -6c8 -6 19 -13 26 -13c15 0 25 15 40 50c27 65 72 203 72 258c0 19 -7 30 -21 30s-35 -12 -54 -27c-42 -32 -75 -65 -127 -133c-45 -60 -95 -157 -121 -208c-4 -8 -9 -12 -18 -12c-11 0 -37 3 -29 26l178 537c21 63 25 80 -66 80h-109
c-32 0 -32 -3 -46 -44l-146 -441c-31 -93 -32 -115 18 -119l37 -3c8 -7 7 -21 -4 -25c-50 2 -85 3 -128 3c-41 0 -75 -1 -122 -3c-8 5 -8 19 -1 25l35 3c44 4 56 17 90 119l147 441c15 44 10 44 -22 44h-80c-99 0 -120 -24 -168 -90c-10 -4 -21 1 -23 10
c25 40 58 102 72 134c4 5 15 5 19 0c-3 -18 11 -23 72 -23zM655 823l-138 -108c-8 -5 -15 -9 -23 -9c-6 0 -12 3 -17 9l-88 108c-1 8 9 16 16 18l85 -63c8 -6 12 -7 17 -7c4 0 10 2 16 5l123 65c7 0 10 -11 9 -18z" />
    <glyph glyph-name="T_h.commaaccentt" unicode="&#x162;h" horiz-adv-x="995" 
d="M306 660h415c41 0 50 3 54 11l10 21c23 13 48 22 68 23l4 -6c-20 -56 -52 -147 -72 -204l-103 -299l2 -2c70 99 122 139 158 165s68 39 95 39c44 0 60 -32 60 -67c0 -69 -42 -170 -78 -234c-19 -34 -39 -56 -65 -82c-33 -33 -60 -39 -73 -39c-33 0 -37 21 -37 29
c0 17 14 32 27 32c4 0 9 -2 14 -6c8 -6 19 -13 26 -13c15 0 25 15 40 50c27 65 72 203 72 258c0 19 -7 30 -21 30s-35 -12 -54 -27c-42 -32 -75 -65 -127 -133c-45 -60 -95 -157 -121 -208c-4 -8 -9 -12 -18 -12c-11 0 -37 3 -29 26l178 537c21 63 25 80 -66 80h-109
c-32 0 -32 -3 -46 -44l-146 -441c-31 -93 -32 -115 18 -119l37 -3c8 -7 7 -21 -4 -25c-50 2 -85 3 -128 3c-41 0 -75 -1 -122 -3c-8 5 -8 19 -1 25l35 3c44 4 56 17 90 119l147 441c15 44 10 44 -22 44h-80c-99 0 -120 -24 -168 -90c-10 -4 -21 1 -23 10
c25 40 58 102 72 134c4 5 15 5 19 0c-3 -18 11 -23 72 -23zM262 -48c40 0 61 -35 61 -67c0 -70 -72 -112 -129 -123c-5 4 -8 14 -5 21c27 13 77 41 77 83c0 16 -11 29 -28 32c-7 2 -12 10 -12 22c0 19 16 32 36 32z" />
    <glyph glyph-name="T_h.swash" unicode="&#xe04d;h" horiz-adv-x="1115" 
d="M139 468c3 52 23 96 64 135c67 63 167 73 230 73c67 0 125 -8 192 -14c62 -6 144 -13 200 -13c41 0 68 9 72 24c7 25 19 50 47 50c21 0 31 -16 31 -33c0 -21 -13 -38 -23 -47l-150 -437l2 -2c70 99 122 139 158 165s68 39 95 39c44 0 60 -32 60 -67
c0 -69 -42 -170 -78 -234c-19 -34 -39 -56 -65 -82c-33 -33 -60 -39 -73 -39c-33 0 -37 21 -37 29c0 17 14 32 27 32c4 0 9 -2 14 -6c8 -6 19 -13 26 -13c15 0 25 15 40 50c27 65 72 203 72 258c0 19 -7 30 -21 30s-35 -12 -54 -27c-42 -32 -75 -65 -127 -133
c-45 -60 -95 -157 -121 -208c-4 -8 -9 -12 -18 -12c-11 0 -37 3 -29 26l205 607c-31 -6 -65 -7 -90 -7c-70 0 -108 4 -126 4c-16 0 -18 -2 -23 -16l-162 -474c-27 -79 -29 -95 22 -100l44 -4c8 -7 6 -21 -5 -25c-61 2 -96 3 -142 3c-38 0 -72 -1 -125 -3c-8 5 -7 19 0 25
l42 6c49 7 58 10 88 97l164 476c6 18 4 21 -14 22c-61 3 -96 6 -130 6c-99 0 -164 -25 -195 -52c-34 -28 -50 -66 -52 -99c-2 -41 22 -60 53 -60c13 0 27 5 32 5c8 0 21 -16 21 -30c-2 -22 -22 -41 -49 -41c-58 0 -94 67 -92 116z" />
    <glyph glyph-name="T_h.caronswash" unicode="&#xe054;h" horiz-adv-x="1115" 
d="M139 468c3 52 23 96 64 135c67 63 167 73 230 73c67 0 125 -8 192 -14c62 -6 144 -13 200 -13c41 0 68 9 72 24c7 25 19 50 47 50c21 0 31 -16 31 -33c0 -21 -13 -38 -23 -47l-150 -437l2 -2c70 99 122 139 158 165s68 39 95 39c44 0 60 -32 60 -67
c0 -69 -42 -170 -78 -234c-19 -34 -39 -56 -65 -82c-33 -33 -60 -39 -73 -39c-33 0 -37 21 -37 29c0 17 14 32 27 32c4 0 9 -2 14 -6c8 -6 19 -13 26 -13c15 0 25 15 40 50c27 65 72 203 72 258c0 19 -7 30 -21 30s-35 -12 -54 -27c-42 -32 -75 -65 -127 -133
c-45 -60 -95 -157 -121 -208c-4 -8 -9 -12 -18 -12c-11 0 -37 3 -29 26l205 607c-31 -6 -65 -7 -90 -7c-70 0 -108 4 -126 4c-16 0 -18 -2 -23 -16l-162 -474c-27 -79 -29 -95 22 -100l44 -4c8 -7 6 -21 -5 -25c-61 2 -96 3 -142 3c-38 0 -72 -1 -125 -3c-8 5 -7 19 0 25
l42 6c49 7 58 10 88 97l164 476c6 18 4 21 -14 22c-61 3 -96 6 -130 6c-99 0 -164 -25 -195 -52c-34 -28 -50 -66 -52 -99c-2 -41 22 -60 53 -60c13 0 27 5 32 5c8 0 21 -16 21 -30c-2 -22 -22 -41 -49 -41c-58 0 -94 67 -92 116zM781 823l-138 -108c-8 -5 -15 -9 -23 -9
c-6 0 -12 3 -17 9l-88 108c-1 8 9 16 16 18l85 -63c8 -6 12 -7 17 -7c4 0 10 2 16 5l123 65c7 0 10 -11 9 -18z" />
    <glyph glyph-name="T_h.commaaccentswash" unicode="&#xe055;h" horiz-adv-x="1115" 
d="M139 468c3 52 23 96 64 135c67 63 167 73 230 73c67 0 125 -8 192 -14c62 -6 144 -13 200 -13c41 0 68 9 72 24c7 25 19 50 47 50c21 0 31 -16 31 -33c0 -21 -13 -38 -23 -47l-150 -437l2 -2c70 99 122 139 158 165s68 39 95 39c44 0 60 -32 60 -67
c0 -69 -42 -170 -78 -234c-19 -34 -39 -56 -65 -82c-33 -33 -60 -39 -73 -39c-33 0 -37 21 -37 29c0 17 14 32 27 32c4 0 9 -2 14 -6c8 -6 19 -13 26 -13c15 0 25 15 40 50c27 65 72 203 72 258c0 19 -7 30 -21 30s-35 -12 -54 -27c-42 -32 -75 -65 -127 -133
c-45 -60 -95 -157 -121 -208c-4 -8 -9 -12 -18 -12c-11 0 -37 3 -29 26l205 607c-31 -6 -65 -7 -90 -7c-70 0 -108 4 -126 4c-16 0 -18 -2 -23 -16l-162 -474c-27 -79 -29 -95 22 -100l44 -4c8 -7 6 -21 -5 -25c-61 2 -96 3 -142 3c-38 0 -72 -1 -125 -3c-8 5 -7 19 0 25
l42 6c49 7 58 10 88 97l164 476c6 18 4 21 -14 22c-61 3 -96 6 -130 6c-99 0 -164 -25 -195 -52c-34 -28 -50 -66 -52 -99c-2 -41 22 -60 53 -60c13 0 27 5 32 5c8 0 21 -16 21 -30c-2 -22 -22 -41 -49 -41c-58 0 -94 67 -92 116zM379 -48c40 0 61 -35 61 -67
c0 -70 -72 -112 -129 -123c-5 4 -8 14 -5 21c27 13 77 41 77 83c0 16 -11 29 -28 32c-7 2 -12 10 -12 22c0 19 16 32 36 32z" />
    <glyph glyph-name=".notdef" horiz-adv-x="500" 
d="M0 0v700h500v-700h-500zM250 395l170 255h-340zM280 350l170 -255v510zM80 50h340l-170 255zM50 605v-510l170 255z" />
    <glyph glyph-name="space" unicode=" " horiz-adv-x="250" 
 />
    <glyph glyph-name="space" unicode="&#xa0;" horiz-adv-x="250" 
 />
    <glyph glyph-name="exclam" unicode="!" horiz-adv-x="206" 
d="M251 646c39 0 47 -13 41 -32c-4 -12 -13 -33 -33 -84l-124 -325c-4 -8 -20 -8 -26 0l69 323c11 53 16 74 20 87c8 27 19 31 53 31zM85 95c29 0 44 -22 44 -45c0 -40 -28 -64 -57 -64c-28 0 -44 18 -44 47c0 36 28 62 57 62z" />
    <glyph glyph-name="quotedbl" unicode="&#x22;" horiz-adv-x="380" 
d="M276 686c41 0 39 -14 19 -63l-66 -161c-3 -8 -19 -8 -23 0l18 161c6 55 8 63 52 63zM434 686c41 0 39 -14 19 -63l-66 -161c-3 -8 -19 -8 -23 0l18 161c6 55 8 63 52 63z" />
    <glyph glyph-name="numbersign" unicode="#" horiz-adv-x="500" 
d="M403 404h-113l-68 -162h114zM549 404h-100l-68 -162h98l-21 -48h-95l-79 -191h-43l77 191h-114l-79 -191h-42l77 191h-109l21 48h106l66 162h-109l23 48h106l70 172h47l-71 -172h113l69 172h48l-71 -172h100z" />
    <glyph glyph-name="dollar" unicode="$" horiz-adv-x="500" 
d="M301 386l65 223c-65 -3 -128 -48 -128 -120c0 -49 29 -81 63 -103zM311 289l-75 -259c89 2 148 54 148 130c0 67 -29 101 -73 129zM436 717l-23 -79c52 -5 103 -25 121 -34c2 -25 -5 -69 -16 -108c-3 -6 -19 -6 -23 -3c3 36 -13 103 -92 115l-70 -242
c66 -41 124 -85 124 -171c0 -129 -110 -195 -231 -195l-28 -94c-8 -8 -32 -8 -38 0l28 96c-79 8 -127 40 -144 56c-9 23 -7 74 5 128c4 5 16 5 23 1c0 -50 32 -135 126 -153l81 276c-71 40 -108 92 -108 149c0 111 93 176 204 180l23 78c9 7 29 7 38 0z" />
    <glyph glyph-name="percent" unicode="%" horiz-adv-x="863" 
d="M339 640c74 0 113 -54 113 -135c0 -119 -93 -253 -198 -253c-81 0 -120 54 -120 133c0 122 87 255 205 255zM200 357c0 -50 19 -75 51 -75c89 0 135 191 135 257c0 43 -18 71 -49 71c-87 0 -137 -187 -137 -253zM724 376c74 0 113 -54 113 -135
c0 -119 -93 -253 -198 -253c-81 0 -120 54 -120 133c0 122 87 255 205 255zM585 93c0 -50 19 -75 51 -75c89 0 135 191 135 257c0 43 -18 71 -49 71c-87 0 -137 -187 -137 -253zM186 -14c188 223 373 445 557 668c12 0 29 -9 29 -25c-188 -223 -374 -446 -559 -669
c-18 0 -27 11 -27 26z" />
    <glyph glyph-name="ampersand" unicode="&#x26;" horiz-adv-x="770" 
d="M300 -14c-158 0 -221 97 -221 200c0 50 16 133 96 215c65 68 127 78 149 78c44 0 54 -26 63 -39c44 36 113 106 141 143c14 18 36 58 36 84c0 14 -5 23 -12 30c-8 8 -11 11 -11 22c0 27 21 41 40 41c23 0 46 -14 46 -53c0 -52 -33 -114 -126 -205
c-83 -82 -251 -209 -355 -280v-8c0 -128 100 -171 177 -171c83 0 185 56 243 163c38 70 51 120 54 202c-11 10 -32 17 -52 17c-31 0 -73 -30 -73 -64c0 -9 5 -22 8 -33s7 -22 7 -28c0 -7 -5 -28 -33 -28c-21 0 -43 13 -43 40c0 26 18 71 68 112c40 33 85 41 99 41
c55 0 84 -34 133 -78c23 -21 26 -26 44 -26c10 0 20 14 20 31c0 11 -2 19 -4 25c-2 7 -4 12 -4 15c0 12 14 25 32 25c27 0 37 -30 37 -56c0 -23 -11 -39 -19 -47c-6 -7 -15 -8 -26 -10c-17 -2 -57 -14 -75 -25c-11 -7 -19 -2 -24 6s-38 46 -69 71c0 -18 -2 -66 -4 -85
c-3 -30 -25 -129 -102 -216c-70 -79 -170 -109 -240 -109zM148 260c71 49 130 93 163 122c1 9 1 22 1 24c0 19 -14 31 -33 31c-14 0 -47 -15 -77 -54c-31 -41 -47 -81 -54 -123z" />
    <glyph glyph-name="quoteright" unicode="&#x2019;" horiz-adv-x="208" 
d="M253 686c46 0 69 -41 69 -77c0 -70 -83 -121 -147 -139c-6 3 -9 12 -6 19c32 15 89 48 89 101c0 18 -12 31 -32 38c-8 3 -15 10 -15 21c0 21 20 37 42 37z" />
    <glyph glyph-name="parenleft" unicode="(" horiz-adv-x="320" 
d="M144 140c0 -95 14 -209 64 -292c0 -8 -7 -12 -16 -11c-77 80 -102 182 -102 312c0 167 76 316 196 436c65 65 128 100 162 118c8 0 13 -7 13 -14c-58 -40 -125 -99 -171 -163c-80 -112 -146 -250 -146 -386z" />
    <glyph glyph-name="parenright" unicode=")" horiz-adv-x="320" 
d="M250 400c0 95 -14 209 -64 292c0 8 7 12 16 11c77 -80 102 -182 102 -312c0 -167 -76 -316 -196 -436c-65 -65 -128 -100 -162 -118c-8 0 -13 7 -13 14c58 40 125 99 171 163c80 112 146 250 146 386z" />
    <glyph glyph-name="asterisk" unicode="*" horiz-adv-x="400" 
d="M362 670l-20 -129l136 33c9 -3 12 -15 7 -23l-130 -52l93 -103c1 -9 -6 -20 -16 -19l-106 92l-39 -125c-7 -3 -19 -2 -24 6l19 129l-136 -36c-8 3 -11 16 -6 24l128 52l-94 104c-1 9 8 18 17 17l107 -89l40 124c7 3 18 1 24 -5z" />
    <glyph glyph-name="plus" unicode="+" horiz-adv-x="560" 
d="M340 0h-59v181h-163v49h163v164h59v-164h163v-49h-163v-181z" />
    <glyph glyph-name="comma" unicode="," horiz-adv-x="250" 
d="M89 117c47 0 71 -42 71 -79c0 -72 -85 -125 -151 -144c-7 3 -10 13 -7 20c33 15 92 49 92 104c0 19 -12 34 -33 39c-8 2 -15 11 -15 22c0 22 20 38 43 38z" />
    <glyph glyph-name="hyphen" unicode="-" horiz-adv-x="320" 
d="M67 230l243 22c10 -13 6 -45 -8 -57l-243 -22c-10 13 -5 45 8 57z" />
    <glyph glyph-name="hyphen" unicode="&#xad;" horiz-adv-x="320" 
d="M67 230l243 22c10 -13 6 -45 -8 -57l-243 -22c-10 13 -5 45 8 57z" />
    <glyph glyph-name="period" unicode="." horiz-adv-x="250" 
d="M103 95c29 0 44 -22 44 -45c0 -40 -28 -64 -57 -64c-28 0 -44 18 -44 47c0 36 28 62 57 62z" />
    <glyph glyph-name="slash" unicode="/" horiz-adv-x="250" 
d="M357 676l-306 -692h-58l306 692h58z" />
    <glyph glyph-name="zero" unicode="0" horiz-adv-x="500" 
d="M391 640c123 0 143 -110 143 -192c0 -116 -56 -267 -134 -362c-47 -57 -107 -100 -177 -100c-125 0 -149 111 -149 193c0 124 54 266 132 358c49 58 110 103 185 103zM388 610c-44 0 -91 -44 -128 -108c-60 -104 -109 -270 -109 -380c0 -63 20 -106 76 -106
c85 0 140 138 167 210c30 81 63 187 63 272c0 60 -14 112 -69 112z" />
    <glyph glyph-name="one" unicode="1" horiz-adv-x="500" 
d="M405 514l-118 -393c-24 -80 -15 -90 36 -96l26 -3c6 -5 6 -21 -1 -25c-51 2 -88 3 -129 3c-37 0 -77 -1 -122 -3c-8 5 -8 22 0 25l25 3c63 8 73 24 96 103l100 337c23 78 20 92 -18 96l-46 5c-6 5 -4 17 2 20c89 15 142 35 178 54c7 1 11 -1 13 -5
c-13 -34 -30 -81 -42 -121z" />
    <glyph glyph-name="two" unicode="2" horiz-adv-x="500" 
d="M358 253l-85 -66c-117 -91 -134 -112 -134 -118s8 -9 34 -9h117c86 0 95 1 139 60c8 3 17 0 21 -6c-13 -39 -40 -97 -57 -117c-25 1 -50 2 -74 2c-24 1 -48 1 -73 1h-144c-53 0 -87 -1 -105 -3c-4 2 -6 7 -6 11c0 2 0 3 1 5c61 41 107 73 205 155c89 74 241 189 241 309
c0 76 -46 116 -106 116c-65 0 -114 -43 -150 -92c-10 -5 -22 1 -21 15c45 77 125 124 202 124c104 0 162 -59 162 -149c0 -97 -86 -175 -167 -238z" />
    <glyph glyph-name="three" unicode="3" horiz-adv-x="500" 
d="M366 640c84 0 128 -43 128 -106c0 -70 -86 -113 -144 -138c-16 -7 -8 -17 8 -20c58 -11 113 -58 113 -137c0 -94 -76 -183 -147 -227c-89 -55 -172 -68 -229 -68c-59 0 -100 23 -100 59c0 23 17 41 42 41c24 0 35 -20 47 -37c12 -18 30 -27 57 -27c31 0 84 13 130 43
c72 47 112 122 112 205c0 65 -39 111 -111 111c-46 0 -89 -26 -118 -51c-16 2 -24 24 -13 39c43 17 132 54 179 82c54 32 92 72 92 116c0 55 -38 75 -76 75c-53 0 -105 -37 -149 -88c-11 -1 -19 5 -18 17c38 59 107 111 197 111z" />
    <glyph glyph-name="four" unicode="4" horiz-adv-x="500" 
d="M470 191h-53c-25 0 -30 -3 -37 -24l-19 -61c-19 -61 -20 -76 19 -81l25 -3c6 -5 4 -22 -3 -25c-40 2 -77 3 -108 3c-36 0 -77 -1 -118 -3c-8 3 -7 21 1 25l40 3c50 4 57 22 74 81l17 58c8 26 5 27 -21 27h-241c-9 0 -10 5 -10 15s9 18 29 38l454 449c8 8 15 13 25 13h19
c10 0 13 -3 13 -8c0 -3 -4 -7 -8 -11l-450 -439c-17 -17 -4 -19 24 -19h157c24 0 29 3 36 26l55 186c2 7 5 15 14 20c13 7 39 17 55 17c13 0 10 -11 4 -31l-57 -192c-6 -19 -4 -26 13 -26h63c6 -12 -1 -32 -12 -38z" />
    <glyph glyph-name="five" unicode="5" horiz-adv-x="500" 
d="M240 532l-28 -63c-8 -18 -5 -20 8 -22l27 -4c96 -14 212 -50 212 -197c0 -121 -100 -219 -203 -263c-79 -34 -171 -48 -234 -51c-14 4 -15 25 -5 34c226 2 365 121 365 255c0 137 -112 166 -229 167c-15 0 -13 11 -4 31l82 174c8 17 18 23 44 27l251 34c6 -1 9 -5 11 -9
c-9 -22 -27 -47 -43 -59l-206 -28c-31 -4 -40 -7 -48 -26z" />
    <glyph glyph-name="six" unicode="6" horiz-adv-x="500" 
d="M315 336c-17 0 -42 -5 -52 -9c-5 7 -7 14 -3 18c23 19 65 31 87 31c83 0 145 -50 145 -166c0 -109 -103 -224 -239 -224c-123 0 -185 76 -185 195c0 142 97 295 208 377c140 104 282 128 352 135c8 -2 8 -18 2 -22c-71 -18 -166 -40 -263 -111
c-136 -100 -215 -266 -215 -399c0 -86 31 -145 109 -145c94 0 145 119 145 207c0 69 -34 113 -91 113z" />
    <glyph glyph-name="seven" unicode="7" horiz-adv-x="500" 
d="M472 451l-381 -515c-17 -3 -32 9 -31 21l424 570c24 32 13 39 -15 39h-191c-75 0 -80 -6 -113 -46c-5 -5 -19 0 -22 7c14 21 38 64 52 102c15 -1 28 -2 43 -2c16 -1 35 -1 62 -1h169c55 0 122 0 135 3c6 -2 8 -7 7 -12c-41 -38 -84 -91 -139 -166z" />
    <glyph glyph-name="eight" unicode="8" horiz-adv-x="500" 
d="M242 -14c-105 0 -187 55 -187 151c0 114 108 152 189 201c-45 30 -77 77 -77 123c0 99 87 179 191 179c100 0 160 -65 160 -147c0 -77 -78 -117 -155 -155c51 -36 99 -91 99 -159c0 -121 -108 -193 -220 -193zM246 16c68 0 137 46 137 144c0 77 -56 123 -112 156
c-81 -47 -140 -97 -140 -176c0 -87 57 -124 115 -124zM447 504c0 61 -34 106 -94 106c-61 0 -116 -48 -116 -123c0 -59 43 -93 99 -129c56 34 111 77 111 146z" />
    <glyph glyph-name="nine" unicode="9" horiz-adv-x="500" 
d="M366 640c125 0 174 -83 174 -189c0 -70 -33 -163 -86 -243c-104 -154 -264 -241 -442 -268c-8 3 -10 18 -5 23c126 32 247 95 330 201c76 96 122 229 122 321c0 65 -25 125 -95 125c-86 0 -151 -95 -151 -191c0 -57 20 -115 87 -115c18 0 29 2 38 4c6 -3 8 -13 4 -19
c-20 -14 -57 -24 -80 -24c-79 0 -134 59 -134 144c0 106 102 231 238 231z" />
    <glyph glyph-name="colon" unicode=":" horiz-adv-x="250" 
d="M191 394c29 0 44 -22 44 -45c0 -40 -28 -64 -57 -64c-28 0 -44 18 -44 47c0 36 28 62 57 62zM103 95c29 0 44 -22 44 -45c0 -40 -28 -64 -57 -64c-28 0 -44 18 -44 47c0 36 28 62 57 62z" />
    <glyph glyph-name="semicolon" unicode=";" horiz-adv-x="250" 
d="M89 117c47 0 71 -42 71 -79c0 -72 -85 -125 -151 -144c-7 3 -10 13 -7 20c33 15 92 49 92 104c0 19 -12 34 -33 39c-8 2 -15 11 -15 22c0 22 20 38 43 38zM191 394c29 0 44 -22 44 -45c0 -40 -28 -64 -57 -64c-28 0 -44 18 -44 47c0 36 28 62 57 62z" />
    <glyph glyph-name="less" unicode="&#x3c;" horiz-adv-x="560" 
d="M118 227l389 185v-58l-317 -148v-2l317 -149v-57l-389 184v45z" />
    <glyph glyph-name="equal" unicode="=" horiz-adv-x="560" 
d="M503 305v-49h-385v49h385zM503 155v-49h-385v49h385z" />
    <glyph glyph-name="greater" unicode="&#x3e;" horiz-adv-x="560" 
d="M118 412l389 -185v-45l-389 -184v57l317 149v2l-317 148v58z" />
    <glyph glyph-name="question" unicode="?" horiz-adv-x="300" 
d="M187 390l62 35c50 28 81 53 81 91c0 44 -35 71 -70 71c-21 0 -35 -6 -45 -11s-16 -11 -22 -11c-9 0 -19 10 -19 28c0 27 30 53 72 53c58 0 117 -69 117 -142c0 -66 -38 -110 -103 -146l-67 -37c-32 -18 -46 -36 -46 -65c0 -17 4 -34 9 -48c-3 -6 -11 -8 -16 -5
c-18 23 -42 65 -31 106c9 33 38 59 78 81zM123 95c29 0 44 -22 44 -45c0 -40 -28 -64 -57 -64c-28 0 -44 18 -44 47c0 36 28 62 57 62z" />
    <glyph glyph-name="at" unicode="@" horiz-adv-x="770" 
d="M517 325c-21 0 -37 -9 -63 -30c-56 -45 -105 -147 -105 -201c0 -9 5 -13 12 -13c6 0 32 9 80 52c49 43 107 132 119 163c-5 15 -21 29 -43 29zM583 338l25 51c16 6 39 -2 48 -12c-13 -30 -101 -234 -117 -277c-9 -23 -3 -33 23 -32c106 4 195 78 195 204
c0 141 -114 230 -261 230c-198 0 -317 -164 -317 -348c0 -118 69 -275 298 -275c72 0 122 21 155 35c7 -3 11 -11 8 -19c-60 -38 -137 -51 -193 -51c-165 0 -337 98 -337 309c0 235 189 383 395 383c191 0 295 -126 295 -260c0 -128 -97 -241 -259 -241c-66 0 -72 15 -72 22
c0 5 1 13 8 31l25 63l-2 1c-60 -62 -148 -117 -189 -117c-28 0 -41 22 -41 45c0 18 17 82 76 154c48 59 120 126 200 126c13 0 32 -8 37 -22z" />
    <glyph glyph-name="A" unicode="A" horiz-adv-x="596" 
d="M552 25l26 -3c6 -6 3 -21 -4 -25c-31 2 -69 3 -113 3c-46 0 -85 -1 -115 -3c-10 4 -10 21 -1 25l31 3c22 2 35 10 39 16c3 5 8 19 11 62l9 134c2 23 0 26 -21 26h-144c-30 0 -32 -1 -51 -31l-73 -114c-35 -55 -45 -70 -45 -75c0 -6 4 -12 23 -15l37 -6c8 -6 5 -21 -2 -25
c-31 2 -62 3 -102 3c-39 0 -75 -1 -111 -3c-5 6 -4 19 2 25l27 3c30 3 52 18 72 42c29 36 87 116 165 225l176 248c43 60 56 86 60 103c34 5 71 33 73 33c5 0 12 -4 12 -8c0 -17 -5 -60 -10 -147l-20 -378c-6 -111 -5 -112 49 -118zM293 303h126c17 0 19 2 20 20l16 219
c1 14 0 26 -2 26c-3 0 -9 -6 -38 -49l-139 -201c-8 -12 -5 -15 17 -15z" />
    <glyph glyph-name="B" unicode="B" horiz-adv-x="581" 
d="M134 144l121 393c24 77 15 88 -30 89l-33 1c-7 5 -5 19 0 24c36 5 94 12 168 12c53 0 114 -4 162 -24c49 -21 85 -59 85 -126c0 -101 -101 -148 -156 -152c-16 -1 -9 -8 0 -11c57 -19 104 -75 104 -147c0 -37 -11 -88 -54 -130c-42 -42 -116 -76 -240 -76
c-54 0 -91 3 -133 3c-40 0 -74 -1 -103 -3c-8 5 -8 19 -1 25l20 3c48 7 59 17 90 119zM259 307l-59 -192c-20 -66 8 -87 80 -87c84 0 189 52 189 187c0 85 -73 126 -148 126c-48 0 -52 -1 -62 -34zM350 600l-62 -200c-7 -24 -6 -29 37 -29c72 0 200 35 200 161
c0 58 -44 100 -126 100c-38 0 -39 1 -49 -32z" />
    <glyph glyph-name="C" unicode="C" horiz-adv-x="646" 
d="M581 676c78 0 139 -22 164 -32c-16 -39 -36 -97 -45 -134c-4 -8 -24 -7 -27 1c19 87 -6 134 -109 134c-71 0 -164 -22 -256 -112c-50 -50 -118 -167 -118 -299c0 -142 67 -219 194 -219c104 0 167 61 215 140c10 4 21 2 24 -7c-9 -27 -31 -80 -65 -141
c-22 0 -49 -6 -79 -11c-29 -5 -62 -12 -97 -12c-130 0 -280 59 -280 269c0 116 61 227 143 301c84 76 205 122 336 122z" />
    <glyph glyph-name="D" unicode="D" horiz-adv-x="739" 
d="M133 144l125 405c19 62 12 71 -17 75l-40 5c-6 4 -7 19 0 24c15 2 102 10 186 10c288 0 360 -146 360 -273c0 -130 -63 -238 -158 -303c-113 -77 -243 -90 -334 -90c-30 0 -66 3 -125 3c-41 0 -75 -1 -110 -3c-8 5 -8 19 -1 25l26 3c46 5 57 17 88 119zM347 593
l-149 -479c-18 -59 3 -82 91 -82c289 0 369 243 369 351c0 95 -15 249 -264 249c-31 0 -37 -7 -47 -39z" />
    <glyph glyph-name="E" unicode="E" horiz-adv-x="566" 
d="M132 144l116 372c29 94 31 107 -22 118l-20 4c-6 8 -5 21 6 25c18 -1 35 -2 53 -2c18 -1 37 -1 58 -1h189c64 0 111 0 141 3c-7 -17 -31 -97 -41 -133c-4 -8 -22 -7 -25 1c6 52 9 77 -35 89c-23 6 -54 9 -106 9h-59c-26 0 -30 -4 -39 -34l-64 -205c-9 -28 -10 -29 18 -29
h50c95 0 115 6 138 49l16 30c4 7 23 6 25 -2c-7 -17 -23 -60 -34 -97c-12 -38 -21 -75 -26 -97c-6 -8 -21 -7 -25 1v28c0 52 -26 53 -103 53h-50c-28 0 -30 -1 -39 -29l-41 -135c-17 -56 -27 -90 -17 -110c7 -14 26 -21 111 -21c110 0 150 6 213 104c8 5 19 3 23 -6
c-9 -29 -43 -105 -69 -132c-33 1 -71 1 -111 2c-39 0 -80 1 -118 1h-118c-41 0 -75 -1 -119 -3c-8 5 -8 19 -1 25l35 3c48 4 58 17 90 119z" />
    <glyph glyph-name="F" unicode="F" horiz-adv-x="533" 
d="M133 144l117 372c30 94 31 106 -23 118l-18 4c-6 8 -5 21 6 25c17 -1 33 -1 51 -2c17 0 36 -1 57 -1h186c64 0 112 0 141 3c-7 -17 -31 -97 -41 -133c-4 -8 -22 -7 -25 1c6 52 9 77 -35 89c-23 6 -54 9 -106 9h-55c-28 0 -28 -3 -38 -34l-69 -219c-7 -21 -5 -25 16 -25
h69c95 0 114 7 137 49l17 31c5 6 24 5 26 -2c-7 -18 -22 -58 -34 -95s-22 -75 -26 -100c-6 -7 -19 -6 -26 0l1 38c1 33 -21 44 -103 44h-74c-22 0 -24 -3 -32 -28l-44 -144c-28 -93 -32 -115 19 -119l39 -3c6 -7 3 -21 -4 -25c-58 2 -93 3 -136 3c-40 0 -74 -1 -113 -3
c-8 5 -8 19 -1 25l31 3c48 5 58 17 90 119z" />
    <glyph glyph-name="G" unicode="G" horiz-adv-x="703" 
d="M518 90l26 82c23 73 24 87 -36 95l-39 5c-7 6 -6 21 2 25c44 -2 78 -3 120 -3c43 0 90 1 114 3c7 -4 8 -20 -1 -25l-17 -5c-38 -11 -42 -15 -67 -95l-31 -99c-4 -13 -2 -24 8 -30c1 -4 0 -10 -4 -14c-69 -24 -157 -45 -210 -45c-177 0 -282 97 -282 260
c0 97 41 217 144 307c96 84 209 125 348 125c85 0 148 -22 171 -32c-17 -36 -37 -94 -47 -133c-4 -8 -22 -7 -25 1c18 92 -14 133 -111 133c-118 0 -196 -45 -262 -107c-72 -67 -130 -201 -130 -315c0 -159 98 -208 198 -208c70 0 110 10 131 75z" />
    <glyph glyph-name="H" unicode="H" horiz-adv-x="761" 
d="M313 363h264c46 0 46 1 53 22l41 131c29 94 32 109 -22 118l-25 4c-5 7 -4 21 6 25c41 -2 74 -3 117 -3c41 0 72 1 116 3c7 -4 9 -19 0 -25l-24 -4c-56 -9 -62 -19 -93 -118l-116 -372c-29 -93 -32 -113 19 -119l27 -3c6 -10 3 -21 -4 -25c-47 2 -79 3 -122 3
c-42 0 -75 -1 -116 -3c-8 5 -8 18 -1 25l32 3c47 4 58 17 90 119l48 152c8 26 7 27 -36 27h-272c-32 0 -31 -3 -38 -24l-49 -155c-29 -93 -32 -114 19 -119l31 -3c6 -8 3 -21 -4 -25c-49 2 -83 3 -126 3c-41 0 -75 -1 -107 -3c-8 5 -8 18 -1 25l23 3c48 6 58 17 90 119
l117 372c30 94 32 109 -23 118l-24 4c-6 9 -5 21 6 25c40 -2 74 -3 116 -3c43 0 74 1 116 3c7 -4 9 -17 0 -25l-23 -4c-57 -10 -61 -19 -93 -118l-41 -129c-7 -23 -7 -24 29 -24z" />
    <glyph glyph-name="I" unicode="I" horiz-adv-x="341" 
d="M133 144l117 372c30 94 32 109 -23 118l-24 4c-6 8 -5 21 6 25c40 -2 74 -3 116 -3c41 0 72 1 120 3c7 -4 9 -20 0 -25l-27 -4c-58 -9 -62 -19 -93 -118l-117 -372c-29 -93 -32 -114 19 -119l31 -3c6 -7 3 -21 -4 -25c-49 2 -83 3 -126 3c-41 0 -75 -1 -115 -3
c-8 5 -8 19 -1 25l31 3c48 5 58 17 90 119z" />
    <glyph glyph-name="J" unicode="J" horiz-adv-x="340" 
d="M139 125l121 391c29 94 31 110 -23 119l-25 4c-6 8 -5 20 6 24c41 -2 74 -3 117 -3c41 0 72 1 112 3c7 -4 9 -19 0 -24l-27 -4c-49 -7 -54 -20 -85 -119l-142 -457c-16 -52 -35 -102 -63 -149c-42 -71 -104 -111 -183 -111c-30 0 -63 7 -63 29c0 16 18 43 39 43
c14 0 25 -7 37 -14c19 -11 31 -15 48 -15c27 0 47 39 65 87c8 20 34 93 66 196z" />
    <glyph glyph-name="K" unicode="K" horiz-adv-x="623" 
d="M133 144l117 372c30 94 32 109 -17 118l-23 4c-6 8 -5 21 6 25c32 -2 66 -3 108 -3c43 0 74 1 119 3c7 -4 8 -20 -3 -25l-20 -4c-59 -12 -63 -19 -95 -118l-42 -132c-7 -22 -6 -28 18 -28c15 0 29 3 43 10c21 12 62 46 105 87l100 95c54 52 65 66 65 74c0 6 -11 9 -24 12
l-19 4c-7 6 -5 22 4 25c33 -2 67 -3 110 -3c49 0 79 2 108 3c9 -5 8 -21 -1 -25l-21 -4c-18 -3 -43 -8 -67 -18c-26 -11 -78 -43 -177 -134l-128 -117c-17 -15 -19 -16 -8 -38l110 -220c27 -55 43 -76 91 -82l26 -3c7 -6 5 -22 -3 -25c-32 2 -75 3 -106 3
c-38 0 -75 -1 -113 -3c-4 8 -5 21 3 25l26 3c34 4 30 14 10 54l-105 206c-21 41 -31 45 -40 45c-19 0 -27 -9 -33 -28l-49 -158c-29 -93 -32 -114 19 -119l28 -3c6 -7 3 -21 -4 -25c-46 2 -81 3 -124 3c-41 0 -74 -1 -114 -3c-8 5 -8 19 -1 25l31 3c48 5 58 17 90 119z" />
    <glyph glyph-name="L" unicode="L" horiz-adv-x="546" 
d="M324 516l-110 -354c-34 -110 -41 -131 81 -131c115 0 158 5 219 104c10 3 20 1 22 -6c-11 -34 -46 -105 -64 -132c-37 1 -77 2 -117 2c-40 1 -79 1 -114 1h-116c-41 0 -74 -1 -106 -3c-8 5 -8 19 -1 25l24 3c48 6 58 17 90 119l117 372c30 94 32 109 -23 118l-24 4
c-6 8 -5 21 6 25c39 -1 73 -3 114 -3c43 0 74 2 126 3c7 -4 9 -20 0 -25l-31 -4c-57 -7 -62 -19 -93 -118z" />
    <glyph glyph-name="M" unicode="M" horiz-adv-x="874" 
d="M192 339l52 135c33 85 42 118 42 134c0 14 -9 20 -28 23l-47 7c-6 6 -4 21 5 25c47 -2 79 -3 110 -3c22 0 46 1 67 3c-14 -48 -6 -109 5 -195l16 -129c11 -86 17 -139 22 -183h2c39 47 77 98 115 147l159 205c76 98 92 137 97 155c17 -2 35 -3 62 -3c39 0 70 1 101 3
c8 -5 5 -19 0 -25l-23 -4c-35 -6 -50 -12 -60 -23c-14 -16 -24 -47 -46 -124l-87 -310c-21 -74 -28 -109 -29 -125s12 -25 40 -27l34 -3c7 -7 4 -21 -4 -25c-37 2 -82 3 -128 3c-41 0 -84 -1 -121 -3c-7 6 -7 21 0 25l26 3c18 2 44 8 55 19c12 12 32 64 51 127l80 262
c16 51 30 96 38 126l-3 1c-14 -18 -39 -52 -93 -122l-152 -197c-57 -74 -116 -150 -160 -225c-6 -4 -15 -1 -19 4c1 36 -4 89 -16 204l-34 336h-2c-16 -36 -31 -78 -46 -119l-75 -202c-48 -129 -60 -168 -60 -187c0 -11 5 -19 30 -23l43 -7c4 -6 2 -20 -3 -25
c-28 2 -68 3 -115 3c-41 0 -75 -1 -107 -3c-6 6 -6 22 1 25l27 3c22 2 44 9 57 27c16 20 57 121 121 287z" />
    <glyph glyph-name="N" unicode="N" horiz-adv-x="739" 
d="M155 233l79 256c18 58 33 101 33 119c0 14 -9 19 -26 22l-40 8c-8 7 -5 22 5 25c15 -1 30 -1 47 -2c16 0 34 -1 55 -1h62v-14c0 -11 10 -48 49 -145l101 -249c20 -48 37 -91 49 -113c7 0 12 12 17 28l79 251c30 95 48 166 48 185c0 18 -2 25 -25 29l-39 6
c-6 9 -2 21 6 25c35 -2 76 -3 113 -3c38 0 66 1 95 3c5 -4 7 -19 1 -25l-23 -4c-23 -4 -43 -9 -52 -18c-14 -14 -51 -104 -82 -201l-72 -224c-34 -106 -45 -144 -63 -206c-6 -6 -16 -7 -24 -6c-13 40 -27 84 -93 244l-79 192c-27 66 -51 132 -67 165c-5 0 -15 -33 -32 -88
l-78 -260c-21 -69 -38 -149 -42 -166c-8 -33 15 -37 49 -41l23 -3c6 -6 4 -20 -3 -25c-30 2 -68 3 -114 3c-36 0 -74 -1 -105 -3c-6 4 -10 18 -2 25l25 3c12 1 35 6 49 17c17 13 37 64 76 191z" />
    <glyph glyph-name="O" unicode="O" horiz-adv-x="730" 
d="M506 676c131 0 246 -89 237 -274c-5 -111 -56 -234 -135 -309c-61 -58 -145 -109 -262 -109c-170 0 -248 133 -244 261c3 123 54 250 160 340c79 67 163 91 244 91zM502 645c-64 0 -115 -30 -150 -60c-72 -61 -160 -204 -166 -378c-3 -94 35 -192 167 -192
c49 0 105 14 167 80c90 97 135 242 139 351c5 127 -57 199 -157 199z" />
    <glyph glyph-name="P" unicode="P" horiz-adv-x="552" 
d="M237 623l-48 4c-7 6 -4 18 3 24c43 7 102 12 168 12c99 0 162 -19 198 -49c40 -34 55 -76 55 -124c0 -67 -37 -119 -85 -153c-51 -35 -128 -51 -185 -51c-8 3 -9 14 -3 21c74 9 189 63 189 199c0 87 -56 126 -135 126c-32 0 -34 -4 -44 -35l-141 -453
c-29 -93 -32 -115 19 -119l36 -3c6 -7 3 -21 -4 -25c-48 2 -83 3 -131 3c-41 0 -75 -1 -115 -3c-8 5 -8 19 -1 25l31 3c48 5 58 17 90 119l129 414c15 48 11 62 -26 65z" />
    <glyph glyph-name="Q" unicode="Q" horiz-adv-x="730" 
d="M506 676c131 0 246 -89 237 -274c-5 -111 -56 -234 -135 -309c-44 -42 -100 -80 -164 -95c-7 -4 -6 -10 -1 -15c48 -48 133 -127 214 -156c33 -12 65 -13 86 -13c22 0 44 4 57 10c6 -3 7 -10 5 -15c-28 -20 -77 -28 -112 -28c-132 0 -258 88 -333 182
c-12 15 -24 22 -46 23c-71 4 -216 65 -212 259c3 123 54 250 160 340c79 67 163 91 244 91zM502 645c-64 0 -115 -30 -150 -60c-72 -61 -160 -204 -166 -378c-3 -94 35 -192 167 -192c49 0 105 14 167 80c90 97 135 242 139 351c5 127 -57 199 -157 199z" />
    <glyph glyph-name="R" unicode="R" horiz-adv-x="574" 
d="M132 144l117 374c30 95 25 104 -9 108l-38 4c-5 8 -4 21 5 25c57 7 114 8 170 8c96 0 154 -20 189 -52c35 -31 46 -72 46 -114c0 -101 -96 -164 -172 -177c-14 -2 -16 -7 -12 -24c13 -54 32 -120 50 -173c23 -67 34 -97 99 -104c7 -4 2 -16 0 -19c-16 -2 -33 -3 -63 -3
c-48 0 -76 9 -93 59c-25 74 -43 132 -59 194c-12 46 -18 50 -50 50c-52 0 -57 -3 -66 -32l-39 -124c-29 -93 -32 -112 20 -119l24 -3c6 -7 3 -21 -4 -25c-42 2 -80 3 -120 3c-41 0 -75 -1 -106 -3c-8 5 -8 19 -1 25l22 3c48 7 58 17 90 119zM349 600l-70 -229
c-12 -41 -11 -42 40 -42c104 0 208 71 211 181c2 78 -45 122 -131 122c-39 0 -42 -6 -50 -32z" />
    <glyph glyph-name="S" unicode="S" horiz-adv-x="471" 
d="M211 -16c-72 0 -141 22 -175 70c-3 36 5 86 18 116c6 5 16 5 21 -2c7 -87 48 -153 148 -153c64 0 146 41 146 141c0 74 -47 115 -100 157c-52 42 -104 102 -104 174c0 109 86 189 219 189c65 0 123 -25 145 -40c-14 -25 -27 -81 -37 -116c-7 -6 -21 -5 -27 1
c14 68 -5 124 -94 124c-91 0 -135 -59 -135 -128c0 -67 61 -116 97 -144c61 -47 108 -100 108 -182c0 -119 -91 -207 -230 -207z" />
    <glyph glyph-name="T" unicode="T" horiz-adv-x="634" 
d="M306 660h370c51 0 65 3 85 23c5 2 15 0 17 -5c-20 -34 -51 -115 -57 -142c-4 -7 -18 -7 -23 0c5 79 2 93 -95 93h-61c-32 0 -33 -2 -46 -44l-138 -441c-29 -93 -32 -115 18 -119l37 -3c8 -7 7 -21 -4 -25c-54 2 -89 3 -132 3c-41 0 -75 -1 -122 -3c-8 5 -8 19 -1 25l39 3
c44 3 58 17 90 119l138 441c14 44 11 44 -21 44h-66c-99 0 -120 -24 -168 -90c-10 -4 -21 1 -23 10c25 40 58 102 72 134c4 5 15 5 19 0c-3 -18 11 -23 72 -23z" />
    <glyph glyph-name="U" unicode="U" horiz-adv-x="734" 
d="M159 266l78 250c29 94 31 110 -23 119l-25 4c-6 6 -5 20 4 24c42 -2 74 -3 117 -3s74 1 123 3c7 -4 8 -19 -1 -24l-28 -4c-57 -8 -61 -20 -92 -119l-72 -231c-46 -149 -33 -265 130 -265c139 0 207 124 247 248l46 141c21 65 36 130 40 155c7 44 12 64 -38 71l-28 4
c-6 7 -4 20 4 24c49 -2 74 -3 107 -3s69 1 108 3c8 -5 8 -19 0 -24l-23 -4c-51 -9 -59 -23 -79 -74c-9 -23 -29 -87 -49 -152l-46 -147c-22 -69 -55 -155 -117 -209c-52 -46 -126 -69 -189 -69c-182 0 -251 98 -194 282z" />
    <glyph glyph-name="V" unicode="V" horiz-adv-x="622" 
d="M249 95l-41 429c-8 83 -13 105 -48 111l-25 4c-7 8 -5 20 5 24c31 -2 62 -3 97 -3c47 0 77 1 109 3c9 -4 9 -19 1 -24l-28 -4c-43 -6 -48 -13 -42 -73l35 -376c3 -37 6 -57 10 -60c7 3 29 35 45 59l114 170c47 70 121 180 148 224c23 37 21 50 -3 54l-37 6
c-6 6 -5 21 3 24c39 -2 75 -3 112 -3c33 0 63 1 89 3c8 -4 6 -18 2 -24l-29 -4c-24 -3 -41 -13 -59 -34c-24 -26 -101 -128 -170 -229l-85 -124c-44 -64 -161 -244 -171 -261c-3 -2 -7 -3 -12 -3c-4 0 -9 1 -13 3c-1 32 -5 84 -7 108z" />
    <glyph glyph-name="W" unicode="W" horiz-adv-x="878" 
d="M254 171l-57 394c-7 47 -6 62 -47 70l-21 4c-7 6 -6 20 3 24c32 -2 61 -3 97 -3s69 1 103 3c7 -3 8 -20 1 -24l-37 -4c-26 -3 -34 -17 -28 -57l54 -378c9 -63 11 -81 16 -84c8 5 15 16 64 83l67 92c14 20 20 29 16 56l-34 228c-6 42 -14 54 -46 60l-23 4c-6 6 -6 21 4 24
c27 -2 63 -3 98 -3c40 0 75 1 98 3c6 -3 7 -19 0 -24l-33 -4c-25 -3 -34 -11 -28 -53l25 -189l18 27l34 50c46 67 85 129 92 142c7 12 -6 21 -21 23l-25 4c-7 5 -5 21 4 24c30 -2 58 -3 89 -3c30 0 63 1 84 3c7 -4 6 -19 0 -24l-19 -4c-43 -9 -50 -17 -93 -71
c-41 -52 -116 -159 -136 -189c-13 -18 -19 -21 -15 -46l19 -129c10 -65 13 -80 17 -84c6 3 13 13 50 69c21 32 198 302 237 369c22 37 34 56 35 66c2 9 -7 11 -26 15l-20 4c-6 6 -5 20 3 24c33 -2 63 -3 91 -3c35 0 63 1 84 3c6 -3 7 -20 0 -24l-23 -4
c-50 -9 -86 -75 -112 -113l-155 -228c-69 -102 -134 -204 -200 -307c-3 -2 -7 -3 -12 -3c-4 0 -9 1 -12 3c-7 83 -20 166 -33 247l-6 37l-134 -191c-22 -32 -41 -60 -60 -93c-3 -2 -7 -3 -12 -3c-4 0 -9 1 -13 3c-2 31 -14 132 -22 184z" />
    <glyph glyph-name="X" unicode="X" horiz-adv-x="576" 
d="M-42 22l23 3c53 7 81 27 154 107c21 24 83 87 164 176c10 11 14 20 8 34c-25 65 -60 164 -87 234c-15 38 -23 52 -58 58l-22 4c-7 6 -3 22 5 25c45 -2 75 -3 107 -3c44 0 76 1 102 3c7 -5 6 -20 0 -25l-27 -4c-43 -6 -45 -15 -34 -48c22 -62 46 -134 73 -203
c59 60 130 142 185 207c26 30 28 40 -3 44l-29 4c-6 7 -5 20 4 25c30 -2 60 -3 100 -3c39 0 60 1 91 3c8 -4 7 -20 -1 -25l-24 -4c-22 -4 -37 -13 -58 -31c-77 -66 -146 -143 -233 -235c-17 -17 -19 -20 -11 -41c34 -90 72 -180 100 -252c13 -33 28 -48 50 -50l37 -3
c6 -4 6 -21 -2 -25c-39 2 -64 3 -108 3c-39 0 -78 -1 -112 -3c-8 4 -9 21 -2 25l22 3c36 5 49 10 35 48c-26 72 -52 145 -80 215c-57 -62 -149 -169 -203 -235c-10 -12 -12 -21 7 -24l40 -7c6 -5 5 -23 -3 -25c-35 2 -71 3 -111 3c-30 0 -71 -1 -96 -3c-8 4 -9 20 -3 25z
" />
    <glyph glyph-name="Y" unicode="Y" horiz-adv-x="564" 
d="M299 579l51 -235c5 -25 10 -25 30 -1l123 148c40 49 96 117 96 126c0 7 -5 13 -29 17l-25 4c-7 6 -6 20 2 25c39 -2 70 -3 104 -3c31 0 57 1 90 3c7 -4 7 -19 0 -25l-21 -4c-24 -5 -42 -10 -56 -23c-20 -18 -67 -67 -98 -103l-114 -134c-68 -79 -78 -91 -103 -170
l-19 -60c-32 -100 -32 -115 19 -119l36 -3c7 -5 4 -22 -3 -25c-56 2 -91 3 -134 3c-41 0 -74 -1 -119 -3c-8 5 -8 20 -1 25l36 3c48 4 56 18 90 119l20 59c17 50 21 68 7 128l-50 217c-14 62 -21 80 -57 86l-25 4c-6 7 -3 21 3 25c37 -2 63 -3 106 -3c44 0 75 1 107 3
c6 -5 7 -19 0 -25l-29 -4c-37 -5 -46 -15 -37 -55z" />
    <glyph glyph-name="Z" unicode="Z" horiz-adv-x="601" 
d="M120 145l439 457c18 18 12 27 -28 27h-153c-110 0 -137 -13 -197 -100c-10 -5 -21 0 -23 12c21 35 44 89 60 144c3 3 9 3 12 0c5 -24 18 -25 96 -25h267c68 0 98 2 107 3c7 -1 9 -6 8 -12c-31 -20 -143 -139 -214 -212l-229 -238c-13 -14 -135 -143 -135 -153
c0 -9 11 -17 90 -17h88c83 0 148 2 186 22c26 14 59 50 82 89c6 4 18 -1 20 -8c-11 -41 -47 -112 -69 -137c-26 1 -59 2 -93 2c-34 1 -70 1 -104 1h-234c-52 0 -84 -1 -110 -3c-5 2 -7 11 -4 16c24 18 95 88 138 132z" />
    <glyph glyph-name="bracketleft" unicode="[" horiz-adv-x="320" 
d="M40 -150l249 836h65c55 0 95 1 109 -3c4 -5 2 -16 -3 -20l-93 -11c-14 -2 -23 -4 -28 -10c-13 -15 -38 -82 -60 -156l-130 -436c-22 -74 -40 -142 -35 -156c2 -6 10 -8 23 -10l86 -11c2 -6 -1 -16 -5 -20c-17 -4 -58 -3 -113 -3h-65z" />
    <glyph glyph-name="backslash" unicode="\" horiz-adv-x="340" 
d="M117 676l191 -692h-57l-191 692h57z" />
    <glyph glyph-name="bracketright" unicode="]" horiz-adv-x="320" 
d="M365 686l-249 -836h-65c-55 0 -95 -1 -109 3c-4 5 -2 16 3 20l93 11c14 2 23 4 28 10c13 15 38 82 60 156l130 436c22 74 40 142 35 156c-2 6 -10 8 -23 10l-86 11c-2 6 1 16 5 20c17 4 58 3 113 3h65z" />
    <glyph glyph-name="asciicircum" unicode="^" horiz-adv-x="560" 
d="M518 244h-62l-138 311l-138 -311h-63l177 382h48z" />
    <glyph glyph-name="underscore" unicode="_" horiz-adv-x="500" 
d="M500 -75v-50h-500v50h500z" />
    <glyph glyph-name="quoteleft" unicode="&#x2018;" horiz-adv-x="208" 
d="M231 479c-46 0 -69 41 -69 77c0 70 83 121 147 139c6 -3 9 -12 6 -19c-32 -15 -89 -48 -89 -101c0 -18 12 -31 32 -38c8 -3 15 -10 15 -21c0 -21 -20 -37 -42 -37z" />
    <glyph glyph-name="a" unicode="a" horiz-adv-x="444" 
d="M374 367l28 64c17 8 43 -2 49 -15c-15 -37 -102 -258 -134 -349c-6 -17 -1 -23 7 -23c17 0 46 17 103 67c7 0 14 -5 14 -13c-42 -56 -113 -112 -168 -112c-23 0 -29 19 -29 27c0 7 2 16 10 39l33 90l-3 1c-71 -88 -173 -157 -220 -157c-28 0 -44 28 -44 56
c0 23 22 103 88 194c48 66 91 106 132 129c39 22 64 29 90 29c11 0 18 -3 24 -6c4 -2 15 -11 20 -21zM299 356c-24 0 -40 -11 -71 -39c-64 -57 -125 -188 -125 -259c0 -12 6 -19 15 -19c10 0 40 13 97 65c76 71 118 157 134 216c-7 19 -24 36 -50 36z" />
    <glyph glyph-name="b" unicode="b" horiz-adv-x="466" 
d="M299 576l-130 -342h2c70 106 137 174 212 174c59 0 86 -39 86 -90c0 -69 -48 -156 -129 -235c-82 -79 -156 -97 -191 -97c-54 0 -80 35 -80 92c0 47 22 119 51 197l116 308c21 56 24 73 10 83l-23 16c-2 4 -1 10 3 14c19 7 74 20 120 19l4 -6c-21 -56 -36 -94 -51 -133z
M368 374c-27 0 -76 -34 -138 -105c-63 -72 -94 -154 -94 -200c0 -39 18 -52 35 -52c15 0 53 19 96 67c62 70 136 197 136 254c0 27 -17 36 -35 36z" />
    <glyph glyph-name="c" unicode="c" horiz-adv-x="338" 
d="M302 408c50 0 74 -28 74 -59c0 -40 -39 -47 -49 -47s-18 6 -20 18c-3 25 -2 55 -35 55c-22 0 -53 -21 -84 -67c-33 -49 -64 -130 -67 -207c-2 -50 19 -65 43 -65c33 0 70 26 108 61c10 1 16 -7 13 -17c-39 -51 -102 -94 -165 -94c-39 0 -75 29 -75 106
c0 65 39 179 127 258c42 38 85 58 130 58z" />
    <glyph glyph-name="d" unicode="d" horiz-adv-x="474" 
d="M391 377l72 206c20 56 23 73 9 83l-23 16c-2 4 -1 10 3 14c19 7 75 20 118 19l4 -6c-18 -56 -33 -94 -63 -177c-99 -273 -146 -433 -155 -463c-4 -13 -3 -23 6 -23c16 0 79 51 110 90c9 0 14 -4 15 -13c-27 -55 -118 -137 -170 -137c-21 0 -32 16 -32 32c0 12 3 28 13 57
l35 99l-4 1c-69 -92 -144 -189 -241 -189c-39 0 -60 32 -60 72c0 71 54 190 133 261c68 61 131 89 179 89c16 0 40 -10 51 -31zM338 378c-23 0 -50 -19 -76 -43c-40 -37 -112 -132 -143 -195c-31 -64 -31 -82 -31 -95c0 -12 10 -21 19 -21c15 0 66 18 135 89
c78 80 107 140 122 193c12 42 -1 72 -26 72z" />
    <glyph glyph-name="e" unicode="e" horiz-adv-x="346" 
d="M313 408c40 0 63 -34 63 -60c0 -76 -99 -126 -243 -166c-7 -17 -14 -49 -14 -89c0 -34 21 -57 48 -57c36 0 61 20 105 58c9 0 15 -8 13 -17c-61 -75 -118 -91 -160 -91c-60 0 -81 56 -81 105c0 63 40 185 149 269c52 40 91 48 120 48zM293 377c-14 0 -40 -9 -76 -48
c-39 -42 -62 -88 -74 -117c66 20 97 39 134 74c31 29 39 59 39 68c0 10 -5 23 -23 23z" />
    <glyph glyph-name="f" unicode="f" horiz-adv-x="261" 
d="M354 357h-124c-6 -17 -14 -49 -26 -93c-30 -112 -57 -208 -89 -318c-26 -90 -59 -141 -79 -161c-15 -14 -61 -54 -120 -54c-54 0 -73 34 -73 49c0 20 12 37 23 45c8 6 17 3 23 -4c24 -25 54 -41 76 -41c20 0 41 7 64 84c46 158 81 330 129 493h-83c-10 9 -6 28 7 37h86
c26 90 53 168 112 238c50 59 102 83 160 83c37 0 77 -26 77 -66c0 -26 -27 -57 -43 -57c-9 0 -13 9 -14 16c-3 55 -31 73 -56 73c-22 0 -49 -20 -72 -54c-46 -67 -66 -138 -93 -233h125c7 -11 5 -26 -10 -37z" />
    <glyph glyph-name="g" unicode="g" horiz-adv-x="382" 
d="M287 408c10 0 21 -5 32 -9s20 -9 24 -9c9 0 29 1 48 6s38 8 45 8c14 0 21 -10 21 -25c0 -23 -12 -31 -22 -31s-24 3 -33 5c-9 3 -30 6 -37 6c-5 0 -10 -3 -9 -6c2 -8 7 -24 7 -38c0 -81 -58 -157 -127 -200c-11 -7 -49 -20 -71 -26c-11 -6 -22 -20 -22 -35
c0 -12 7 -30 33 -47c23 -16 62 -38 98 -60c58 -34 75 -65 75 -97c0 -56 -81 -119 -244 -119c-73 0 -158 28 -158 95c0 76 117 124 171 141c-26 17 -32 32 -32 46c0 18 31 59 45 77c-19 5 -73 23 -73 90c0 56 31 124 81 168c48 41 95 60 148 60zM151 -236c46 0 132 20 132 68
c0 17 -11 39 -43 61c-42 28 -77 48 -93 50c-25 3 -64 -16 -93 -37c-27 -20 -38 -42 -38 -65c0 -47 67 -77 135 -77zM275 379c-17 0 -36 -7 -67 -41c-39 -45 -90 -133 -90 -184c0 -21 14 -35 30 -35c14 0 38 6 66 39c56 66 91 155 91 187c0 21 -15 34 -30 34z" />
    <glyph glyph-name="h" unicode="h" horiz-adv-x="475" 
d="M333 715l4 -6c-20 -56 -52 -147 -72 -204l-103 -299l2 -2c70 99 122 139 158 165s68 39 95 39c44 0 60 -32 60 -67c0 -69 -42 -170 -78 -234c-19 -34 -39 -56 -65 -82c-33 -33 -60 -39 -73 -39c-33 0 -37 21 -37 29c0 17 14 32 27 32c4 0 9 -2 14 -6c8 -6 19 -13 26 -13
c15 0 25 15 40 50c27 65 72 203 72 258c0 19 -7 30 -21 30s-35 -12 -54 -27c-42 -32 -75 -65 -127 -133c-45 -60 -95 -157 -121 -208c-4 -8 -9 -12 -18 -12c-11 0 -37 3 -29 26l190 562c22 66 27 80 11 91l-21 14c-2 5 -2 9 3 13c16 7 82 21 117 23z" />
    <glyph glyph-name="i" unicode="i" horiz-adv-x="278" 
d="M52 22l127 303c5 11 5 19 -2 19s-33 -12 -83 -53c-9 1 -15 9 -13 17c55 63 132 100 165 100c7 0 12 -6 16 -10c6 -6 6 -15 -6 -44l-119 -284c-4 -10 -5 -22 3 -22c17 0 70 35 104 74c10 -1 15 -8 15 -17c-15 -29 -118 -119 -187 -119c-5 0 -11 3 -16 9c-6 7 -9 16 -4 27z
M264 614c23 0 34 -16 34 -38c0 -31 -22 -62 -52 -62c-26 0 -35 20 -35 37c0 22 14 63 53 63z" />
    <glyph glyph-name="j" unicode="j" horiz-adv-x="259" 
d="M-73 -269c-48 0 -67 32 -67 54c0 17 13 39 32 39c5 0 9 -4 12 -10c16 -27 39 -43 57 -43s33 11 50 50c36 86 80 233 108 323c30 100 54 170 56 189c1 9 -4 13 -8 13c-23 0 -73 -49 -99 -77c-8 1 -15 9 -16 17c21 36 110 122 174 122c13 0 25 -14 25 -29
c0 -24 -29 -115 -53 -193c-21 -67 -61 -205 -91 -280c-36 -88 -92 -175 -180 -175zM255 614c23 0 34 -16 34 -38c0 -31 -22 -62 -52 -62c-26 0 -35 20 -35 37c0 22 14 63 53 63z" />
    <glyph glyph-name="k" unicode="k" horiz-adv-x="448" 
d="M40 12l183 552c23 70 24 83 7 91l-18 9c-6 4 -7 10 -2 15c30 14 79 28 122 36l6 -5c-8 -28 -19 -62 -49 -147l-103 -296h2c29 39 62 73 102 103c28 20 65 38 108 38c58 0 72 -34 72 -55c0 -12 -4 -39 -41 -73c-47 -43 -96 -77 -160 -88c-7 -4 -5 -13 -3 -19
c8 -29 26 -73 37 -94c12 -22 22 -33 32 -33c13 0 32 13 60 47c9 0 13 -4 13 -12c-35 -75 -85 -95 -101 -95c-18 0 -30 12 -46 40c-12 22 -37 80 -46 107c-8 26 -19 37 -37 33c-20 -5 -25 -10 -37 -40l-52 -127c-4 -9 -8 -13 -17 -13c-11 0 -40 3 -32 26zM393 339
c0 12 -9 26 -32 26c-26 0 -63 -22 -97 -51c-37 -31 -79 -80 -92 -109c-4 -10 -3 -17 10 -15c21 2 77 19 147 65c42 28 64 63 64 84z" />
    <glyph glyph-name="l" unicode="l" horiz-adv-x="246" 
d="M281 537l-158 -472c-8 -23 -7 -33 4 -33c22 0 69 49 115 101c10 1 16 -4 16 -14c-26 -50 -89 -133 -172 -133c-30 0 -39 14 -39 30s5 34 22 85l159 473c24 70 14 80 -1 87l-18 8c-5 4 -5 13 0 16c18 7 80 26 126 30l5 -6c-13 -36 -23 -64 -59 -172z" />
    <glyph glyph-name="m" unicode="m" horiz-adv-x="729" 
d="M421 408c72 0 50 -79 29 -130l-38 -92l3 -2c96 153 172 224 238 224c38 0 56 -21 56 -54c0 -16 -7 -47 -16 -70c-18 -50 -90 -213 -93 -221c-4 -10 -5 -19 2 -19c17 0 65 33 94 68c14 2 16 -6 16 -14c-38 -64 -117 -112 -172 -112c-9 0 -24 13 -24 25c0 9 3 16 24 66
c21 49 61 146 81 197c7 18 21 53 21 73c0 12 -1 24 -16 24c-29 0 -77 -51 -131 -120c-51 -64 -96 -143 -157 -253c-5 -8 -9 -12 -18 -12c-11 0 -38 3 -29 26l99 262c4 11 44 97 8 97c-28 0 -84 -52 -139 -120c-52 -65 -92 -143 -150 -253c-5 -9 -9 -12 -18 -12
c-11 0 -38 3 -29 26c3 8 110 300 114 315c5 17 4 28 -7 28c-33 0 -68 -30 -88 -55c-10 0 -15 7 -14 15c25 48 78 93 154 93c23 0 33 -18 24 -41l-69 -181l3 -2c72 118 166 224 242 224z" />
    <glyph glyph-name="n" unicode="n" horiz-adv-x="501" 
d="M245 367l-68 -175l3 -2c71 108 170 218 245 218c39 0 56 -21 56 -54c0 -16 -8 -47 -16 -70c-18 -50 -90 -213 -93 -221c-4 -10 -5 -19 2 -19c17 0 65 33 94 68c14 2 16 -6 16 -14c-38 -64 -117 -112 -172 -112c-9 0 -24 13 -24 25c0 9 3 16 24 66c21 49 58 147 81 197
c8 18 21 53 21 73c0 12 -1 24 -16 24c-24 0 -83 -50 -138 -119c-53 -66 -94 -144 -153 -254c-5 -9 -9 -12 -18 -12c-11 0 -38 3 -29 26c5 13 111 301 116 315c5 13 5 23 -3 23c-23 0 -58 -21 -91 -50c-8 0 -13 7 -12 15c38 52 99 93 149 93c24 0 35 -18 26 -41z" />
    <glyph glyph-name="o" unicode="o" horiz-adv-x="406" 
d="M294 408c71 0 106 -53 102 -126c-3 -55 -32 -151 -106 -227c-62 -64 -116 -69 -143 -69c-64 0 -106 47 -100 133c4 62 41 159 109 224c52 50 97 65 138 65zM287 378c-20 0 -44 -9 -73 -48c-58 -78 -97 -197 -100 -250c-2 -35 12 -64 41 -64c22 0 47 9 79 52
c44 59 91 191 93 244c1 31 -5 66 -40 66z" />
    <glyph glyph-name="p" unicode="p" horiz-adv-x="448" 
d="M282 453l-21 -61c8 0 19 2 38 2c46 0 136 -19 136 -114c0 -92 -56 -173 -132 -237c-63 -53 -139 -57 -143 -57c-9 0 -17 2 -31 6c-8 -2 -13 -8 -16 -18l-41 -118c-27 -77 -25 -86 8 -91l41 -6c5 -7 5 -18 -4 -22c-76 0 -151 -4 -218 -6c-7 6 -7 16 0 22l22 4
c56 10 60 33 75 74l186 522c-36 -10 -59 -20 -101 -41c-8 1 -13 10 -10 19c35 25 75 42 124 55l30 81c13 11 53 1 57 -14zM253 362l-104 -292c-4 -11 -3 -21 1 -27c6 -10 21 -23 37 -23c13 0 69 14 112 81c48 74 59 144 59 188c0 50 -36 75 -79 75c-11 0 -19 -1 -26 -2z" />
    <glyph glyph-name="q" unicode="q" horiz-adv-x="465" 
d="M423 225l-120 -384c-17 -53 -15 -70 11 -72l33 -3c5 -6 4 -18 -4 -22c-37 -2 -153 -18 -216 -29c-8 4 -10 17 -4 23l46 14c43 13 49 31 64 78l115 357h-2c-46 -66 -151 -201 -249 -201c-43 0 -61 38 -61 75c0 34 8 89 50 159c39 66 96 125 153 156c43 23 74 32 114 32
c27 0 48 -25 54 -55c14 23 37 59 54 81c9 2 22 -2 23 -12c-10 -30 -25 -81 -61 -197zM332 378c-18 0 -45 -10 -78 -40c-65 -60 -146 -206 -146 -279c0 -16 8 -28 22 -28c15 0 47 17 84 48c41 35 96 93 126 144c27 48 28 77 28 98c0 20 -12 57 -36 57z" />
    <glyph glyph-name="r" unicode="r" horiz-adv-x="341" 
d="M189 408c50 0 32 -68 23 -95l-43 -126h5c30 56 79 136 105 169c23 30 48 52 73 52c35 0 40 -34 40 -49s-9 -44 -21 -60c-12 -15 -28 -16 -32 5c-5 26 -11 39 -21 39c-9 0 -20 -10 -35 -30c-61 -78 -117 -200 -170 -315c-4 -8 -9 -12 -17 -12c-11 0 -40 4 -33 26
c13 40 76 217 103 315c3 11 1 21 -8 21c-26 0 -53 -28 -71 -52c-10 -2 -17 4 -16 16c32 54 70 96 118 96z" />
    <glyph glyph-name="s" unicode="s" horiz-adv-x="262" 
d="M225 408c37 0 60 -32 60 -57c0 -16 -10 -27 -18 -31c-7 -2 -13 0 -19 8c-17 17 -30 32 -61 32c-29 0 -41 -25 -41 -40c0 -21 5 -42 34 -91c25 -42 40 -67 38 -111c-1 -27 -15 -64 -52 -96c-26 -23 -63 -36 -101 -36s-61 30 -61 53c0 10 4 21 15 33c8 7 19 7 27 0
c13 -15 43 -40 69 -40c24 0 48 25 48 57c0 17 -12 48 -37 88c-26 42 -35 76 -35 93c0 39 17 68 60 105c29 25 61 33 74 33z" />
    <glyph glyph-name="t" unicode="t" horiz-adv-x="284" 
d="M337 346h-109l-90 -263c-6 -19 -1 -25 7 -25c15 0 81 52 114 90c10 0 16 -6 14 -18c-56 -83 -150 -144 -192 -144c-14 0 -27 15 -27 27c0 13 4 27 14 57l94 276h-78c-2 10 1 24 11 28l80 14l56 99c10 6 30 4 38 -6l-29 -98h109c7 -10 1 -30 -12 -37z" />
    <glyph glyph-name="u" unicode="u" horiz-adv-x="496" 
d="M261 378l-112 -292c-9 -24 -4 -34 7 -34c15 0 55 32 107 83c91 90 143 206 176 267c21 4 45 -6 49 -18c-10 -27 -75 -191 -117 -310c-5 -13 -6 -25 4 -25c19 0 72 47 98 78c9 2 17 -2 18 -14c-26 -48 -122 -127 -175 -127c-16 0 -31 19 -25 35l68 183l-2 1
c-72 -91 -196 -219 -250 -219c-41 0 -46 41 -29 85l92 243c7 19 8 29 0 29c-19 0 -71 -44 -95 -69c-10 -2 -18 6 -17 15c26 40 126 119 173 119c13 0 36 -13 30 -30z" />
    <glyph glyph-name="v" unicode="v" horiz-adv-x="426" 
d="M107 142l69 179c7 19 6 29 -7 29c-19 0 -62 -36 -93 -70c-9 0 -16 9 -15 17c32 45 99 111 158 111c23 0 45 -29 31 -66l-86 -223c-5 -14 -10 -34 -10 -47c0 -17 8 -36 29 -36c23 0 64 23 109 74c58 66 86 144 86 191c0 24 -2 48 -9 71c2 21 18 36 37 36
c32 0 39 -37 39 -62c0 -73 -75 -215 -161 -287c-76 -63 -132 -73 -156 -73c-26 0 -46 30 -46 60c0 22 10 57 25 96z" />
    <glyph glyph-name="w" unicode="w" horiz-adv-x="657" 
d="M97 113l75 200c9 23 11 37 -3 37c-20 0 -62 -34 -92 -70c-9 0 -16 9 -15 17c31 45 96 111 158 111c23 0 44 -29 30 -66l-79 -209c-14 -36 -19 -57 -19 -71c0 -12 5 -24 22 -24c45 0 122 99 157 152c39 59 60 136 65 160c7 33 29 54 47 54c24 0 30 -19 30 -28
c0 -21 -11 -40 -35 -90c-36 -74 -54 -150 -54 -204c0 -30 13 -44 37 -44c30 0 83 37 124 96c39 56 62 117 62 167c0 24 -2 48 -9 71c2 21 18 36 37 36c32 0 39 -37 39 -62c0 -56 -32 -145 -109 -238c-72 -87 -151 -122 -191 -122c-21 0 -56 26 -56 57c0 27 9 59 17 85
c5 16 -2 15 -14 -1c-47 -64 -130 -141 -190 -141c-28 0 -51 30 -51 54c0 19 7 45 17 73z" />
    <glyph glyph-name="x" unicode="x" horiz-adv-x="420" 
d="M196 183l-42 108c-12 30 -18 47 -28 47c-17 0 -32 -31 -45 -51c-10 -5 -19 1 -18 14c18 55 65 107 90 107c17 0 30 -14 44 -52l43 -117c9 10 18 23 68 82c49 58 81 87 113 87c27 0 40 -24 40 -47c0 -35 -25 -58 -40 -58c-7 0 -11 6 -14 17c-4 14 -11 25 -21 25
c-18 0 -45 -28 -135 -137l37 -95c14 -35 24 -57 36 -57c14 0 31 30 47 59c7 8 22 4 21 -6c-14 -65 -49 -123 -87 -123c-27 0 -42 28 -59 70l-38 95c-16 -16 -46 -55 -73 -86c-57 -68 -89 -79 -108 -79c-24 0 -36 18 -36 36c0 19 11 45 29 60c11 10 17 11 22 11
c4 0 9 -7 10 -13c4 -18 10 -28 18 -28s22 12 40 31c29 31 54 62 86 100z" />
    <glyph glyph-name="y" unicode="y" horiz-adv-x="366" 
d="M157 408c51 0 59 -100 61 -170c1 -64 -1 -137 -15 -220h4c33 49 62 111 84 172c21 58 36 159 37 185c2 29 17 31 24 31s20 -4 28 -9c6 -4 9 -9 9 -20c1 -25 -26 -154 -116 -305c-49 -83 -85 -149 -165 -240c-74 -85 -124 -101 -156 -101s-52 21 -52 46s18 43 40 43
c10 0 20 -6 27 -16c3 -5 12 -18 28 -18c13 0 31 8 55 28c25 21 69 84 88 150c14 51 21 143 20 228c-2 111 -19 150 -38 150c-20 0 -37 -34 -58 -76c-11 -3 -17 4 -19 13c21 67 65 129 114 129z" />
    <glyph glyph-name="z" unicode="z" horiz-adv-x="406" 
d="M2 14c0 14 13 30 58 71c91 82 152 140 243 226c11 11 7 16 -12 22c-46 15 -86 20 -114 20c-37 0 -43 -26 -43 -36c0 -15 8 -30 16 -38c0 -11 -11 -28 -35 -28c-25 0 -37 19 -37 37c0 21 19 48 45 72c37 33 81 40 104 40c20 0 46 -5 64 -10c23 -7 49 -17 73 -17
c35 0 49 23 59 35c15 2 27 -8 25 -20c-55 -51 -201 -175 -326 -303l1 -3c47 2 86 -19 125 -37c22 -10 44 -19 63 -19c21 0 46 18 46 46c0 10 -3 25 -10 48c-8 26 12 30 20 30c28 0 43 -29 43 -51c0 -27 -21 -62 -52 -87c-34 -27 -56 -35 -80 -35c-27 0 -61 16 -82 25
c-38 16 -72 36 -97 36c-34 0 -48 -18 -58 -52c-34 -3 -39 17 -39 28z" />
    <glyph glyph-name="braceleft" unicode="{" horiz-adv-x="320" 
d="M310 476c-6 -35 -11 -69 -21 -103c-16 -55 -50 -90 -105 -103l-1 -4c32 -8 51 -30 51 -69c0 -32 -36 -107 -48 -137c-13 -31 -45 -97 -45 -132c0 -42 23 -61 61 -69c1 -6 0 -14 -5 -17c-56 0 -111 12 -111 79c0 41 23 92 46 150c23 57 45 105 45 144c0 31 -30 39 -68 42
c-3 8 -2 17 5 22c91 6 103 49 112 78c10 31 17 67 24 103c7 37 14 75 24 110c33 115 126 124 176 124c1 -6 -1 -14 -6 -18c-78 -13 -104 -59 -113 -98c-8 -33 -15 -68 -21 -102z" />
    <glyph glyph-name="bar" unicode="|" horiz-adv-x="260" 
d="M199 750v-1000h-59v1000h59z" />
    <glyph glyph-name="braceright" unicode="}" horiz-adv-x="320" 
d="M101 60c6 35 11 69 21 103c16 55 50 90 105 103l1 4c-32 8 -51 30 -51 69c0 32 36 107 48 137c13 31 45 97 45 132c0 42 -23 61 -61 69c-1 6 0 14 5 17c56 0 111 -12 111 -79c0 -41 -23 -92 -46 -150c-23 -57 -45 -105 -45 -144c0 -31 30 -39 68 -42c3 -8 2 -17 -5 -22
c-91 -6 -103 -49 -112 -78c-10 -31 -17 -67 -24 -103c-7 -37 -14 -75 -24 -110c-33 -115 -126 -126 -176 -124c-1 6 1 14 6 18c78 13 104 59 113 98c8 33 15 68 21 102z" />
    <glyph glyph-name="asciitilde" unicode="~" horiz-adv-x="560" 
d="M218 230h124c52 0 64 15 89 65c13 5 29 1 33 -14c-6 -15 -24 -62 -46 -82c-17 -15 -34 -18 -56 -18h-124c-52 0 -64 -16 -89 -66c-13 -5 -29 -1 -33 14c6 15 26 60 45 80c17 17 37 21 57 21z" />
    <glyph glyph-name="exclamdown" unicode="&#xa1;" horiz-adv-x="206" 
d="M-15 -266c-39 0 -47 13 -41 32c4 12 13 33 33 84l124 325c4 8 20 8 26 0l-69 -323c-11 -53 -16 -74 -20 -87c-8 -27 -19 -31 -53 -31zM164 394c29 0 44 -22 44 -45c0 -40 -28 -64 -57 -64c-28 0 -44 18 -44 47c0 36 28 62 57 62z" />
    <glyph glyph-name="cent" unicode="&#xa2;" horiz-adv-x="500" 
d="M275 154l100 341c-102 -6 -178 -103 -178 -202c0 -76 27 -122 78 -139zM413 492l-102 -347c41 -14 116 20 146 51c7 0 14 -8 12 -16c-28 -38 -92 -74 -170 -74l-30 -102c-9 -11 -32 -9 -39 0l31 105c-99 15 -141 88 -141 166c0 143 127 243 264 251l25 86c10 5 30 5 39 0
l-25 -85c46 -3 81 -15 99 -26c9 -10 8 -26 5 -38c-4 -13 -17 -34 -27 -34c-3 0 -5 0 -7 3c-20 30 -48 52 -80 60z" />
    <glyph glyph-name="sterling" unicode="&#xa3;" horiz-adv-x="500" 
d="M95 333h81c14 0 15 1 15 9c3 17 6 33 12 59c31 143 123 239 236 239c41 0 64 -16 73 -25c6 -7 8 -13 8 -18c1 -23 -25 -47 -35 -47c-4 0 -7 2 -13 7c-20 19 -48 41 -82 41c-45 0 -78 -46 -99 -140c-8 -36 -10 -64 -18 -110c-2 -13 2 -15 17 -15h147c7 -6 2 -27 -8 -32
h-146c-17 0 -21 -1 -24 -14c-22 -104 -79 -162 -142 -207v-2c16 2 37 5 80 -1c21 -3 51 -17 82 -31c29 -14 62 -26 90 -26c37 0 48 34 51 72c2 29 10 37 24 37c23 0 39 -23 33 -50c-11 -48 -95 -109 -172 -109c-35 0 -66 12 -110 39c-31 19 -64 37 -94 37
c-29 0 -39 -19 -43 -33c-3 -14 -32 -27 -43 -27c-13 0 -16 6 -14 18c4 20 32 43 63 65c57 40 94 110 118 218c3 11 2 14 -13 14h-82c-7 6 -2 26 8 32z" />
    <glyph glyph-name="fraction" unicode="&#x2044;" horiz-adv-x="100" 
d="M-182 -14c188 223 373 445 557 668c12 0 29 -9 29 -25c-188 -223 -374 -446 -559 -669c-18 0 -27 11 -27 26z" />
    <glyph glyph-name="fraction" unicode="&#x2215;" horiz-adv-x="100" 
d="M-182 -14c188 223 373 445 557 668c12 0 29 -9 29 -25c-188 -223 -374 -446 -559 -669c-18 0 -27 11 -27 26z" />
    <glyph glyph-name="yen" unicode="&#xa5;" horiz-adv-x="500" 
d="M450 211h-156l-29 -98c-20 -68 -20 -83 32 -90l29 -4c5 -7 4 -16 -3 -22c-41 2 -77 3 -118 3c-42 0 -83 -1 -118 -3c-6 6 -6 17 2 22l26 4c55 8 65 18 86 93l27 95h-153c-4 8 -1 26 9 32h152l24 81h-152c-4 8 -2 26 8 32h138l-54 164c-20 61 -27 75 -58 84l-21 6
c-5 7 -4 18 4 21c34 -2 71 -3 103 -3c40 0 73 1 97 3c8 -5 8 -16 1 -21l-43 -9c-30 -6 -30 -15 -20 -51l37 -128c9 -33 15 -48 20 -53c7 5 17 16 42 44l100 116c44 51 47 67 23 73l-30 8c-5 7 -4 16 4 21c38 -2 64 -3 98 -3c29 0 49 1 79 3c8 -6 9 -14 3 -21l-28 -7
c-43 -11 -83 -56 -115 -91l-144 -156h148c5 -9 3 -26 -8 -32h-161l-26 -81h154c5 -9 2 -26 -9 -32z" />
    <glyph glyph-name="florin" unicode="&#x192;" horiz-adv-x="500" 
d="M207 427h92c18 55 35 100 57 138c34 59 105 132 183 132c44 0 66 -29 64 -51c-3 -25 -28 -42 -37 -42c-12 0 -16 6 -23 18c-13 23 -23 33 -44 33c-49 0 -90 -108 -124 -228h115c8 -6 7 -26 -4 -33h-123c-17 -53 -32 -104 -47 -157c-59 -210 -106 -282 -151 -319
c-26 -21 -55 -40 -98 -40s-61 30 -57 64c3 21 15 32 21 32c8 0 18 -8 23 -15c17 -17 43 -35 61 -35c19 0 43 21 78 143c20 69 58 197 95 327h-85c-6 5 -3 27 4 33z" />
    <glyph glyph-name="section" unicode="&#xa7;" horiz-adv-x="460" 
d="M437 697c37 0 71 -29 71 -65c0 -37 -19 -39 -27 -39c-5 0 -10 7 -14 15c-8 14 -26 42 -64 42c-55 0 -91 -35 -91 -85c0 -39 16 -103 46 -176c40 -99 63 -148 63 -205c0 -81 -51 -138 -121 -202c-90 -83 -154 -115 -206 -115c-47 0 -87 32 -87 78c0 20 21 23 36 11
c23 -18 57 -38 94 -38c47 0 90 27 90 84c0 40 -10 86 -52 187c-38 89 -53 142 -53 182c0 91 84 198 179 264c78 54 122 62 136 62zM278 5l2 -2c29 26 77 87 77 157c0 8 -3 64 -39 153c-38 94 -57 148 -59 166c-2 28 0 65 7 89l-1 2c-29 -26 -83 -93 -83 -155
c0 -57 12 -101 46 -181c29 -69 52 -128 53 -160c1 -22 0 -46 -3 -69z" />
    <glyph glyph-name="currency" unicode="&#xa4;" horiz-adv-x="500" 
d="M296 481c-79 0 -148 -75 -148 -168c0 -96 71 -168 148 -168s148 73 148 168c0 93 -71 168 -148 168zM296 527c45 0 85 -14 119 -40l39 51c22 -7 44 -27 46 -48l-42 -45c27 -35 43 -82 43 -132s-16 -97 -43 -132l42 -45c-2 -21 -24 -41 -46 -48l-39 51
c-34 -26 -74 -40 -119 -40c-44 0 -84 14 -119 40l-38 -51c-22 7 -44 27 -47 48l43 45c-28 35 -44 82 -44 132s16 97 44 132l-43 45c3 21 25 41 47 48l38 -51c35 26 75 40 119 40z" />
    <glyph glyph-name="quotesingle" unicode="'" horiz-adv-x="208" 
d="M271 686c41 0 39 -14 19 -63l-66 -161c-3 -8 -19 -8 -23 0l18 161c6 55 8 63 52 63z" />
    <glyph glyph-name="quotedblleft" unicode="&#x201c;" horiz-adv-x="380" 
d="M237 479c-46 0 -69 41 -69 77c0 70 83 121 147 139c6 -3 9 -12 6 -19c-32 -15 -89 -48 -89 -101c0 -18 12 -31 32 -38c8 -3 15 -10 15 -21c0 -21 -20 -37 -42 -37zM399 479c-46 0 -69 41 -69 77c0 70 83 121 147 139c6 -3 9 -12 6 -19c-32 -15 -89 -48 -89 -101
c0 -18 12 -31 32 -38c8 -3 15 -10 15 -21c0 -21 -20 -37 -42 -37z" />
    <glyph glyph-name="guillemotleft" unicode="&#xab;" horiz-adv-x="400" 
d="M146 194l40 -145c-3 -8 -13 -12 -19 -10c-28 50 -57 101 -88 151c-8 13 -7 18 6 31c51 51 103 101 152 150c7 1 13 -5 14 -13l-100 -140c-6 -8 -7 -17 -5 -24zM286 194l40 -145c-3 -8 -13 -12 -19 -10c-28 50 -57 101 -88 151c-8 13 -7 18 6 31c51 51 103 101 152 150
c7 1 13 -5 14 -13l-100 -140c-6 -8 -7 -17 -5 -24z" />
    <glyph glyph-name="guilsinglleft" unicode="&#x2039;" horiz-adv-x="260" 
d="M146 194l40 -145c-3 -8 -13 -12 -19 -10c-28 50 -57 101 -88 151c-8 13 -7 18 6 31c51 51 103 101 152 150c7 1 13 -5 14 -13l-100 -140c-6 -8 -7 -17 -5 -24z" />
    <glyph glyph-name="guilsinglright" unicode="&#x203a;" horiz-adv-x="260" 
d="M51 52l100 140c6 8 7 17 5 24l-40 145c3 8 13 12 19 10c28 -50 57 -101 88 -151c8 -13 7 -18 -6 -31c-51 -51 -103 -101 -152 -150c-7 -1 -13 5 -14 13z" />
    <glyph glyph-name="endash" unicode="&#x2013;" horiz-adv-x="500" 
d="M16 230h516l-16 -49h-516z" />
    <glyph glyph-name="dagger" unicode="&#x2020;" horiz-adv-x="467" 
d="M188 -127h-34l40 137c34 116 40 185 40 252c42 38 60 84 87 174c-61 0 -100 -29 -130 -29c-27 0 -46 18 -40 45c6 24 25 40 54 40c35 0 62 -29 123 -29c33 111 11 135 19 167c5 23 26 46 56 46c34 0 41 -28 35 -50c-11 -37 -45 -52 -78 -163c61 0 99 29 133 29
c26 0 42 -18 36 -44c-6 -25 -27 -41 -53 -41c-36 0 -62 29 -123 29c-27 -90 -37 -136 -17 -174c-40 -67 -74 -136 -108 -252z" />
    <glyph glyph-name="daggerdbl" unicode="&#x2021;" horiz-adv-x="470" 
d="M174 -124c-36 0 -42 28 -36 50c9 34 47 61 79 172c-28 0 -54 -7 -77 -16c-23 -8 -40 -14 -57 -14c-23 0 -40 16 -35 43c4 23 24 41 53 41c35 0 62 -30 123 -30c27 92 37 137 13 165c41 31 57 76 81 156c-28 0 -54 -7 -77 -16c-23 -8 -40 -14 -57 -14c-23 0 -40 16 -35 43
c4 23 24 41 53 41c35 0 62 -30 123 -30c32 110 10 133 20 167c5 19 23 42 54 42c33 0 40 -27 34 -51c-7 -25 -44 -48 -76 -158c61 0 102 30 135 30c26 0 41 -19 35 -46c-6 -25 -26 -38 -49 -38c-20 0 -39 9 -56 15c-20 8 -44 15 -72 15c-24 -80 -32 -125 -11 -156
c-38 -28 -56 -73 -83 -165c61 0 102 30 135 30c26 0 41 -19 35 -46c-5 -25 -26 -38 -49 -38c-20 0 -39 9 -56 15c-20 8 -44 15 -72 15c-32 -111 -13 -145 -21 -180c-4 -19 -23 -42 -54 -42z" />
    <glyph glyph-name="periodcentered" unicode="&#xb7;" horiz-adv-x="250" 
d="M152 261c29 0 44 -22 44 -45c0 -40 -28 -64 -57 -64c-28 0 -44 18 -44 47c0 36 28 62 57 62z" />
    <glyph glyph-name="periodcentered" unicode="&#x2219;" horiz-adv-x="250" 
d="M152 261c29 0 44 -22 44 -45c0 -40 -28 -64 -57 -64c-28 0 -44 18 -44 47c0 36 28 62 57 62z" />
    <glyph glyph-name="paragraph" unicode="&#xb6;" horiz-adv-x="500" 
d="M460 445l-139 -468c-24 -81 -59 -192 -161 -192c-48 0 -83 25 -83 66c0 32 23 49 37 54c21 0 43 -15 42 -30c-7 -6 -16 -18 -16 -32c0 -18 13 -28 29 -28c25 0 62 16 100 143l44 145c8 28 2 36 -14 37c-62 5 -176 54 -176 167c0 68 34 132 89 170c58 40 141 63 242 63
c63 0 108 -2 122 -5c6 -4 5 -19 -2 -22l-42 -7c-55 -9 -57 -10 -72 -61z" />
    <glyph glyph-name="bullet" unicode="&#x2022;" horiz-adv-x="390" 
d="M249 475c77 0 139 -61 139 -139s-62 -138 -139 -138s-139 60 -139 138s62 139 139 139z" />
    <glyph glyph-name="quotesinglbase" unicode="&#x201a;" horiz-adv-x="208" 
d="M69 114c46 0 69 -41 69 -77c0 -70 -83 -121 -147 -139c-6 3 -9 12 -6 19c32 15 89 48 89 101c0 18 -12 31 -32 38c-8 3 -15 10 -15 21c0 21 20 37 42 37z" />
    <glyph glyph-name="quotedblbase" unicode="&#x201e;" horiz-adv-x="380" 
d="M72 114c46 0 69 -41 69 -77c0 -70 -83 -121 -147 -139c-6 3 -9 12 -6 19c32 15 89 48 89 101c0 18 -12 31 -32 38c-8 3 -15 10 -15 21c0 21 20 37 42 37zM234 114c46 0 69 -41 69 -77c0 -70 -83 -121 -147 -139c-6 3 -9 12 -6 19c32 15 89 48 89 101c0 18 -12 31 -32 38
c-8 3 -15 10 -15 21c0 21 20 37 42 37z" />
    <glyph glyph-name="quotedblright" unicode="&#x201d;" horiz-adv-x="380" 
d="M257 686c46 0 69 -41 69 -77c0 -70 -83 -121 -147 -139c-6 3 -9 12 -6 19c32 15 89 48 89 101c0 18 -12 31 -32 38c-8 3 -15 10 -15 21c0 21 20 37 42 37zM419 686c46 0 69 -41 69 -77c0 -70 -83 -121 -147 -139c-6 3 -9 12 -6 19c32 15 89 48 89 101c0 18 -12 31 -32 38
c-8 3 -15 10 -15 21c0 21 20 37 42 37z" />
    <glyph glyph-name="guillemotright" unicode="&#xbb;" horiz-adv-x="400" 
d="M51 52l100 140c6 8 7 17 5 24l-40 145c3 8 13 12 19 10c28 -50 57 -101 88 -151c8 -13 7 -18 -6 -31c-51 -51 -103 -101 -152 -150c-7 -1 -13 5 -14 13zM191 52l100 140c6 8 7 17 5 24l-40 145c3 8 13 12 19 10c28 -50 57 -101 88 -151c8 -13 7 -18 -6 -31
c-51 -51 -103 -101 -152 -150c-7 -1 -13 5 -14 13z" />
    <glyph glyph-name="ellipsis" unicode="&#x2026;" horiz-adv-x="1000" 
d="M473 95c29 0 44 -22 44 -45c0 -40 -28 -64 -57 -64c-28 0 -44 18 -44 47c0 36 28 62 57 62zM806 95c29 0 44 -22 44 -45c0 -40 -28 -64 -57 -64c-28 0 -44 18 -44 47c0 36 28 62 57 62zM140 95c29 0 44 -22 44 -45c0 -40 -28 -64 -57 -64c-28 0 -44 18 -44 47
c0 36 28 62 57 62z" />
    <glyph glyph-name="perthousand" unicode="&#x2030;" horiz-adv-x="1176" 
d="M331 640c70 0 107 -51 107 -128c0 -114 -88 -241 -188 -241c-77 0 -114 51 -114 126c0 117 83 243 195 243zM201 371c0 -47 16 -70 46 -70c83 0 127 180 127 243c0 40 -15 66 -45 66c-81 0 -128 -176 -128 -239zM706 356c70 0 107 -51 107 -128
c0 -114 -88 -241 -188 -241c-77 0 -114 51 -114 126c0 117 83 243 195 243zM576 87c0 -47 16 -70 46 -70c83 0 127 180 127 243c0 40 -15 66 -45 66c-81 0 -128 -176 -128 -239zM1043 357c70 0 107 -51 107 -128c0 -114 -88 -241 -188 -241c-77 0 -114 51 -114 126
c0 117 83 243 195 243zM913 88c0 -47 16 -70 46 -70c83 0 127 180 127 243c0 40 -15 66 -45 66c-81 0 -128 -176 -128 -239zM174 -14c188 223 373 445 557 668c12 0 29 -9 29 -25c-188 -223 -374 -446 -559 -669c-18 0 -27 11 -27 26z" />
    <glyph glyph-name="questiondown" unicode="&#xbf;" horiz-adv-x="300" 
d="M153 -10l-62 -35c-50 -28 -81 -53 -81 -91c0 -44 35 -71 70 -71c21 0 35 6 45 11s16 11 22 11c9 0 19 -10 19 -28c0 -27 -30 -53 -72 -53c-58 0 -117 69 -117 142c0 66 38 110 103 146l67 37c32 18 46 36 46 65c0 17 -4 34 -9 48c3 6 11 8 16 5c18 -23 42 -65 31 -106
c-9 -33 -38 -59 -78 -81zM230 394c29 0 44 -22 44 -45c0 -40 -28 -64 -57 -64c-28 0 -44 18 -44 47c0 36 28 62 57 62z" />
    <glyph glyph-name="grave" unicode="`" 
d="M234 618l46 -142c0 -8 -12 -12 -18 -11l-81 111c-9 13 -14 22 -14 28c0 7 5 15 17 23c14 10 24 13 31 13c10 0 15 -10 19 -22z" />
    <glyph glyph-name="acute" unicode="&#xb4;" 
d="M431 569l-126 -111c-7 0 -16 6 -16 13l94 143c7 11 15 21 24 20c7 0 17 -4 28 -15c9 -9 14 -19 13 -26c0 -6 -6 -15 -17 -24z" />
    <glyph glyph-name="circumflex" unicode="&#x2c6;" 
d="M390 631l38 -162c-3 -7 -12 -12 -21 -10l-42 92c-5 11 -7 13 -9 13c-3 0 -8 -3 -16 -11l-93 -96c-8 -1 -17 5 -17 14l122 164c8 10 15 15 21 15c7 0 14 -7 17 -19z" />
    <glyph glyph-name="tilde" unicode="&#x2dc;" 
d="M275 583h50c38 0 48 4 70 35c5 3 13 2 16 -4c-6 -24 -22 -54 -35 -67c-13 -12 -25 -15 -45 -15h-49c-41 0 -58 -15 -76 -48c-5 -3 -12 -2 -15 4c3 15 19 60 34 74c14 16 28 21 50 21z" />
    <glyph glyph-name="macron" unicode="&#xaf;" 
d="M409 514h-185c-10 12 -10 34 0 46h185c9 -12 9 -34 0 -46z" />
    <glyph glyph-name="macron" unicode="&#x2c9;" 
d="M409 514h-185c-10 12 -10 34 0 46h185c9 -12 9 -34 0 -46z" />
    <glyph glyph-name="breve" unicode="&#x2d8;" 
d="M320 495c-66 0 -97 37 -81 114c5 4 17 4 20 0c2 -43 26 -65 70 -65s74 22 92 65c5 4 17 4 20 0c-12 -77 -55 -114 -121 -114z" />
    <glyph glyph-name="dotaccent" unicode="&#x2d9;" 
d="M304 507c-24 0 -39 16 -39 40c0 33 25 56 51 56c25 0 38 -20 38 -40c0 -36 -25 -56 -50 -56z" />
    <glyph glyph-name="dieresis" unicode="&#xa8;" 
d="M223 513c-23 0 -37 15 -37 38c0 32 23 54 48 54c24 0 37 -19 37 -38c0 -35 -24 -54 -48 -54zM378 513c-23 0 -37 15 -37 38c0 32 24 54 48 54s37 -19 37 -38c0 -35 -24 -54 -48 -54z" />
    <glyph glyph-name="ring" unicode="&#x2da;" 
d="M308 638c50 0 85 -39 85 -81c0 -43 -35 -81 -85 -81s-85 38 -85 81c0 42 35 81 85 81zM263 557c0 -31 20 -53 45 -53c26 0 45 22 45 53c0 30 -19 52 -45 52c-25 0 -45 -22 -45 -52z" />
    <glyph glyph-name="cedilla" unicode="&#xb8;" 
d="M168 0h33l-36 -49c-8 -10 -5 -18 5 -26c22 -18 37 -38 37 -65c0 -43 -54 -77 -102 -77c-34 0 -50 14 -50 32c0 10 9 24 25 24c9 0 17 -7 24 -14c8 -8 15 -15 21 -15c11 0 28 7 28 31s-22 48 -53 62v4z" />
    <glyph glyph-name="hungarumlaut" unicode="&#x2dd;" 
d="M355 581l-91 -122c-7 0 -13 4 -14 11l52 141c7 20 12 31 24 31c9 0 17 -3 25 -9c11 -8 17 -15 17 -23c0 -9 -5 -18 -13 -29zM485 581l-91 -122c-7 0 -13 4 -14 11l52 141c7 20 12 31 24 31c9 0 17 -3 25 -9c11 -8 17 -15 17 -23c0 -9 -5 -18 -13 -29z" />
    <glyph glyph-name="ogonek" unicode="&#x2db;" 
d="M205 20h36c-39 -27 -118 -92 -118 -145c0 -23 15 -37 41 -37c23 0 38 5 51 14c7 -2 8 -7 7 -15c-28 -32 -67 -46 -97 -46c-44 0 -63 30 -63 63c0 67 94 136 143 166z" />
    <glyph glyph-name="caron" unicode="&#x2c7;" 
d="M304 476l-35 162c2 7 11 12 20 10l43 -87c6 -12 7 -15 10 -15c4 0 9 4 16 12l91 92c7 2 17 -5 17 -14l-125 -164c-8 -10 -17 -15 -23 -15c-7 0 -11 7 -14 19z" />
    <glyph glyph-name="emdash" unicode="&#x2014;" horiz-adv-x="1000" 
d="M16 230h1016l-16 -49h-1016z" />
    <glyph glyph-name="AE" unicode="&#xc6;" horiz-adv-x="842" 
d="M537 660h251c64 0 111 0 141 3c-7 -17 -31 -97 -41 -133c-4 -8 -22 -7 -25 1c6 52 9 77 -35 89c-23 6 -54 9 -106 9h-59c-26 0 -29 -1 -39 -34l-63 -205c-9 -28 -10 -29 18 -29h50c95 0 115 6 138 49l16 30c4 7 23 6 25 -2c-7 -17 -23 -60 -34 -97
c-12 -38 -21 -75 -26 -97c-6 -8 -21 -7 -25 1v28c0 52 -26 53 -103 53h-50c-28 0 -30 -1 -39 -29l-42 -135c-17 -56 -27 -90 -17 -110c7 -14 26 -21 111 -21c110 0 150 6 213 104c8 5 19 3 23 -6c-9 -29 -43 -105 -69 -132c-33 1 -71 1 -111 2c-39 0 -80 1 -118 1h-118
c-41 0 -75 -1 -119 -3c-8 5 -8 19 -1 25l35 6c48 8 58 14 90 116l49 158c7 22 2 24 -27 24h-103c-23 0 -29 -3 -52 -31c-80 -97 -134 -164 -182 -226c-18 -23 -21 -35 0 -38l43 -7c6 -7 5 -23 -2 -27c-33 2 -76 3 -108 3c-33 0 -61 -1 -94 -3c-7 7 -7 21 0 27l22 3
c36 5 58 20 110 80c141 162 297 346 398 472c32 40 31 45 2 50l-57 9c-7 4 -5 21 5 25c41 -2 77 -3 125 -3zM358 361h78c34 0 42 3 50 30l61 200c3 10 9 31 7 38h-2c-8 -5 -20 -22 -29 -32c-57 -69 -114 -138 -178 -218c-13 -16 -15 -18 13 -18z" />
    <glyph glyph-name="ordfeminine" unicode="&#xaa;" horiz-adv-x="364" 
d="M348 511l22 46c13 5 37 -2 43 -11c-12 -26 -80 -183 -104 -248c-4 -12 0 -17 6 -17c13 0 37 12 78 48c7 0 12 -4 12 -12c-29 -37 -86 -77 -135 -77c-17 0 -22 14 -22 19s2 12 8 28l22 57l-1 -1l-2 2c-51 -56 -127 -105 -166 -105c-27 0 -40 20 -40 40c0 16 17 73 68 138
c37 47 70 75 102 92c30 15 49 20 75 20c15 0 26 -5 34 -19zM291 503c-19 0 -32 -7 -55 -27c-50 -41 -96 -134 -96 -183c0 -8 5 -13 11 -13c8 0 29 9 71 46c44 38 93 110 105 152c-5 13 -16 25 -36 25z" />
    <glyph glyph-name="Lslash" unicode="&#x141;" horiz-adv-x="554" 
d="M448 441l-170 -102l-56 -177c-35 -110 -41 -131 81 -131c115 0 158 5 219 104c10 3 20 1 22 -6c-11 -34 -46 -105 -64 -132c-37 1 -77 2 -117 2c-40 1 -79 1 -114 1h-116c-41 0 -74 -1 -106 -3c-8 5 -8 19 -1 25l24 3c48 6 58 17 90 119l44 139l-114 -68
c-13 1 -20 14 -18 29l147 88l58 184c30 94 32 109 -23 118l-24 4c-6 8 -5 21 6 25c39 -1 73 -3 114 -3c43 0 74 2 126 3c7 -4 9 -20 0 -25l-31 -4c-57 -7 -63 -19 -93 -118l-39 -128l138 83c15 -3 19 -17 17 -30z" />
    <glyph glyph-name="Oslash" unicode="&#xd8;" horiz-adv-x="730" 
d="M643 554l-432 -468c23 -42 66 -71 137 -71c52 0 111 13 173 79c90 98 133 236 138 366c1 36 -4 68 -16 94zM196 124l429 463c-28 37 -70 58 -123 58c-64 0 -115 -30 -150 -60c-72 -61 -160 -204 -166 -380c-1 -28 2 -56 10 -81zM753 674l-68 -75c39 -44 62 -110 58 -197
c-5 -109 -55 -232 -135 -309c-61 -58 -145 -109 -262 -109c-74 0 -131 25 -170 64l-85 -92c-13 1 -25 14 -25 28l86 93c-36 49 -52 109 -50 168c3 123 54 250 160 340c79 67 163 91 244 91c57 0 110 -17 153 -52l68 76c12 0 25 -15 26 -26z" />
    <glyph glyph-name="OE" unicode="&#x152;" horiz-adv-x="979" 
d="M777 660h148c64 0 111 0 141 3c-7 -17 -31 -97 -41 -133c-4 -8 -22 -7 -25 1c6 52 9 77 -35 89c-23 6 -54 9 -106 9h-60c-25 0 -29 -4 -38 -34l-64 -205c-9 -28 -10 -29 18 -29h50c95 0 115 6 138 49l16 30c4 7 23 6 25 -2c-7 -17 -23 -60 -34 -97
c-12 -38 -21 -75 -26 -97c-6 -8 -21 -7 -25 1v28c0 52 -26 53 -103 53h-50c-28 0 -30 -1 -39 -29l-41 -135c-17 -56 -27 -90 -17 -110c7 -14 26 -21 111 -21c110 0 150 6 213 104c8 5 19 3 23 -6c-9 -29 -43 -105 -69 -132c-33 1 -71 1 -111 2c-39 0 -80 1 -118 1h-61
c-35 0 -68 -4 -99 -5c-32 -2 -62 -2 -94 -2c-198 0 -308 112 -299 286c6 111 70 229 177 301c72 48 163 84 304 84c74 0 132 -4 191 -4zM565 634c-248 0 -363 -205 -372 -364c-9 -162 88 -246 223 -246c47 0 92 4 116 81l145 459c13 41 10 51 -13 58c-29 8 -58 12 -99 12z
" />
    <glyph glyph-name="ordmasculine" unicode="&#xba;" horiz-adv-x="328" 
d="M284 540c61 0 88 -38 85 -90c-2 -39 -25 -107 -82 -161c-48 -46 -92 -49 -114 -49c-50 0 -89 33 -85 94c3 49 33 115 80 157c41 36 84 49 116 49zM145 307c-1 -22 12 -41 34 -41c14 0 38 5 63 39c43 57 66 129 68 164c1 29 -11 45 -34 45c-17 0 -35 -7 -61 -39
c-37 -46 -69 -131 -70 -168z" />
    <glyph glyph-name="ae" unicode="&#xe6;" horiz-adv-x="478" 
d="M409 408c54 0 74 -36 74 -63c0 -64 -75 -125 -190 -214c0 -72 34 -93 62 -93c34 0 57 31 78 57c9 3 18 -2 20 -12c-47 -83 -113 -97 -134 -97c-58 0 -79 53 -87 86c-56 -52 -123 -86 -157 -86c-24 0 -55 14 -55 53c0 54 52 137 89 179c34 38 80 81 170 136
c36 22 77 54 130 54zM121 40c23 0 59 17 105 63c-3 69 6 131 44 210l-2 2c-96 -56 -169 -188 -169 -247c0 -18 10 -28 22 -28zM386 378c-57 0 -95 -123 -95 -215c80 73 127 147 127 183c0 20 -11 32 -32 32z" />
    <glyph glyph-name="dotlessi" unicode="&#x131;" horiz-adv-x="278" 
d="M52 22l127 303c5 11 5 19 -2 19s-33 -12 -83 -53c-9 1 -15 9 -13 17c55 63 132 100 165 100c7 0 12 -6 16 -10c6 -5 6 -15 -6 -44l-119 -284c-4 -10 -5 -22 3 -22c17 0 70 35 104 74c10 -1 15 -8 15 -17c-15 -29 -118 -119 -187 -119c-5 0 -11 3 -16 9c-6 7 -9 16 -4 27z
" />
    <glyph glyph-name="lslash" unicode="&#x142;" horiz-adv-x="259" 
d="M359 405l-150 -102l-80 -238c-8 -23 -7 -33 4 -33c22 0 69 49 115 101c10 1 16 -4 16 -14c-26 -50 -89 -133 -172 -133c-30 0 -39 14 -39 30s5 34 22 85l48 141l-2 2l-81 -57c-11 0 -21 18 -18 31l120 82l93 274c24 70 14 80 -1 87l-18 8c-5 4 -5 13 0 16
c18 7 80 26 126 30l5 -6c-13 -36 -22 -64 -59 -172l-60 -176l3 -2l110 77c11 -2 22 -21 18 -31z" />
    <glyph glyph-name="oslash" unicode="&#xf8;" horiz-adv-x="406" 
d="M113 54l201 315c-5 6 -14 9 -27 9c-21 0 -47 -10 -78 -49c-61 -76 -102 -196 -102 -249c0 -7 0 -14 4 -24zM328 338l-201 -311c8 -7 18 -11 29 -11c25 0 52 9 85 52c45 59 94 191 94 244c0 7 -1 16 -3 26h-4zM392 435l-32 -50c28 -22 38 -59 36 -103
c-3 -55 -31 -151 -105 -227c-62 -64 -116 -69 -143 -69c-15 0 -30 3 -43 8l-30 -47c-10 -4 -23 4 -25 15l31 48c-24 21 -38 58 -34 109c4 62 42 158 109 224c52 50 97 65 139 65c16 0 29 -2 40 -7l31 47c10 2 23 -3 26 -13z" />
    <glyph glyph-name="oe" unicode="&#x153;" horiz-adv-x="578" 
d="M282 378c-21 0 -43 -9 -71 -48c-56 -78 -94 -197 -96 -250c-1 -35 12 -64 41 -64c21 0 46 9 77 52c43 59 87 189 89 244c1 31 -6 66 -40 66zM608 348c0 -76 -99 -126 -247 -166c-8 -16 -18 -49 -18 -86c0 -36 22 -60 56 -60c36 0 61 20 105 58c9 0 15 -8 13 -17
c-61 -75 -118 -91 -160 -91c-41 0 -66 28 -75 75c-66 -71 -113 -75 -136 -75c-60 0 -99 49 -99 123c0 72 38 169 105 234c51 50 94 65 136 65c51 0 82 -35 90 -90c43 46 110 90 169 90c38 0 61 -34 61 -60zM526 377c-14 0 -37 -9 -75 -48c-43 -44 -68 -92 -80 -118
c70 21 101 40 138 75c31 29 39 59 39 68c0 10 -5 23 -22 23z" />
    <glyph glyph-name="germandbls" unicode="&#xdf;" horiz-adv-x="465" 
d="M514 715c57 0 108 -41 108 -91c0 -74 -125 -125 -182 -160c-53 -32 -71 -72 -71 -104s15 -72 31 -112s31 -80 31 -113c0 -47 -14 -74 -46 -104c-25 -25 -67 -45 -85 -45c-41 0 -63 35 -63 55c0 8 3 22 8 29c6 8 14 8 20 2c17 -17 37 -35 63 -35c19 0 51 16 51 55
c0 19 -18 58 -37 101s-38 92 -38 131c0 74 49 117 163 193c59 39 79 84 79 100c0 41 -33 61 -79 61c-108 0 -198 -147 -245 -281c-69 -196 -92 -431 -136 -541c-26 -64 -86 -125 -158 -125c-52 0 -69 36 -69 54s10 32 24 40c11 6 18 -4 25 -14c12 -19 38 -39 62 -39
c13 0 29 12 38 27c15 25 35 107 55 223c28 159 60 293 93 386c29 81 83 185 190 256c43 29 101 51 168 51z" />
    <glyph glyph-name="onesuperior" unicode="&#xb9;" 
d="M214 400l58 195c7 24 9 33 8 38c1 9 -7 12 -21 14l-30 5c-5 6 -2 14 2 17c57 9 105 25 126 35c5 1 10 -1 11 -6c-7 -20 -14 -38 -24 -71l-67 -228c-15 -51 -15 -61 20 -65l19 -2c5 -4 4 -16 -3 -19c-26 1 -54 2 -95 2c-37 0 -65 -1 -83 -2c-4 3 -4 16 0 19l18 2
c41 5 46 15 61 66z" />
    <glyph glyph-name="logicalnot" unicode="&#xac;" horiz-adv-x="560" 
d="M464 50v206h-375v49h434v-255h-59z" />
    <glyph glyph-name="mu" unicode="&#xb5;" horiz-adv-x="496" 
d="M261 378l-112 -292c-9 -24 -4 -34 7 -34c15 0 55 32 106 83c90 90 144 206 177 267c21 4 45 -6 49 -18c-10 -27 -75 -191 -117 -310c-5 -13 -6 -25 4 -25c19 0 72 47 98 78c9 2 17 -2 18 -14c-26 -48 -122 -127 -175 -127c-16 0 -31 19 -25 35l63 171l-2 1
c-67 -81 -191 -207 -232 -207c-7 0 -11 1 -16 5c-8 1 -13 -8 -18 -22l-15 -42c-10 -27 -14 -61 -14 -91s-4 -55 -7 -64c-8 -23 -39 -41 -72 -41c-17 0 -22 12 -15 31l207 552c7 19 8 29 0 29c-19 0 -71 -44 -95 -69c-10 -2 -18 6 -17 15c26 40 126 119 173 119
c13 0 36 -13 30 -30z" />
    <glyph glyph-name="mu" unicode="&#x3bc;" horiz-adv-x="496" 
d="M261 378l-112 -292c-9 -24 -4 -34 7 -34c15 0 55 32 106 83c90 90 144 206 177 267c21 4 45 -6 49 -18c-10 -27 -75 -191 -117 -310c-5 -13 -6 -25 4 -25c19 0 72 47 98 78c9 2 17 -2 18 -14c-26 -48 -122 -127 -175 -127c-16 0 -31 19 -25 35l63 171l-2 1
c-67 -81 -191 -207 -232 -207c-7 0 -11 1 -16 5c-8 1 -13 -8 -18 -22l-15 -42c-10 -27 -14 -61 -14 -91s-4 -55 -7 -64c-8 -23 -39 -41 -72 -41c-17 0 -22 12 -15 31l207 552c7 19 8 29 0 29c-19 0 -71 -44 -95 -69c-10 -2 -18 6 -17 15c26 40 126 119 173 119
c13 0 36 -13 30 -30z" />
    <glyph glyph-name="trademark" unicode="&#x2122;" horiz-adv-x="550" 
d="M230 531v98c0 10 0 11 -10 11h-17c-24 0 -37 -9 -43 -32c-3 -1 -9 0 -10 3c5 29 9 47 12 60h9c8 -10 10 -11 28 -11h115c13 0 17 0 28 11h8c-4 -16 -6 -46 -5 -63c-2 -3 -8 -3 -10 -1c-4 21 -7 33 -37 33h-21c-7 0 -7 -1 -7 -11v-101c0 -27 1 -36 16 -40l15 -2
c3 -3 2 -12 -1 -13c-20 1 -32 1 -48 1c-22 0 -36 0 -52 -1c-4 2 -4 8 -1 13l14 2c15 2 17 16 17 43zM584 517l-2 89c0 5 0 9 -1 10c-1 0 -11 -19 -17 -30l-25 -49c-3 -7 -26 -51 -30 -64c-5 -2 -10 -2 -11 -1c-6 16 -19 43 -26 57l-25 50c-8 17 -19 41 -21 42
c-1 -2 -2 -15 -3 -47c-1 -17 -1 -42 -1 -61c0 -20 4 -24 19 -26l8 -1c2 -3 2 -9 0 -13c-9 1 -22 1 -43 1c-10 0 -22 0 -37 -1c-3 2 -3 9 -1 13l5 1c12 1 22 9 23 21c4 39 8 79 8 119c0 11 -7 18 -22 20l-7 1c-2 3 -1 12 1 13c10 -1 20 -1 31 -1c16 0 27 0 42 1
c0 -10 14 -36 22 -51l25 -47c7 -12 15 -27 17 -28c1 1 10 16 17 28l24 43c8 14 17 33 23 55c15 -1 23 -1 30 -1c13 0 25 0 36 1c6 -1 6 -11 1 -13l-9 -1c-15 -2 -17 -9 -17 -22c0 -31 1 -78 3 -109c1 -21 3 -24 12 -27l14 -3c3 -2 3 -11 0 -13c-13 1 -35 1 -46 1
c-15 0 -28 0 -41 -1c-3 2 -4 11 0 13l9 3c15 5 15 8 15 28z" />
    <glyph glyph-name="Eth" unicode="&#xd0;" horiz-adv-x="745" 
d="M90 361h110l58 188c19 62 12 71 -17 75l-40 5c-6 4 -7 19 0 24c15 2 102 10 186 10c288 0 360 -146 360 -273c0 -130 -63 -238 -158 -303c-113 -77 -243 -90 -334 -90c-30 0 -66 3 -125 3c-41 0 -75 -1 -110 -3c-8 5 -8 19 -1 25l26 3c46 5 57 17 88 119l56 182h-107
c-3 12 -1 28 8 35zM412 326h-148l-66 -212c-18 -59 3 -82 91 -82c289 0 369 243 369 351c0 95 -15 249 -264 249c-31 0 -37 -7 -47 -39l-72 -232h146c5 -12 2 -28 -9 -35z" />
    <glyph glyph-name="onehalf" unicode="&#xbd;" horiz-adv-x="820" 
d="M174 332l58 195c7 24 9 33 8 38c1 9 -7 12 -21 14l-30 5c-5 6 -2 14 2 17c57 9 105 25 126 35c5 1 10 -1 11 -6c-7 -20 -14 -38 -24 -71l-67 -228c-15 -51 -15 -61 20 -65l19 -2c5 -4 4 -16 -3 -19c-26 1 -54 2 -95 2c-37 0 -65 -1 -83 -2c-4 3 -4 16 0 19l18 2
c41 5 46 15 61 66zM138 -14c188 223 373 445 557 668c12 0 29 -9 29 -25c-188 -223 -374 -446 -559 -669c-18 0 -27 11 -27 26zM582 48h62c47 0 70 4 91 35c5 4 19 3 22 -3c-16 -26 -31 -57 -43 -82c-32 2 -61 2 -102 2h-86c-26 0 -63 -1 -75 -2c-6 4 -6 10 -3 15
c40 24 69 45 125 90s150 112 150 190c0 36 -26 62 -65 62c-42 0 -77 -37 -94 -58c-7 -3 -15 2 -16 10c28 51 81 86 138 86c64 0 109 -36 109 -94c0 -59 -52 -102 -115 -149l-50 -37c-60 -45 -66 -54 -66 -60c0 -4 5 -5 18 -5z" />
    <glyph glyph-name="plusminus" unicode="&#xb1;" horiz-adv-x="560" 
d="M503 49v-49h-385v49h385zM341 84h-59v165h-164v49h164v158h59v-158h162v-49h-162v-165z" />
    <glyph glyph-name="Thorn" unicode="&#xde;" horiz-adv-x="560" 
d="M132 144l117 372c30 94 32 109 -23 118l-24 4c-6 8 -5 20 6 25c40 -2 74 -3 116 -3c51 0 81 1 120 3c7 -4 7 -20 0 -25l-22 -4c-61 -11 -67 -20 -96 -116h36c79 0 137 -16 171 -44s49 -68 49 -107c0 -150 -171 -199 -274 -192c-8 3 -9 14 -3 20c27 5 49 10 75 19
c61 22 117 81 117 156c0 79 -48 117 -131 117c-48 0 -55 -7 -63 -32l-96 -311c-29 -93 -32 -116 19 -119l45 -3c7 -7 4 -21 -3 -25c-64 2 -98 3 -141 3c-41 0 -75 -1 -113 -3c-8 5 -8 19 0 25l29 3c47 5 57 17 89 119z" />
    <glyph glyph-name="onequarter" unicode="&#xbc;" horiz-adv-x="820" 
d="M517 143h93c18 0 20 2 24 16l33 111c1 4 3 9 9 12c10 5 30 11 43 11s11 -7 7 -19l-35 -117c-4 -12 -3 -14 10 -14h38c6 -5 3 -22 -7 -27h-34c-19 0 -20 -2 -23 -14l-10 -35c-9 -33 -13 -43 18 -48l24 -4c5 -4 2 -14 -3 -17c-34 1 -55 2 -90 2c-33 0 -59 -1 -84 -2
c-5 3 -5 13 1 17l24 4c29 5 42 10 52 48l9 33c4 13 4 16 -14 16h-156c-5 0 -8 4 -6 10c2 7 7 13 16 21l296 273c9 9 14 12 22 12c10 0 20 -1 20 -5c0 -2 -2 -4 -4 -6l-286 -263c-14 -13 -6 -15 13 -15zM190 332l58 195c7 24 9 33 8 38c1 9 -7 12 -21 14l-30 5
c-5 6 -2 14 2 17c57 9 105 25 126 35c5 1 10 -1 11 -6c-7 -20 -14 -38 -24 -71l-67 -228c-15 -51 -15 -61 20 -65l19 -2c5 -4 4 -16 -3 -19c-26 1 -54 2 -95 2c-37 0 -65 -1 -83 -2c-4 3 -4 16 0 19l18 2c41 5 46 15 61 66zM158 -14c188 223 373 445 557 668
c12 0 29 -9 29 -25c-188 -223 -374 -446 -559 -669c-18 0 -27 11 -27 26z" />
    <glyph glyph-name="divide" unicode="&#xf7;" horiz-adv-x="560" 
d="M308 128c23 0 44 -20 44 -44c0 -25 -21 -45 -44 -45c-25 0 -45 20 -45 45c0 24 20 44 45 44zM308 283c-25 0 -45 20 -45 45c0 24 20 44 45 44c23 0 44 -20 44 -44c0 -25 -21 -45 -44 -45zM503 230v-49h-385v49h385z" />
    <glyph glyph-name="brokenbar" unicode="&#xa6;" horiz-adv-x="260" 
d="M199 675v-350h-59v350h59zM199 175v-350h-59v350h59z" />
    <glyph glyph-name="degree" unicode="&#xb0;" horiz-adv-x="400" 
d="M301 640c73 0 134 -51 134 -129c0 -82 -61 -129 -134 -129s-134 47 -134 129c0 78 61 129 134 129zM301 605c-44 0 -78 -37 -78 -94s34 -94 78 -94s78 37 78 94s-34 94 -78 94z" />
    <glyph glyph-name="thorn" unicode="&#xfe;" horiz-adv-x="448" 
d="M-4 -169l186 522c-36 -10 -59 -20 -101 -41c-8 1 -13 10 -10 19c35 25 75 42 124 56l49 137c25 70 18 80 3 87l-18 8c-5 4 -5 13 0 16c18 7 80 26 126 30l5 -6c-13 -36 -24 -64 -64 -172l-35 -95c8 0 19 2 38 2c46 0 136 -19 136 -114c0 -92 -56 -173 -132 -237
c-63 -53 -139 -57 -143 -57c-9 0 -17 2 -31 6c-8 -2 -13 -8 -16 -18l-41 -118c-27 -77 -25 -86 8 -91l41 -6c5 -7 5 -18 -4 -22c-76 0 -151 -4 -218 -6c-7 6 -7 16 0 22l22 4c56 10 60 33 75 74zM253 362l-104 -292c-4 -11 -3 -21 1 -27c6 -10 21 -23 37 -23
c13 0 69 14 112 81c48 74 59 144 59 188c0 50 -36 75 -79 75c-11 0 -19 -1 -26 -2z" />
    <glyph glyph-name="threequarters" unicode="&#xbe;" horiz-adv-x="820" 
d="M192 -14c188 223 373 445 557 668c12 0 29 -9 29 -25c-188 -223 -374 -446 -559 -669c-18 0 -27 11 -27 26zM322 640c52 0 88 -29 88 -69c0 -44 -58 -71 -97 -84c-8 -3 -2 -8 6 -10c37 -9 79 -37 79 -88c0 -116 -145 -181 -248 -181c-44 0 -72 13 -72 41
c0 15 13 30 31 30c15 0 25 -10 34 -27c6 -12 16 -18 30 -18c82 0 151 69 151 147c0 42 -29 69 -70 69c-24 0 -52 -14 -71 -29c-11 5 -16 16 -8 31c31 12 170 51 170 114c0 29 -24 41 -48 41c-34 0 -73 -27 -97 -59c-9 -1 -15 5 -15 13c26 43 78 79 137 79zM541 143h93
c18 0 20 2 24 16l33 111c1 4 3 9 9 12c10 5 30 11 43 11s11 -7 7 -19l-35 -117c-4 -12 -3 -14 10 -14h38c6 -5 3 -22 -7 -27h-34c-19 0 -20 -2 -23 -14l-10 -35c-9 -33 -13 -43 18 -48l24 -4c5 -4 2 -14 -3 -17c-34 1 -55 2 -90 2c-33 0 -59 -1 -84 -2c-5 3 -5 13 1 17l24 4
c29 5 42 10 52 48l9 33c4 13 4 16 -14 16h-156c-5 0 -8 4 -6 10c2 7 7 13 16 21l296 273c9 9 14 12 22 12c10 0 20 -1 20 -5c0 -2 -2 -4 -4 -6l-286 -263c-14 -13 -6 -15 13 -15z" />
    <glyph glyph-name="twosuperior" unicode="&#xb2;" 
d="M210 363h62c47 0 70 4 91 35c5 4 19 3 22 -3c-16 -26 -31 -57 -43 -82c-32 2 -61 2 -102 2h-86c-26 0 -63 -1 -75 -2c-6 4 -6 10 -3 15c40 24 69 45 125 90s150 112 150 190c0 36 -26 62 -65 62c-42 0 -77 -37 -94 -58c-7 -3 -15 2 -16 10c28 51 81 86 138 86
c64 0 109 -36 109 -94c0 -59 -52 -102 -115 -149l-50 -37c-60 -45 -66 -54 -66 -60c0 -4 5 -5 18 -5z" />
    <glyph glyph-name="registered" unicode="&#xae;" horiz-adv-x="310" 
d="M238 522v57c0 13 -3 19 -11 20h-4c-2 4 -2 10 1 11c21 1 39 2 56 2c22 0 50 -5 50 -34c0 -14 -10 -24 -18 -28c-2 -1 -2 -3 0 -7c10 -21 18 -35 25 -40c4 -3 6 -5 9 -6c2 0 2 -6 0 -7c-5 -1 -9 -1 -14 -1c-16 0 -28 6 -37 21c-5 8 -9 16 -14 25c-2 4 -5 6 -9 6
c-5 0 -6 -3 -6 -5v-14c0 -15 0 -19 14 -21l3 -1c2 -1 2 -9 0 -10c-10 0 -18 1 -30 1c-11 0 -20 -1 -29 -1c-3 1 -3 9 -1 10l4 1c11 3 11 5 11 21zM266 590v-30c0 -7 1 -7 12 -7c16 0 20 12 20 20c0 16 -8 25 -19 25c-12 0 -13 -2 -13 -8zM280 677c72 0 130 -57 130 -127
s-58 -127 -130 -127s-130 57 -130 127s58 127 130 127zM280 655c-54 0 -99 -46 -99 -105c0 -58 45 -105 99 -105s99 47 99 105c0 59 -45 105 -99 105z" />
    <glyph glyph-name="minus" unicode="&#x2212;" horiz-adv-x="560" 
d="M503 181h-385v49h385v-49z" />
    <glyph glyph-name="eth" unicode="&#xf0;" horiz-adv-x="404" 
d="M493 616l-123 -62c23 -56 38 -120 36 -192c-3 -111 -42 -229 -117 -307c-62 -64 -115 -69 -142 -69c-64 0 -106 47 -100 133c4 62 43 158 109 224c52 51 101 65 133 65c16 0 32 -4 46 -11c3 37 -3 85 -20 131l-125 -63c-11 7 -15 22 -10 32l124 63
c-17 53 -56 119 -114 138c-2 7 0 13 9 17c71 -18 124 -64 156 -131l127 64c13 -5 17 -20 11 -32zM293 378c-27 0 -50 -9 -79 -48c-58 -78 -97 -197 -100 -250c-2 -35 12 -64 41 -64c22 0 47 9 79 52c44 59 92 191 95 244c2 36 -5 66 -36 66z" />
    <glyph glyph-name="multiply" unicode="&#xd7;" horiz-adv-x="560" 
d="M496 349l-148 -150l148 -149l-37 -39l-149 150l-148 -150l-37 39l147 149l-147 147l37 39l148 -148l149 150z" />
    <glyph glyph-name="threesuperior" unicode="&#xb3;" 
d="M331 708c52 0 88 -29 88 -69c0 -44 -58 -71 -97 -84c-7 -6 -2 -8 6 -10c37 -9 79 -37 79 -88c0 -116 -145 -181 -248 -181c-44 0 -73 13 -72 41c0 15 13 30 31 30c15 0 25 -10 34 -27c6 -12 16 -18 30 -18c82 0 151 69 151 147c0 42 -29 69 -70 69c-24 0 -52 -14 -71 -29
c-11 5 -16 16 -8 31c31 12 170 51 170 114c0 29 -24 41 -48 41c-34 0 -73 -27 -97 -59c-9 -1 -15 5 -15 13c26 43 78 79 137 79z" />
    <glyph glyph-name="copyright" unicode="&#xa9;" horiz-adv-x="825" 
d="M356 334c0 -105 60 -175 149 -175c58 0 98 38 123 95c6 5 16 4 20 -3c-2 -26 -15 -75 -27 -96c-19 -6 -74 -23 -122 -23c-148 0 -218 99 -218 196c0 120 98 201 224 201c55 0 106 -15 121 -16c5 -30 7 -56 12 -93c-4 -7 -16 -8 -21 -3c-18 57 -58 85 -118 85
c-95 0 -143 -76 -143 -168zM471 -16c-201 0 -350 155 -350 346s149 346 350 346s350 -155 350 -346s-149 -346 -350 -346zM178 331c0 -173 127 -308 293 -308s293 135 293 308c0 172 -127 306 -293 306s-293 -134 -293 -306z" />
    <glyph glyph-name="Aacute" unicode="&#xc1;" horiz-adv-x="596" 
d="M552 25l26 -3c6 -6 3 -21 -4 -25c-31 2 -69 3 -113 3c-46 0 -85 -1 -115 -3c-10 4 -10 21 -1 25l31 3c22 2 35 10 39 16c3 5 8 19 11 62l9 134c2 23 0 26 -21 26h-144c-30 0 -32 -1 -51 -31l-73 -114c-35 -55 -45 -70 -45 -75c0 -6 4 -12 23 -15l37 -6c8 -6 5 -21 -2 -25
c-31 2 -62 3 -102 3c-39 0 -75 -1 -111 -3c-5 6 -4 19 2 25l27 3c30 3 52 18 72 42c29 36 87 116 165 225l176 248c43 60 56 86 60 103c34 5 71 33 73 33c5 0 12 -4 12 -8c0 -17 -5 -60 -10 -147l-20 -378c-6 -111 -5 -112 49 -118zM293 303h126c17 0 19 2 20 20l16 219
c1 14 0 26 -2 26c-3 0 -9 -6 -38 -49l-139 -201c-8 -12 -5 -15 17 -15zM616 767l-144 -61c-6 2 -12 12 -9 20l122 98c9 8 17 12 23 12s16 -6 23 -19c9 -17 9 -29 6 -35c-3 -5 -10 -10 -21 -15z" />
    <glyph glyph-name="Acircumflex" unicode="&#xc2;" horiz-adv-x="596" 
d="M552 25l26 -3c6 -6 3 -21 -4 -25c-31 2 -69 3 -113 3c-46 0 -85 -1 -115 -3c-10 4 -10 21 -1 25l31 3c22 2 35 10 39 16c3 5 8 19 11 62l9 134c2 23 0 26 -21 26h-144c-30 0 -32 -1 -51 -31l-73 -114c-35 -55 -45 -70 -45 -75c0 -6 4 -12 23 -15l37 -6c8 -6 5 -21 -2 -25
c-31 2 -62 3 -102 3c-39 0 -75 -1 -111 -3c-5 6 -4 19 2 25l27 3c30 3 52 18 72 42c29 36 87 116 165 225l176 248c43 60 56 86 60 103c34 5 71 33 73 33c5 0 12 -4 12 -8c0 -17 -5 -60 -10 -147l-20 -378c-6 -111 -5 -112 49 -118zM293 303h126c17 0 19 2 20 20l16 219
c1 14 0 26 -2 26c-3 0 -9 -6 -38 -49l-139 -201c-8 -12 -5 -15 17 -15zM558 827l88 -109c0 -8 -9 -17 -16 -17l-87 62c-5 5 -10 8 -15 8c-4 0 -9 -2 -16 -6l-125 -64c-7 0 -11 10 -9 17l142 109c8 6 14 9 21 9s13 -2 17 -9z" />
    <glyph glyph-name="Adieresis" unicode="&#xc4;" horiz-adv-x="596" 
d="M552 25l26 -3c6 -6 3 -21 -4 -25c-31 2 -69 3 -113 3c-46 0 -85 -1 -115 -3c-10 4 -10 21 -1 25l31 3c22 2 35 10 39 16c3 5 8 19 11 62l9 134c2 23 0 26 -21 26h-144c-30 0 -32 -1 -51 -31l-73 -114c-35 -55 -45 -70 -45 -75c0 -6 4 -12 23 -15l37 -6c8 -6 5 -21 -2 -25
c-31 2 -62 3 -102 3c-39 0 -75 -1 -111 -3c-5 6 -4 19 2 25l27 3c30 3 52 18 72 42c29 36 87 116 165 225l176 248c43 60 56 86 60 103c34 5 71 33 73 33c5 0 12 -4 12 -8c0 -17 -5 -60 -10 -147l-20 -378c-6 -111 -5 -112 49 -118zM293 303h126c17 0 19 2 20 20l16 219
c1 14 0 26 -2 26c-3 0 -9 -6 -38 -49l-139 -201c-8 -12 -5 -15 17 -15zM422 705c-23 0 -36 15 -36 37c0 31 23 53 47 53c23 0 37 -19 37 -38c0 -33 -24 -52 -48 -52zM596 705c-23 0 -36 15 -36 37c0 31 23 53 47 53c23 0 37 -19 37 -38c0 -33 -23 -52 -48 -52z" />
    <glyph glyph-name="Agrave" unicode="&#xc0;" horiz-adv-x="596" 
d="M552 25l26 -3c6 -6 3 -21 -4 -25c-31 2 -69 3 -113 3c-46 0 -85 -1 -115 -3c-10 4 -10 21 -1 25l31 3c22 2 35 10 39 16c3 5 8 19 11 62l9 134c2 23 0 26 -21 26h-144c-30 0 -32 -1 -51 -31l-73 -114c-35 -55 -45 -70 -45 -75c0 -6 4 -12 23 -15l37 -6c8 -6 5 -21 -2 -25
c-31 2 -62 3 -102 3c-39 0 -75 -1 -111 -3c-5 6 -4 19 2 25l27 3c30 3 52 18 72 42c29 36 87 116 165 225l176 248c43 60 56 86 60 103c34 5 71 33 73 33c5 0 12 -4 12 -8c0 -17 -5 -60 -10 -147l-20 -378c-6 -111 -5 -112 49 -118zM293 303h126c17 0 19 2 20 20l16 219
c1 14 0 26 -2 26c-3 0 -9 -6 -38 -49l-139 -201c-8 -12 -5 -15 17 -15zM540 706l-144 61c-11 5 -18 10 -21 15c-3 6 -3 18 6 35c7 13 17 19 23 19s14 -4 23 -12l122 -98c3 -8 -3 -18 -9 -20z" />
    <glyph glyph-name="Aring" unicode="&#xc5;" horiz-adv-x="596" 
d="M552 25l26 -3c6 -6 3 -21 -4 -25c-31 2 -69 3 -113 3c-46 0 -85 -1 -115 -3c-10 4 -10 21 -1 25l31 3c22 2 35 10 39 16c3 5 8 19 11 62l9 134c2 23 0 26 -21 26h-144c-30 0 -32 -1 -51 -31l-73 -114c-35 -55 -45 -70 -45 -75c0 -6 4 -12 23 -15l37 -6c8 -6 5 -21 -2 -25
c-31 2 -62 3 -102 3c-39 0 -75 -1 -111 -3c-5 6 -4 19 2 25l27 3c30 3 52 18 72 42c29 36 87 116 165 225l176 248c43 60 56 86 60 103c34 5 71 33 73 33c5 0 12 -4 12 -8c0 -17 -5 -60 -10 -147l-20 -378c-6 -111 -5 -112 49 -118zM293 303h126c17 0 19 2 20 20l16 219
c1 14 0 26 -2 26c-3 0 -9 -6 -38 -49l-139 -201c-8 -12 -5 -15 17 -15zM508 868c50 0 85 -39 85 -81c0 -43 -35 -81 -85 -81s-85 38 -85 81c0 42 35 81 85 81zM463 787c0 -31 20 -53 45 -53c26 0 45 22 45 53c0 30 -19 52 -45 52c-25 0 -45 -22 -45 -52z" />
    <glyph glyph-name="Atilde" unicode="&#xc3;" horiz-adv-x="596" 
d="M552 25l26 -3c6 -6 3 -21 -4 -25c-31 2 -69 3 -113 3c-46 0 -85 -1 -115 -3c-10 4 -10 21 -1 25l31 3c22 2 35 10 39 16c3 5 8 19 11 62l9 134c2 23 0 26 -21 26h-144c-30 0 -32 -1 -51 -31l-73 -114c-35 -55 -45 -70 -45 -75c0 -6 4 -12 23 -15l37 -6c8 -6 5 -21 -2 -25
c-31 2 -62 3 -102 3c-39 0 -75 -1 -111 -3c-5 6 -4 19 2 25l27 3c30 3 52 18 72 42c29 36 87 116 165 225l176 248c43 60 56 86 60 103c34 5 71 33 73 33c5 0 12 -4 12 -8c0 -17 -5 -60 -10 -147l-20 -378c-6 -111 -5 -112 49 -118zM293 303h126c17 0 19 2 20 20l16 219
c1 14 0 26 -2 26c-3 0 -9 -6 -38 -49l-139 -201c-8 -12 -5 -15 17 -15zM489 790h50c38 0 48 6 70 37c5 3 13 2 16 -4c-6 -24 -22 -54 -35 -67c-13 -12 -25 -15 -45 -15h-49c-41 0 -58 -15 -76 -48c-5 -3 -12 -2 -15 4c3 15 19 60 34 74c14 16 28 19 50 19z" />
    <glyph glyph-name="Ccedilla" unicode="&#xc7;" horiz-adv-x="646" 
d="M283 -83l52 70c-117 13 -233 81 -233 266c0 116 61 227 143 301c84 76 205 122 336 122c78 0 139 -22 164 -32c-16 -39 -36 -97 -45 -134c-4 -8 -24 -7 -27 1c19 87 -6 134 -109 134c-71 0 -164 -22 -256 -112c-50 -50 -118 -167 -118 -299c0 -142 67 -219 194 -219
c104 0 167 61 215 140c10 4 21 2 24 -7c-9 -27 -31 -80 -65 -141c-22 0 -49 -6 -79 -11c-29 -5 -62 -12 -97 -12c-5 0 -11 0 -15 1l-19 -24c-6 -8 -9 -18 1 -26c22 -18 39 -38 39 -61c0 -47 -52 -81 -100 -81c-34 0 -50 14 -50 32c0 10 9 24 25 24c9 0 17 -7 24 -14
c8 -8 15 -15 21 -15c11 0 28 7 28 31s-22 48 -53 62v4z" />
    <glyph glyph-name="Eacute" unicode="&#xc9;" horiz-adv-x="566" 
d="M132 144l116 372c29 94 31 107 -22 118l-20 4c-6 8 -5 21 6 25c18 -1 35 -2 53 -2c18 -1 37 -1 58 -1h189c64 0 111 0 141 3c-7 -17 -31 -97 -41 -133c-4 -8 -22 -7 -25 1c6 52 9 77 -35 89c-23 6 -54 9 -106 9h-59c-26 0 -30 -4 -39 -34l-64 -205c-9 -28 -10 -29 18 -29
h50c95 0 115 6 138 49l16 30c4 7 23 6 25 -2c-7 -17 -23 -60 -34 -97c-12 -38 -21 -75 -26 -97c-6 -8 -21 -7 -25 1v28c0 52 -26 53 -103 53h-50c-28 0 -30 -1 -39 -29l-41 -135c-17 -56 -27 -90 -17 -110c7 -14 26 -21 111 -21c110 0 150 6 213 104c8 5 19 3 23 -6
c-9 -29 -43 -105 -69 -132c-33 1 -71 1 -111 2c-39 0 -80 1 -118 1h-118c-41 0 -75 -1 -119 -3c-8 5 -8 19 -1 25l35 3c48 4 58 17 90 119zM566 767l-144 -61c-6 2 -12 12 -9 20l122 98c9 8 17 12 23 12s16 -6 23 -19c9 -17 9 -29 6 -35c-3 -5 -10 -10 -21 -15z" />
    <glyph glyph-name="Ecircumflex" unicode="&#xca;" horiz-adv-x="566" 
d="M132 144l116 372c29 94 31 107 -22 118l-20 4c-6 8 -5 21 6 25c18 -1 35 -2 53 -2c18 -1 37 -1 58 -1h189c64 0 111 0 141 3c-7 -17 -31 -97 -41 -133c-4 -8 -22 -7 -25 1c6 52 9 77 -35 89c-23 6 -54 9 -106 9h-59c-26 0 -30 -4 -39 -34l-64 -205c-9 -28 -10 -29 18 -29
h50c95 0 115 6 138 49l16 30c4 7 23 6 25 -2c-7 -17 -23 -60 -34 -97c-12 -38 -21 -75 -26 -97c-6 -8 -21 -7 -25 1v28c0 52 -26 53 -103 53h-50c-28 0 -30 -1 -39 -29l-41 -135c-17 -56 -27 -90 -17 -110c7 -14 26 -21 111 -21c110 0 150 6 213 104c8 5 19 3 23 -6
c-9 -29 -43 -105 -69 -132c-33 1 -71 1 -111 2c-39 0 -80 1 -118 1h-118c-41 0 -75 -1 -119 -3c-8 5 -8 19 -1 25l35 3c48 4 58 17 90 119zM513 827l88 -109c0 -8 -9 -17 -16 -17l-87 62c-5 5 -10 8 -15 8c-4 0 -9 -2 -16 -6l-125 -64c-7 0 -11 10 -9 17l142 109
c8 6 14 9 21 9s13 -2 17 -9z" />
    <glyph glyph-name="Edieresis" unicode="&#xcb;" horiz-adv-x="566" 
d="M132 144l116 372c29 94 31 107 -22 118l-20 4c-6 8 -5 21 6 25c18 -1 35 -2 53 -2c18 -1 37 -1 58 -1h189c64 0 111 0 141 3c-7 -17 -31 -97 -41 -133c-4 -8 -22 -7 -25 1c6 52 9 77 -35 89c-23 6 -54 9 -106 9h-59c-26 0 -30 -4 -39 -34l-64 -205c-9 -28 -10 -29 18 -29
h50c95 0 115 6 138 49l16 30c4 7 23 6 25 -2c-7 -17 -23 -60 -34 -97c-12 -38 -21 -75 -26 -97c-6 -8 -21 -7 -25 1v28c0 52 -26 53 -103 53h-50c-28 0 -30 -1 -39 -29l-41 -135c-17 -56 -27 -90 -17 -110c7 -14 26 -21 111 -21c110 0 150 6 213 104c8 5 19 3 23 -6
c-9 -29 -43 -105 -69 -132c-33 1 -71 1 -111 2c-39 0 -80 1 -118 1h-118c-41 0 -75 -1 -119 -3c-8 5 -8 19 -1 25l35 3c48 4 58 17 90 119zM387 705c-23 0 -36 15 -36 37c0 31 23 53 47 53c23 0 37 -19 37 -38c0 -33 -24 -52 -48 -52zM561 705c-23 0 -36 15 -36 37
c0 31 23 53 47 53c23 0 37 -19 37 -38c0 -33 -23 -52 -48 -52z" />
    <glyph glyph-name="Egrave" unicode="&#xc8;" horiz-adv-x="566" 
d="M132 144l116 372c29 94 31 107 -22 118l-20 4c-6 8 -5 21 6 25c18 -1 35 -2 53 -2c18 -1 37 -1 58 -1h189c64 0 111 0 141 3c-7 -17 -31 -97 -41 -133c-4 -8 -22 -7 -25 1c6 52 9 77 -35 89c-23 6 -54 9 -106 9h-59c-26 0 -30 -4 -39 -34l-64 -205c-9 -28 -10 -29 18 -29
h50c95 0 115 6 138 49l16 30c4 7 23 6 25 -2c-7 -17 -23 -60 -34 -97c-12 -38 -21 -75 -26 -97c-6 -8 -21 -7 -25 1v28c0 52 -26 53 -103 53h-50c-28 0 -30 -1 -39 -29l-41 -135c-17 -56 -27 -90 -17 -110c7 -14 26 -21 111 -21c110 0 150 6 213 104c8 5 19 3 23 -6
c-9 -29 -43 -105 -69 -132c-33 1 -71 1 -111 2c-39 0 -80 1 -118 1h-118c-41 0 -75 -1 -119 -3c-8 5 -8 19 -1 25l35 3c48 4 58 17 90 119zM485 706l-144 61c-11 5 -18 10 -21 15c-3 6 -3 18 6 35c7 13 17 19 23 19s14 -4 23 -12l122 -98c3 -8 -3 -18 -9 -20z" />
    <glyph glyph-name="Iacute" unicode="&#xcd;" horiz-adv-x="341" 
d="M133 144l117 372c30 94 32 109 -23 118l-24 4c-6 8 -5 21 6 25c40 -2 74 -3 116 -3c41 0 72 1 120 3c7 -4 9 -20 0 -25l-27 -4c-58 -9 -62 -19 -93 -118l-117 -372c-29 -93 -32 -114 19 -119l31 -3c6 -7 3 -21 -4 -25c-49 2 -83 3 -126 3c-41 0 -75 -1 -115 -3
c-8 5 -8 19 -1 25l31 3c48 5 58 17 90 119zM454 767l-144 -61c-6 2 -12 12 -9 20l122 98c9 8 17 12 23 12s16 -6 23 -19c9 -17 9 -29 6 -35c-3 -5 -10 -10 -21 -15z" />
    <glyph glyph-name="Icircumflex" unicode="&#xce;" horiz-adv-x="341" 
d="M133 144l117 372c30 94 32 109 -23 118l-24 4c-6 8 -5 21 6 25c40 -2 74 -3 116 -3c41 0 72 1 120 3c7 -4 9 -20 0 -25l-27 -4c-58 -9 -62 -19 -93 -118l-117 -372c-29 -93 -32 -114 19 -119l31 -3c6 -7 3 -21 -4 -25c-49 2 -83 3 -126 3c-41 0 -75 -1 -115 -3
c-8 5 -8 19 -1 25l31 3c48 5 58 17 90 119zM392 827l88 -109c0 -8 -9 -17 -16 -17l-87 62c-5 5 -10 8 -15 8c-4 0 -9 -2 -16 -6l-125 -64c-7 0 -11 10 -9 17l142 109c8 6 14 9 21 9s13 -2 17 -9z" />
    <glyph glyph-name="Idieresis" unicode="&#xcf;" horiz-adv-x="341" 
d="M133 144l117 372c30 94 32 109 -23 118l-24 4c-6 8 -5 21 6 25c40 -2 74 -3 116 -3c41 0 72 1 120 3c7 -4 9 -20 0 -25l-27 -4c-58 -9 -62 -19 -93 -118l-117 -372c-29 -93 -32 -114 19 -119l31 -3c6 -7 3 -21 -4 -25c-49 2 -83 3 -126 3c-41 0 -75 -1 -115 -3
c-8 5 -8 19 -1 25l31 3c48 5 58 17 90 119zM264 705c-23 0 -36 15 -36 37c0 31 23 53 47 53c23 0 37 -19 37 -38c0 -33 -24 -52 -48 -52zM438 705c-23 0 -36 15 -36 37c0 31 23 53 47 53c23 0 37 -19 37 -38c0 -33 -23 -52 -48 -52z" />
    <glyph glyph-name="Igrave" unicode="&#xcc;" horiz-adv-x="341" 
d="M133 144l117 372c30 94 32 109 -23 118l-24 4c-6 8 -5 21 6 25c40 -2 74 -3 116 -3c41 0 72 1 120 3c7 -4 9 -20 0 -25l-27 -4c-58 -9 -62 -19 -93 -118l-117 -372c-29 -93 -32 -114 19 -119l31 -3c6 -7 3 -21 -4 -25c-49 2 -83 3 -126 3c-41 0 -75 -1 -115 -3
c-8 5 -8 19 -1 25l31 3c48 5 58 17 90 119zM373 706l-144 61c-11 5 -18 10 -21 15c-3 6 -3 18 6 35c7 13 17 19 23 19s14 -4 23 -12l122 -98c3 -8 -3 -18 -9 -20z" />
    <glyph glyph-name="Ntilde" unicode="&#xd1;" horiz-adv-x="739" 
d="M155 233l79 256c18 58 33 101 33 119c0 14 -9 19 -26 22l-40 8c-8 7 -5 22 5 25c15 -1 30 -1 47 -2c16 0 34 -1 55 -1h62v-14c0 -11 10 -48 49 -145l101 -249c20 -48 37 -91 49 -113c7 0 12 12 17 28l79 251c30 95 48 166 48 185c0 18 -2 25 -25 29l-39 6
c-6 9 -2 21 6 25c35 -2 76 -3 113 -3c38 0 66 1 95 3c5 -4 7 -19 1 -25l-23 -4c-23 -4 -43 -9 -52 -18c-14 -14 -51 -104 -82 -201l-72 -224c-34 -106 -45 -144 -63 -206c-6 -6 -16 -7 -24 -6c-13 40 -27 84 -93 244l-79 192c-27 66 -51 132 -67 165c-5 0 -15 -33 -32 -88
l-78 -260c-21 -69 -38 -149 -42 -166c-8 -33 15 -37 49 -41l23 -3c6 -6 4 -20 -3 -25c-30 2 -68 3 -114 3c-36 0 -74 -1 -105 -3c-6 4 -10 18 -2 25l25 3c12 1 35 6 49 17c17 13 37 64 76 191zM530 790h50c38 0 48 6 70 37c5 3 13 2 16 -4c-6 -24 -22 -54 -35 -67
c-13 -12 -25 -15 -45 -15h-49c-41 0 -58 -15 -76 -48c-5 -3 -12 -2 -15 4c3 15 19 60 34 74c14 16 28 19 50 19z" />
    <glyph glyph-name="Oacute" unicode="&#xd3;" horiz-adv-x="730" 
d="M506 676c131 0 246 -89 237 -274c-5 -111 -56 -234 -135 -309c-61 -58 -145 -109 -262 -109c-170 0 -248 133 -244 261c3 123 54 250 160 340c79 67 163 91 244 91zM502 645c-64 0 -115 -30 -150 -60c-72 -61 -160 -204 -166 -378c-3 -94 35 -192 167 -192
c49 0 105 14 167 80c90 97 135 242 139 351c5 127 -57 199 -157 199zM633 767l-144 -61c-6 2 -12 12 -9 20l122 98c9 8 17 12 23 12s16 -6 23 -19c9 -17 9 -29 6 -35c-3 -5 -10 -10 -21 -15z" />
    <glyph glyph-name="Ocircumflex" unicode="&#xd4;" horiz-adv-x="730" 
d="M506 676c131 0 246 -89 237 -274c-5 -111 -56 -234 -135 -309c-61 -58 -145 -109 -262 -109c-170 0 -248 133 -244 261c3 123 54 250 160 340c79 67 163 91 244 91zM502 645c-64 0 -115 -30 -150 -60c-72 -61 -160 -204 -166 -378c-3 -94 35 -192 167 -192
c49 0 105 14 167 80c90 97 135 242 139 351c5 127 -57 199 -157 199zM548 827l88 -109c0 -8 -9 -17 -16 -17l-87 62c-5 5 -10 8 -15 8c-4 0 -9 -2 -16 -6l-125 -64c-7 0 -11 10 -9 17l142 109c8 6 14 9 21 9s13 -2 17 -9z" />
    <glyph glyph-name="Odieresis" unicode="&#xd6;" horiz-adv-x="730" 
d="M506 676c131 0 246 -89 237 -274c-5 -111 -56 -234 -135 -309c-61 -58 -145 -109 -262 -109c-170 0 -248 133 -244 261c3 123 54 250 160 340c79 67 163 91 244 91zM502 645c-64 0 -115 -30 -150 -60c-72 -61 -160 -204 -166 -378c-3 -94 35 -192 167 -192
c49 0 105 14 167 80c90 97 135 242 139 351c5 127 -57 199 -157 199zM428 705c-23 0 -36 15 -36 37c0 31 23 53 47 53c23 0 37 -19 37 -38c0 -33 -24 -52 -48 -52zM602 705c-23 0 -36 15 -36 37c0 31 23 53 47 53c23 0 37 -19 37 -38c0 -33 -23 -52 -48 -52z" />
    <glyph glyph-name="Ograve" unicode="&#xd2;" horiz-adv-x="730" 
d="M506 676c131 0 246 -89 237 -274c-5 -111 -56 -234 -135 -309c-61 -58 -145 -109 -262 -109c-170 0 -248 133 -244 261c3 123 54 250 160 340c79 67 163 91 244 91zM502 645c-64 0 -115 -30 -150 -60c-72 -61 -160 -204 -166 -378c-3 -94 35 -192 167 -192
c49 0 105 14 167 80c90 97 135 242 139 351c5 127 -57 199 -157 199zM567 706l-144 61c-11 5 -18 10 -21 15c-3 6 -3 18 6 35c7 13 17 19 23 19s14 -4 23 -12l122 -98c3 -8 -3 -18 -9 -20z" />
    <glyph glyph-name="Otilde" unicode="&#xd5;" horiz-adv-x="730" 
d="M506 676c131 0 246 -89 237 -274c-5 -111 -56 -234 -135 -309c-61 -58 -145 -109 -262 -109c-170 0 -248 133 -244 261c3 123 54 250 160 340c79 67 163 91 244 91zM502 645c-64 0 -115 -30 -150 -60c-72 -61 -160 -204 -166 -378c-3 -94 35 -192 167 -192
c49 0 105 14 167 80c90 97 135 242 139 351c5 127 -57 199 -157 199zM497 790h50c38 0 48 6 70 37c5 3 13 2 16 -4c-6 -24 -22 -54 -35 -67c-13 -12 -25 -15 -45 -15h-49c-41 0 -58 -15 -76 -48c-5 -3 -12 -2 -15 4c3 15 19 60 34 74c14 16 28 19 50 19z" />
    <glyph glyph-name="Scaron" unicode="&#x160;" horiz-adv-x="471" 
d="M211 -16c-72 0 -141 22 -175 70c-3 36 5 86 18 116c6 5 16 5 21 -2c7 -87 48 -153 148 -153c64 0 146 41 146 141c0 74 -47 115 -100 157c-52 42 -104 102 -104 174c0 109 86 189 219 189c65 0 123 -25 145 -40c-14 -25 -27 -81 -37 -116c-7 -6 -21 -5 -27 1
c14 68 -5 124 -94 124c-91 0 -135 -59 -135 -128c0 -67 61 -116 97 -144c61 -47 108 -100 108 -182c0 -119 -91 -207 -230 -207zM539 823l-138 -108c-8 -5 -15 -9 -23 -9c-6 0 -12 3 -17 9l-88 108c-1 8 9 16 16 18l85 -63c8 -6 12 -7 17 -7c4 0 10 2 16 5l123 65
c7 0 10 -11 9 -18z" />
    <glyph glyph-name="Uacute" unicode="&#xda;" horiz-adv-x="734" 
d="M159 266l78 250c29 94 31 110 -23 119l-25 4c-6 6 -5 20 4 24c42 -2 74 -3 117 -3s74 1 123 3c7 -4 8 -19 -1 -24l-28 -4c-57 -8 -61 -20 -92 -119l-72 -231c-46 -149 -33 -265 130 -265c139 0 207 124 247 248l46 141c21 65 36 130 40 155c7 44 12 64 -38 71l-28 4
c-6 7 -4 20 4 24c49 -2 74 -3 107 -3s69 1 108 3c8 -5 8 -19 0 -24l-23 -4c-51 -9 -59 -23 -79 -74c-9 -23 -29 -87 -49 -152l-46 -147c-22 -69 -55 -155 -117 -209c-52 -46 -126 -69 -189 -69c-182 0 -251 98 -194 282zM630 767l-144 -61c-6 2 -12 12 -9 20l122 98
c9 8 17 12 23 12s16 -6 23 -19c9 -17 9 -29 6 -35c-3 -5 -10 -10 -21 -15z" />
    <glyph glyph-name="Ucircumflex" unicode="&#xdb;" horiz-adv-x="734" 
d="M159 266l78 250c29 94 31 110 -23 119l-25 4c-6 6 -5 20 4 24c42 -2 74 -3 117 -3s74 1 123 3c7 -4 8 -19 -1 -24l-28 -4c-57 -8 -61 -20 -92 -119l-72 -231c-46 -149 -33 -265 130 -265c139 0 207 124 247 248l46 141c21 65 36 130 40 155c7 44 12 64 -38 71l-28 4
c-6 7 -4 20 4 24c49 -2 74 -3 107 -3s69 1 108 3c8 -5 8 -19 0 -24l-23 -4c-51 -9 -59 -23 -79 -74c-9 -23 -29 -87 -49 -152l-46 -147c-22 -69 -55 -155 -117 -209c-52 -46 -126 -69 -189 -69c-182 0 -251 98 -194 282zM590 827l88 -109c0 -8 -9 -17 -16 -17l-87 62
c-5 5 -10 8 -15 8c-4 0 -9 -2 -16 -6l-125 -64c-7 0 -11 10 -9 17l142 109c8 6 14 9 21 9s13 -2 17 -9z" />
    <glyph glyph-name="Udieresis" unicode="&#xdc;" horiz-adv-x="734" 
d="M159 266l78 250c29 94 31 110 -23 119l-25 4c-6 6 -5 20 4 24c42 -2 74 -3 117 -3s74 1 123 3c7 -4 8 -19 -1 -24l-28 -4c-57 -8 -61 -20 -92 -119l-72 -231c-46 -149 -33 -265 130 -265c139 0 207 124 247 248l46 141c21 65 36 130 40 155c7 44 12 64 -38 71l-28 4
c-6 7 -4 20 4 24c49 -2 74 -3 107 -3s69 1 108 3c8 -5 8 -19 0 -24l-23 -4c-51 -9 -59 -23 -79 -74c-9 -23 -29 -87 -49 -152l-46 -147c-22 -69 -55 -155 -117 -209c-52 -46 -126 -69 -189 -69c-182 0 -251 98 -194 282zM466 705c-23 0 -36 15 -36 37c0 31 23 53 47 53
c23 0 37 -19 37 -38c0 -33 -24 -52 -48 -52zM640 705c-23 0 -36 15 -36 37c0 31 23 53 47 53c23 0 37 -19 37 -38c0 -33 -23 -52 -48 -52z" />
    <glyph glyph-name="Ugrave" unicode="&#xd9;" horiz-adv-x="734" 
d="M159 266l78 250c29 94 31 110 -23 119l-25 4c-6 6 -5 20 4 24c42 -2 74 -3 117 -3s74 1 123 3c7 -4 8 -19 -1 -24l-28 -4c-57 -8 -61 -20 -92 -119l-72 -231c-46 -149 -33 -265 130 -265c139 0 207 124 247 248l46 141c21 65 36 130 40 155c7 44 12 64 -38 71l-28 4
c-6 7 -4 20 4 24c49 -2 74 -3 107 -3s69 1 108 3c8 -5 8 -19 0 -24l-23 -4c-51 -9 -59 -23 -79 -74c-9 -23 -29 -87 -49 -152l-46 -147c-22 -69 -55 -155 -117 -209c-52 -46 -126 -69 -189 -69c-182 0 -251 98 -194 282zM579 706l-144 61c-11 5 -18 10 -21 15
c-3 6 -3 18 6 35c7 13 17 19 23 19s14 -4 23 -12l122 -98c3 -8 -3 -18 -9 -20z" />
    <glyph glyph-name="Yacute" unicode="&#xdd;" horiz-adv-x="564" 
d="M299 579l51 -235c5 -25 10 -25 30 -1l123 148c40 49 96 117 96 126c0 7 -5 13 -29 17l-25 4c-7 6 -6 20 2 25c39 -2 70 -3 104 -3c31 0 57 1 90 3c7 -4 7 -19 0 -25l-21 -4c-24 -5 -42 -10 -56 -23c-20 -18 -67 -67 -98 -103l-114 -134c-68 -79 -78 -91 -103 -170
l-19 -60c-32 -100 -32 -115 19 -119l36 -3c7 -5 4 -22 -3 -25c-56 2 -91 3 -134 3c-41 0 -74 -1 -119 -3c-8 5 -8 20 -1 25l36 3c48 4 56 18 90 119l20 59c17 50 21 68 7 128l-50 217c-14 62 -21 80 -57 86l-25 4c-6 7 -3 21 3 25c37 -2 63 -3 106 -3c44 0 75 1 107 3
c6 -5 7 -19 0 -25l-29 -4c-37 -5 -46 -15 -37 -55zM565 767l-144 -61c-6 2 -12 12 -9 20l122 98c9 8 17 12 23 12s16 -6 23 -19c9 -17 9 -29 6 -35c-3 -5 -10 -10 -21 -15z" />
    <glyph glyph-name="Ydieresis" unicode="&#x178;" horiz-adv-x="564" 
d="M299 579l51 -235c5 -25 10 -25 30 -1l123 148c40 49 96 117 96 126c0 7 -5 13 -29 17l-25 4c-7 6 -6 20 2 25c39 -2 70 -3 104 -3c31 0 57 1 90 3c7 -4 7 -19 0 -25l-21 -4c-24 -5 -42 -10 -56 -23c-20 -18 -67 -67 -98 -103l-114 -134c-68 -79 -78 -91 -103 -170
l-19 -60c-32 -100 -32 -115 19 -119l36 -3c7 -5 4 -22 -3 -25c-56 2 -91 3 -134 3c-41 0 -74 -1 -119 -3c-8 5 -8 20 -1 25l36 3c48 4 56 18 90 119l20 59c17 50 21 68 7 128l-50 217c-14 62 -21 80 -57 86l-25 4c-6 7 -3 21 3 25c37 -2 63 -3 106 -3c44 0 75 1 107 3
c6 -5 7 -19 0 -25l-29 -4c-37 -5 -46 -15 -37 -55zM380 705c-23 0 -36 15 -36 37c0 31 23 53 47 53c23 0 37 -19 37 -38c0 -33 -24 -52 -48 -52zM554 705c-23 0 -36 15 -36 37c0 31 23 53 47 53c23 0 37 -19 37 -38c0 -33 -23 -52 -48 -52z" />
    <glyph glyph-name="Zcaron" unicode="&#x17d;" horiz-adv-x="601" 
d="M120 145l439 457c18 18 12 27 -28 27h-153c-110 0 -137 -13 -197 -100c-10 -5 -21 0 -23 12c21 35 44 89 60 144c3 3 9 3 12 0c5 -24 18 -25 96 -25h267c68 0 98 2 107 3c7 -1 9 -6 8 -12c-31 -20 -143 -139 -214 -212l-229 -238c-13 -14 -135 -143 -135 -153
c0 -9 11 -17 90 -17h88c83 0 148 2 186 22c26 14 59 50 82 89c6 4 18 -1 20 -8c-11 -41 -47 -112 -69 -137c-26 1 -59 2 -93 2c-34 1 -70 1 -104 1h-234c-52 0 -84 -1 -110 -3c-5 2 -7 11 -4 16c24 18 95 88 138 132zM591 823l-138 -108c-8 -5 -15 -9 -23 -9
c-6 0 -12 3 -17 9l-88 108c-1 8 9 16 16 18l85 -63c8 -6 12 -7 17 -7c4 0 10 2 16 5l123 65c7 0 10 -11 9 -18z" />
    <glyph glyph-name="aacute" unicode="&#xe1;" horiz-adv-x="444" 
d="M374 367l28 64c17 8 43 -2 49 -15c-15 -37 -102 -258 -134 -349c-6 -17 -1 -23 7 -23c17 0 46 17 103 67c7 0 14 -5 14 -13c-42 -56 -113 -112 -168 -112c-23 0 -29 19 -29 27c0 7 2 16 10 39l33 90l-3 1c-71 -88 -173 -157 -220 -157c-28 0 -44 28 -44 56
c0 23 22 103 88 194c48 66 91 106 132 129c39 22 64 29 90 29c11 0 18 -3 24 -6c4 -2 15 -11 20 -21zM299 356c-24 0 -40 -11 -71 -39c-64 -57 -125 -188 -125 -259c0 -12 6 -19 15 -19c10 0 40 13 97 65c76 71 118 157 134 216c-7 19 -24 36 -50 36zM473 569l-126 -111
c-7 0 -16 6 -16 13l94 143c7 11 15 21 24 20c7 0 17 -4 28 -15c9 -9 14 -19 13 -26c0 -6 -6 -15 -17 -24z" />
    <glyph glyph-name="acircumflex" unicode="&#xe2;" horiz-adv-x="444" 
d="M374 367l28 64c17 8 43 -2 49 -15c-15 -37 -102 -258 -134 -349c-6 -17 -1 -23 7 -23c17 0 46 17 103 67c7 0 14 -5 14 -13c-42 -56 -113 -112 -168 -112c-23 0 -29 19 -29 27c0 7 2 16 10 39l33 90l-3 1c-71 -88 -173 -157 -220 -157c-28 0 -44 28 -44 56
c0 23 22 103 88 194c48 66 91 106 132 129c39 22 64 29 90 29c11 0 18 -3 24 -6c4 -2 15 -11 20 -21zM299 356c-24 0 -40 -11 -71 -39c-64 -57 -125 -188 -125 -259c0 -12 6 -19 15 -19c10 0 40 13 97 65c76 71 118 157 134 216c-7 19 -24 36 -50 36zM389 631l38 -162
c-3 -7 -12 -12 -21 -10l-42 92c-5 11 -7 13 -9 13c-3 0 -8 -3 -16 -11l-93 -96c-8 -1 -17 5 -17 14l122 164c8 10 15 15 21 15c7 0 14 -7 17 -19z" />
    <glyph glyph-name="adieresis" unicode="&#xe4;" horiz-adv-x="444" 
d="M374 367l28 64c17 8 43 -2 49 -15c-15 -37 -102 -258 -134 -349c-6 -17 -1 -23 7 -23c17 0 46 17 103 67c7 0 14 -5 14 -13c-42 -56 -113 -112 -168 -112c-23 0 -29 19 -29 27c0 7 2 16 10 39l33 90l-3 1c-71 -88 -173 -157 -220 -157c-28 0 -44 28 -44 56
c0 23 22 103 88 194c48 66 91 106 132 129c39 22 64 29 90 29c11 0 18 -3 24 -6c4 -2 15 -11 20 -21zM299 356c-24 0 -40 -11 -71 -39c-64 -57 -125 -188 -125 -259c0 -12 6 -19 15 -19c10 0 40 13 97 65c76 71 118 157 134 216c-7 19 -24 36 -50 36zM265 509
c-23 0 -37 15 -37 38c0 32 23 54 48 54c24 0 37 -19 37 -38c0 -35 -24 -54 -48 -54zM420 509c-23 0 -37 15 -37 38c0 32 24 54 48 54s37 -19 37 -38c0 -35 -24 -54 -48 -54z" />
    <glyph glyph-name="agrave" unicode="&#xe0;" horiz-adv-x="444" 
d="M374 367l28 64c17 8 43 -2 49 -15c-15 -37 -102 -258 -134 -349c-6 -17 -1 -23 7 -23c17 0 46 17 103 67c7 0 14 -5 14 -13c-42 -56 -113 -112 -168 -112c-23 0 -29 19 -29 27c0 7 2 16 10 39l33 90l-3 1c-71 -88 -173 -157 -220 -157c-28 0 -44 28 -44 56
c0 23 22 103 88 194c48 66 91 106 132 129c39 22 64 29 90 29c11 0 18 -3 24 -6c4 -2 15 -11 20 -21zM299 356c-24 0 -40 -11 -71 -39c-64 -57 -125 -188 -125 -259c0 -12 6 -19 15 -19c10 0 40 13 97 65c76 71 118 157 134 216c-7 19 -24 36 -50 36zM301 618l52 -155
c0 -8 -12 -12 -18 -11l-87 124c-9 13 -14 22 -14 28c0 7 5 15 17 23c14 10 24 13 31 13c10 0 15 -10 19 -22z" />
    <glyph glyph-name="aring" unicode="&#xe5;" horiz-adv-x="444" 
d="M374 367l28 64c17 8 43 -2 49 -15c-15 -37 -102 -258 -134 -349c-6 -17 -1 -23 7 -23c17 0 46 17 103 67c7 0 14 -5 14 -13c-42 -56 -113 -112 -168 -112c-23 0 -29 19 -29 27c0 7 2 16 10 39l33 90l-3 1c-71 -88 -173 -157 -220 -157c-28 0 -44 28 -44 56
c0 23 22 103 88 194c48 66 91 106 132 129c39 22 64 29 90 29c11 0 18 -3 24 -6c4 -2 15 -11 20 -21zM299 356c-24 0 -40 -11 -71 -39c-64 -57 -125 -188 -125 -259c0 -12 6 -19 15 -19c10 0 40 13 97 65c76 71 118 157 134 216c-7 19 -24 36 -50 36zM350 638
c50 0 85 -39 85 -81c0 -43 -35 -81 -85 -81s-85 38 -85 81c0 42 35 81 85 81zM305 557c0 -31 20 -53 45 -53c26 0 45 22 45 53c0 30 -19 52 -45 52c-25 0 -45 -22 -45 -52z" />
    <glyph glyph-name="atilde" unicode="&#xe3;" horiz-adv-x="444" 
d="M374 367l28 64c17 8 43 -2 49 -15c-15 -37 -102 -258 -134 -349c-6 -17 -1 -23 7 -23c17 0 46 17 103 67c7 0 14 -5 14 -13c-42 -56 -113 -112 -168 -112c-23 0 -29 19 -29 27c0 7 2 16 10 39l33 90l-3 1c-71 -88 -173 -157 -220 -157c-28 0 -44 28 -44 56
c0 23 22 103 88 194c48 66 91 106 132 129c39 22 64 29 90 29c11 0 18 -3 24 -6c4 -2 15 -11 20 -21zM299 356c-24 0 -40 -11 -71 -39c-64 -57 -125 -188 -125 -259c0 -12 6 -19 15 -19c10 0 40 13 97 65c76 71 118 157 134 216c-7 19 -24 36 -50 36zM327 568h50
c38 0 48 4 70 35c5 3 13 2 16 -4c-6 -24 -22 -54 -35 -67c-13 -12 -25 -15 -45 -15h-49c-41 0 -58 -15 -76 -48c-5 -3 -12 -2 -15 4c3 15 19 60 34 74c14 16 28 21 50 21z" />
    <glyph glyph-name="ccedilla" unicode="&#xe7;" horiz-adv-x="338" 
d="M69 -93l58 80c-3 -1 -5 -1 -7 -1c-39 0 -75 29 -75 106c0 65 39 179 127 258c42 38 85 58 130 58c50 0 74 -28 74 -59c0 -40 -39 -47 -49 -47s-18 6 -20 18c-3 25 -2 55 -35 55c-22 0 -53 -21 -84 -67c-33 -49 -64 -130 -67 -207c-2 -50 19 -65 43 -65c33 0 70 26 108 61
c10 1 16 -7 13 -17c-29 -38 -72 -72 -119 -86l-32 -43c-8 -10 -5 -18 5 -26c22 -18 37 -38 37 -65c0 -43 -54 -77 -102 -77c-34 0 -50 14 -50 32c0 10 9 24 25 24c9 0 17 -7 24 -14c8 -8 15 -15 21 -15c11 0 28 7 28 31s-22 48 -53 62v4z" />
    <glyph glyph-name="eacute" unicode="&#xe9;" horiz-adv-x="346" 
d="M313 408c40 0 63 -34 63 -60c0 -76 -99 -126 -243 -166c-7 -17 -14 -49 -14 -89c0 -34 21 -57 48 -57c36 0 61 20 105 58c9 0 15 -8 13 -17c-61 -75 -118 -91 -160 -91c-60 0 -81 56 -81 105c0 63 40 185 149 269c52 40 91 48 120 48zM293 377c-14 0 -40 -9 -76 -48
c-39 -42 -62 -88 -74 -117c66 20 97 39 134 74c31 29 39 59 39 68c0 10 -5 23 -23 23zM403 567l-126 -111c-7 0 -16 6 -16 13l94 143c7 11 15 21 24 20c7 0 17 -4 28 -15c9 -9 14 -19 13 -26c0 -6 -6 -15 -17 -24z" />
    <glyph glyph-name="ecircumflex" unicode="&#xea;" horiz-adv-x="346" 
d="M313 408c40 0 63 -34 63 -60c0 -76 -99 -126 -243 -166c-7 -17 -14 -49 -14 -89c0 -34 21 -57 48 -57c36 0 61 20 105 58c9 0 15 -8 13 -17c-61 -75 -118 -91 -160 -91c-60 0 -81 56 -81 105c0 63 40 185 149 269c52 40 91 48 120 48zM293 377c-14 0 -40 -9 -76 -48
c-39 -42 -62 -88 -74 -117c66 20 97 39 134 74c31 29 39 59 39 68c0 10 -5 23 -23 23zM352 631l38 -162c-3 -7 -12 -12 -21 -10l-42 92c-5 11 -7 13 -9 13c-3 0 -8 -3 -16 -11l-93 -96c-8 -1 -17 5 -17 14l122 164c8 10 15 15 21 15c7 0 14 -7 17 -19z" />
    <glyph glyph-name="edieresis" unicode="&#xeb;" horiz-adv-x="346" 
d="M313 408c40 0 63 -34 63 -60c0 -76 -99 -126 -243 -166c-7 -17 -14 -49 -14 -89c0 -34 21 -57 48 -57c36 0 61 20 105 58c9 0 15 -8 13 -17c-61 -75 -118 -91 -160 -91c-60 0 -81 56 -81 105c0 63 40 185 149 269c52 40 91 48 120 48zM293 377c-14 0 -40 -9 -76 -48
c-39 -42 -62 -88 -74 -117c66 20 97 39 134 74c31 29 39 59 39 68c0 10 -5 23 -23 23zM217 508c-23 0 -37 15 -37 38c0 32 23 54 48 54c24 0 37 -19 37 -38c0 -35 -24 -54 -48 -54zM372 508c-23 0 -37 15 -37 38c0 32 24 54 48 54s37 -19 37 -38c0 -35 -24 -54 -48 -54z" />
    <glyph glyph-name="egrave" unicode="&#xe8;" horiz-adv-x="346" 
d="M313 408c40 0 63 -34 63 -60c0 -76 -99 -126 -243 -166c-7 -17 -14 -49 -14 -89c0 -34 21 -57 48 -57c36 0 61 20 105 58c9 0 15 -8 13 -17c-61 -75 -118 -91 -160 -91c-60 0 -81 56 -81 105c0 63 40 185 149 269c52 40 91 48 120 48zM293 377c-14 0 -40 -9 -76 -48
c-39 -42 -62 -88 -74 -117c66 20 97 39 134 74c31 29 39 59 39 68c0 10 -5 23 -23 23zM271 621l51 -157c0 -8 -12 -12 -18 -11l-86 126c-9 13 -14 22 -14 28c0 7 5 15 17 23c14 10 24 13 31 13c10 0 15 -10 19 -22z" />
    <glyph glyph-name="iacute" unicode="&#xed;" horiz-adv-x="278" 
d="M52 22l127 303c5 11 5 19 -2 19s-33 -12 -83 -53c-9 1 -15 9 -13 17c55 63 132 100 165 100c7 0 12 -6 16 -10c6 -5 6 -15 -6 -44l-119 -284c-4 -10 -5 -22 3 -22c17 0 70 35 104 74c10 -1 15 -8 15 -17c-15 -29 -118 -119 -187 -119c-5 0 -11 3 -16 9c-6 7 -9 16 -4 27z
M359 566l-126 -111c-7 0 -16 6 -16 13l94 143c7 11 15 21 24 20c7 0 17 -4 28 -15c9 -9 14 -19 13 -26c0 -6 -6 -15 -17 -24z" />
    <glyph glyph-name="icircumflex" unicode="&#xee;" horiz-adv-x="278" 
d="M52 22l127 303c5 11 5 19 -2 19s-33 -12 -83 -53c-9 1 -15 9 -13 17c55 63 132 100 165 100c7 0 12 -6 16 -10c6 -5 6 -15 -6 -44l-119 -284c-4 -10 -5 -22 3 -22c17 0 70 35 104 74c10 -1 15 -8 15 -17c-15 -29 -118 -119 -187 -119c-5 0 -11 3 -16 9c-6 7 -9 16 -4 27z
M297 628l38 -162c-3 -7 -12 -12 -21 -10l-42 92c-5 11 -7 13 -9 13c-3 0 -8 -3 -16 -11l-93 -96c-8 -1 -17 5 -17 14l122 164c8 10 15 15 21 15c7 0 14 -7 17 -19z" />
    <glyph glyph-name="idieresis" unicode="&#xef;" horiz-adv-x="278" 
d="M52 22l127 303c5 11 5 19 -2 19s-33 -12 -83 -53c-9 1 -15 9 -13 17c55 63 132 100 165 100c7 0 12 -6 16 -10c6 -5 6 -15 -6 -44l-119 -284c-4 -10 -5 -22 3 -22c17 0 70 35 104 74c10 -1 15 -8 15 -17c-15 -29 -118 -119 -187 -119c-5 0 -11 3 -16 9c-6 7 -9 16 -4 27z
M187 508c-23 0 -37 15 -37 38c0 32 23 54 48 54c24 0 37 -19 37 -38c0 -35 -24 -54 -48 -54zM342 508c-23 0 -37 15 -37 38c0 32 24 54 48 54s37 -19 37 -38c0 -35 -24 -54 -48 -54z" />
    <glyph glyph-name="igrave" unicode="&#xec;" horiz-adv-x="278" 
d="M52 22l127 303c5 11 5 19 -2 19s-33 -12 -83 -53c-9 1 -15 9 -13 17c55 63 132 100 165 100c7 0 12 -6 16 -10c6 -5 6 -15 -6 -44l-119 -284c-4 -10 -5 -22 3 -22c17 0 70 35 104 74c10 -1 15 -8 15 -17c-15 -29 -118 -119 -187 -119c-5 0 -11 3 -16 9c-6 7 -9 16 -4 27z
M223 618l46 -157c0 -8 -12 -12 -18 -11l-81 126c-9 13 -14 22 -14 28c0 7 5 15 17 23c14 10 24 13 31 13c10 0 15 -10 19 -22z" />
    <glyph glyph-name="ntilde" unicode="&#xf1;" horiz-adv-x="501" 
d="M245 367l-68 -175l3 -2c71 108 170 218 245 218c39 0 56 -21 56 -54c0 -16 -8 -47 -16 -70c-18 -50 -90 -213 -93 -221c-4 -10 -5 -19 2 -19c17 0 65 33 94 68c14 2 16 -6 16 -14c-38 -64 -117 -112 -172 -112c-9 0 -24 13 -24 25c0 9 3 16 24 66c21 49 58 147 81 197
c8 18 21 53 21 73c0 12 -1 24 -16 24c-24 0 -83 -50 -138 -119c-53 -66 -94 -144 -153 -254c-5 -9 -9 -12 -18 -12c-11 0 -38 3 -29 26c5 13 111 301 116 315c5 13 5 23 -3 23c-23 0 -58 -21 -91 -50c-8 0 -13 7 -12 15c38 52 99 93 149 93c24 0 35 -18 26 -41zM337 573h50
c38 0 48 4 70 35c5 3 13 2 16 -4c-6 -24 -22 -54 -35 -67c-13 -12 -25 -15 -45 -15h-49c-41 0 -58 -15 -76 -48c-5 -3 -12 -2 -15 4c3 15 19 60 34 74c14 16 28 21 50 21z" />
    <glyph glyph-name="oacute" unicode="&#xf3;" horiz-adv-x="406" 
d="M294 408c71 0 106 -53 102 -126c-3 -55 -32 -151 -106 -227c-62 -64 -116 -69 -143 -69c-64 0 -106 47 -100 133c4 62 41 159 109 224c52 50 97 65 138 65zM287 378c-20 0 -44 -9 -73 -48c-58 -78 -97 -197 -100 -250c-2 -35 12 -64 41 -64c22 0 47 9 79 52
c44 59 91 191 93 244c1 31 -5 66 -40 66zM415 563l-126 -111c-7 0 -16 6 -16 13l94 143c7 11 15 21 24 20c7 0 17 -4 28 -15c9 -9 14 -19 13 -26c0 -6 -6 -15 -17 -24z" />
    <glyph glyph-name="ocircumflex" unicode="&#xf4;" horiz-adv-x="406" 
d="M294 408c71 0 106 -53 102 -126c-3 -55 -32 -151 -106 -227c-62 -64 -116 -69 -143 -69c-64 0 -106 47 -100 133c4 62 41 159 109 224c52 50 97 65 138 65zM287 378c-20 0 -44 -9 -73 -48c-58 -78 -97 -197 -100 -250c-2 -35 12 -64 41 -64c22 0 47 9 79 52
c44 59 91 191 93 244c1 31 -5 66 -40 66zM356 631l38 -162c-3 -7 -12 -12 -21 -10l-39 97c-4 11 -7 13 -9 13c-3 0 -8 -3 -16 -11l-96 -101c-8 -1 -17 5 -17 14l122 164c8 10 15 15 21 15c7 0 14 -7 17 -19z" />
    <glyph glyph-name="odieresis" unicode="&#xf6;" horiz-adv-x="406" 
d="M294 408c71 0 106 -53 102 -126c-3 -55 -32 -151 -106 -227c-62 -64 -116 -69 -143 -69c-64 0 -106 47 -100 133c4 62 41 159 109 224c52 50 97 65 138 65zM287 378c-20 0 -44 -9 -73 -48c-58 -78 -97 -197 -100 -250c-2 -35 12 -64 41 -64c22 0 47 9 79 52
c44 59 91 191 93 244c1 31 -5 66 -40 66zM245 509c-23 0 -37 15 -37 38c0 32 23 54 48 54c24 0 37 -19 37 -38c0 -35 -24 -54 -48 -54zM400 509c-23 0 -37 15 -37 38c0 32 24 54 48 54s37 -19 37 -38c0 -35 -24 -54 -48 -54z" />
    <glyph glyph-name="ograve" unicode="&#xf2;" horiz-adv-x="406" 
d="M294 408c71 0 106 -53 102 -126c-3 -55 -32 -151 -106 -227c-62 -64 -116 -69 -143 -69c-64 0 -106 47 -100 133c4 62 41 159 109 224c52 50 97 65 138 65zM287 378c-20 0 -44 -9 -73 -48c-58 -78 -97 -197 -100 -250c-2 -35 12 -64 41 -64c22 0 47 9 79 52
c44 59 91 191 93 244c1 31 -5 66 -40 66zM282 618l49 -155c0 -8 -12 -12 -18 -11l-84 124c-9 13 -14 22 -14 28c0 7 5 15 17 23c14 10 24 13 31 13c10 0 15 -10 19 -22z" />
    <glyph glyph-name="otilde" unicode="&#xf5;" horiz-adv-x="406" 
d="M294 408c71 0 106 -53 102 -126c-3 -55 -32 -151 -106 -227c-62 -64 -116 -69 -143 -69c-64 0 -106 47 -100 133c4 62 41 159 109 224c52 50 97 65 138 65zM287 378c-20 0 -44 -9 -73 -48c-58 -78 -97 -197 -100 -250c-2 -35 12 -64 41 -64c22 0 47 9 79 52
c44 59 91 191 93 244c1 31 -5 66 -40 66zM301 573h50c38 0 48 4 70 35c5 3 13 2 16 -4c-6 -24 -22 -54 -35 -67c-13 -12 -25 -15 -45 -15h-49c-41 0 -58 -15 -76 -48c-5 -3 -12 -2 -15 4c3 15 19 60 34 74c14 16 28 21 50 21z" />
    <glyph glyph-name="scaron" unicode="&#x161;" horiz-adv-x="262" 
d="M225 408c37 0 60 -32 60 -57c0 -16 -10 -27 -18 -31c-7 -2 -13 0 -19 8c-17 17 -30 32 -61 32c-29 0 -41 -25 -41 -40c0 -21 5 -42 34 -91c25 -42 40 -67 38 -111c-1 -27 -15 -64 -52 -96c-26 -23 -63 -36 -101 -36s-61 30 -61 53c0 10 4 21 15 33c8 7 19 7 27 0
c13 -15 43 -40 69 -40c24 0 48 25 48 57c0 17 -12 48 -37 88c-26 42 -35 76 -35 93c0 39 17 68 60 105c29 25 61 33 74 33zM196 472l-35 162c2 7 11 12 20 10l43 -87c6 -12 7 -15 10 -15c4 0 9 4 16 12l91 92c7 2 17 -5 17 -14l-125 -164c-8 -10 -17 -15 -23 -15
c-7 0 -11 7 -14 19z" />
    <glyph glyph-name="uacute" unicode="&#xfa;" horiz-adv-x="496" 
d="M261 378l-112 -292c-9 -24 -4 -34 7 -34c15 0 55 32 107 83c91 90 143 206 176 267c21 4 45 -6 49 -18c-10 -27 -75 -191 -117 -310c-5 -13 -6 -25 4 -25c19 0 72 47 98 78c9 2 17 -2 18 -14c-26 -48 -122 -127 -175 -127c-16 0 -31 19 -25 35l68 183l-2 1
c-72 -91 -196 -219 -250 -219c-41 0 -46 41 -29 85l92 243c7 19 8 29 0 29c-19 0 -71 -44 -95 -69c-10 -2 -18 6 -17 15c26 40 126 119 173 119c13 0 36 -13 30 -30zM464 563l-126 -111c-7 0 -16 6 -16 13l94 143c7 11 15 21 24 20c7 0 17 -4 28 -15c9 -9 14 -19 13 -26
c0 -6 -6 -15 -17 -24z" />
    <glyph glyph-name="ucircumflex" unicode="&#xfb;" horiz-adv-x="496" 
d="M261 378l-112 -292c-9 -24 -4 -34 7 -34c15 0 55 32 107 83c91 90 143 206 176 267c21 4 45 -6 49 -18c-10 -27 -75 -191 -117 -310c-5 -13 -6 -25 4 -25c19 0 72 47 98 78c9 2 17 -2 18 -14c-26 -48 -122 -127 -175 -127c-16 0 -31 19 -25 35l68 183l-2 1
c-72 -91 -196 -219 -250 -219c-41 0 -46 41 -29 85l92 243c7 19 8 29 0 29c-19 0 -71 -44 -95 -69c-10 -2 -18 6 -17 15c26 40 126 119 173 119c13 0 36 -13 30 -30zM412 634l38 -162c-3 -7 -12 -12 -21 -10l-42 92c-5 11 -7 13 -9 13c-3 0 -8 -3 -16 -11l-93 -96
c-8 -1 -17 5 -17 14l122 164c8 10 15 15 21 15c7 0 14 -7 17 -19z" />
    <glyph glyph-name="udieresis" unicode="&#xfc;" horiz-adv-x="496" 
d="M261 378l-112 -292c-9 -24 -4 -34 7 -34c15 0 55 32 107 83c91 90 143 206 176 267c21 4 45 -6 49 -18c-10 -27 -75 -191 -117 -310c-5 -13 -6 -25 4 -25c19 0 72 47 98 78c9 2 17 -2 18 -14c-26 -48 -122 -127 -175 -127c-16 0 -31 19 -25 35l68 183l-2 1
c-72 -91 -196 -219 -250 -219c-41 0 -46 41 -29 85l92 243c7 19 8 29 0 29c-19 0 -71 -44 -95 -69c-10 -2 -18 6 -17 15c26 40 126 119 173 119c13 0 36 -13 30 -30zM281 508c-23 0 -37 15 -37 38c0 32 23 54 48 54c24 0 37 -19 37 -38c0 -35 -24 -54 -48 -54zM436 508
c-23 0 -37 15 -37 38c0 32 24 54 48 54s37 -19 37 -38c0 -35 -24 -54 -48 -54z" />
    <glyph glyph-name="ugrave" unicode="&#xf9;" horiz-adv-x="496" 
d="M261 378l-112 -292c-9 -24 -4 -34 7 -34c15 0 55 32 107 83c91 90 143 206 176 267c21 4 45 -6 49 -18c-10 -27 -75 -191 -117 -310c-5 -13 -6 -25 4 -25c19 0 72 47 98 78c9 2 17 -2 18 -14c-26 -48 -122 -127 -175 -127c-16 0 -31 19 -25 35l68 183l-2 1
c-72 -91 -196 -219 -250 -219c-41 0 -46 41 -29 85l92 243c7 19 8 29 0 29c-19 0 -71 -44 -95 -69c-10 -2 -18 6 -17 15c26 40 126 119 173 119c13 0 36 -13 30 -30zM323 618l51 -156c0 -8 -12 -12 -18 -11l-86 125c-9 13 -14 22 -14 28c0 7 5 15 17 23c14 10 24 13 31 13
c10 0 15 -10 19 -22z" />
    <glyph glyph-name="yacute" unicode="&#xfd;" horiz-adv-x="366" 
d="M157 408c51 0 59 -100 61 -170c1 -64 -1 -137 -15 -220h4c33 49 62 111 84 172c21 58 36 159 37 185c2 29 17 31 24 31s20 -4 28 -9c6 -4 9 -9 9 -20c1 -25 -26 -154 -116 -305c-49 -83 -85 -149 -165 -240c-74 -85 -124 -101 -156 -101s-52 21 -52 46s18 43 40 43
c10 0 20 -6 27 -16c3 -5 12 -18 28 -18c13 0 31 8 55 28c25 21 69 84 88 150c14 51 21 143 20 228c-2 111 -19 150 -38 150c-20 0 -37 -34 -58 -76c-11 -3 -17 4 -19 13c21 67 65 129 114 129zM385 563l-126 -111c-7 0 -16 6 -16 13l94 143c7 11 15 21 24 20
c7 0 17 -4 28 -15c9 -9 14 -19 13 -26c0 -6 -6 -15 -17 -24z" />
    <glyph glyph-name="ydieresis" unicode="&#xff;" horiz-adv-x="366" 
d="M157 408c51 0 59 -100 61 -170c1 -64 -1 -137 -15 -220h4c33 49 62 111 84 172c21 58 36 159 37 185c2 29 17 31 24 31s20 -4 28 -9c6 -4 9 -9 9 -20c1 -25 -26 -154 -116 -305c-49 -83 -85 -149 -165 -240c-74 -85 -124 -101 -156 -101s-52 21 -52 46s18 43 40 43
c10 0 20 -6 27 -16c3 -5 12 -18 28 -18c13 0 31 8 55 28c25 21 69 84 88 150c14 51 21 143 20 228c-2 111 -19 150 -38 150c-20 0 -37 -34 -58 -76c-11 -3 -17 4 -19 13c21 67 65 129 114 129zM195 508c-23 0 -37 15 -37 38c0 32 23 54 48 54c24 0 37 -19 37 -38
c0 -35 -24 -54 -48 -54zM350 508c-23 0 -37 15 -37 38c0 32 24 54 48 54s37 -19 37 -38c0 -35 -24 -54 -48 -54z" />
    <glyph glyph-name="zcaron" unicode="&#x17e;" horiz-adv-x="406" 
d="M2 14c0 14 13 30 58 71c91 82 152 140 243 226c11 11 7 16 -12 22c-46 15 -86 20 -114 20c-37 0 -43 -26 -43 -36c0 -15 8 -30 16 -38c0 -11 -11 -28 -35 -28c-25 0 -37 19 -37 37c0 21 19 48 45 72c37 33 81 40 104 40c20 0 46 -5 64 -10c23 -7 49 -17 73 -17
c35 0 49 23 59 35c15 2 27 -8 25 -20c-55 -51 -201 -175 -326 -303l1 -3c47 2 86 -19 125 -37c22 -10 44 -19 63 -19c21 0 46 18 46 46c0 10 -3 25 -10 48c-8 26 12 30 20 30c28 0 43 -29 43 -51c0 -27 -21 -62 -52 -87c-34 -27 -56 -35 -80 -35c-27 0 -61 16 -82 25
c-38 16 -72 36 -97 36c-34 0 -48 -18 -58 -52c-34 -3 -39 17 -39 28zM265 473l-35 162c2 7 11 12 20 10l43 -87c6 -12 7 -15 10 -15c4 0 9 4 16 12l91 92c7 2 17 -5 17 -14l-125 -164c-8 -10 -17 -15 -23 -15c-7 0 -11 7 -14 19z" />
    <glyph glyph-name="dollaroldstyle" unicode="&#xf724;" horiz-adv-x="410" 
d="M227 254l41 140c-53 0 -96 -25 -96 -74c0 -31 21 -51 55 -66zM239 178l-47 -162c3 -1 5 -1 7 -1c65 0 104 34 104 79c0 38 -22 65 -64 84zM325 474l-15 -54c32 -4 67 -14 88 -34c4 -17 7 -40 1 -83c-3 -9 -19 -9 -23 -2c-7 32 -25 76 -75 89l-44 -149l11 -4
c65 -24 99 -70 99 -120c0 -85 -79 -129 -178 -129h-5l-19 -63c-8 -5 -26 -5 -34 0l19 66c-62 9 -102 39 -113 53c-7 18 -7 63 0 99c5 8 19 8 23 1c5 -45 32 -106 99 -124l50 171c-59 23 -96 56 -96 107c0 73 68 122 163 124l15 52c5 7 26 7 34 0z" />
    <glyph glyph-name="dollarsuperior" unicode="&#xf6e4;" horiz-adv-x="375" 
d="M317 482l-43 -146h2c62 0 98 31 98 71c0 32 -23 59 -57 75zM219 254l17 58c-60 5 -99 31 -109 45c-7 17 -8 64 0 93c5 8 18 8 22 1c4 -46 35 -98 95 -111l46 155l-3 1c-54 18 -88 52 -88 99c0 67 63 112 154 113l15 53c5 9 26 9 32 0l-16 -55c29 -4 60 -13 78 -27
c4 -15 7 -38 1 -78c-2 -8 -17 -8 -22 -2c-5 31 -21 67 -66 78l-40 -136c66 -28 97 -67 97 -113c0 -77 -71 -118 -166 -119l-16 -55c-7 -8 -24 -6 -31 0zM307 553l38 128h-3c-54 0 -88 -25 -88 -66c0 -26 24 -48 53 -62z" />
    <glyph glyph-name="parenleftsuperior" unicode="&#x207d;" horiz-adv-x="240" 
d="M221 430c0 -69 14 -132 39 -175c-2 -7 -10 -10 -18 -7c-52 53 -85 125 -85 204c0 90 38 181 112 244c47 39 94 61 131 72c8 -1 11 -8 9 -16c-34 -17 -79 -46 -113 -91c-53 -71 -75 -149 -75 -231z" />
    <glyph glyph-name="parenrightsuperior" unicode="&#x207e;" horiz-adv-x="240" 
d="M245 583c0 69 -14 132 -39 175c2 7 10 10 18 7c52 -53 85 -125 85 -204c0 -90 -38 -181 -112 -244c-47 -39 -94 -61 -131 -72c-8 1 -11 8 -9 16c34 17 79 46 113 91c53 71 75 149 75 231z" />
    <glyph glyph-name="twodotenleader" unicode="&#x2025;" horiz-adv-x="500" 
d="M105 95c29 0 44 -22 44 -45c0 -40 -28 -64 -57 -64c-28 0 -44 18 -44 47c0 36 28 62 57 62zM354 95c29 0 44 -22 44 -45c0 -40 -28 -64 -57 -64c-28 0 -44 18 -44 47c0 36 28 62 57 62z" />
    <glyph glyph-name="onedotenleader" unicode="&#x2024;" horiz-adv-x="500" 
d="M228 95c29 0 44 -22 44 -45c0 -40 -28 -64 -57 -64c-28 0 -44 18 -44 47c0 36 28 62 57 62z" />
    <glyph glyph-name="zerooldstyle" unicode="&#xf730;" horiz-adv-x="414" 
d="M397 311c0 -98 -45 -192 -94 -250c-51 -59 -100 -75 -138 -75c-79 0 -108 61 -108 126c0 80 31 177 93 249c46 52 94 75 142 75c75 0 105 -68 105 -125zM330 333c0 39 -10 73 -44 73c-21 0 -61 -16 -107 -119c-45 -102 -55 -176 -55 -211c0 -37 17 -60 44 -60
c19 0 45 9 80 60c44 65 82 205 82 257z" />
    <glyph glyph-name="oneoldstyle" unicode="&#xf731;" horiz-adv-x="352" 
d="M241 25l37 -5c5 -8 4 -20 -3 -23c-46 2 -106 3 -143 3c-39 0 -98 -1 -123 -3c-6 3 -8 16 1 23l32 5c67 10 73 19 90 78l64 219c19 65 14 63 -37 75l-22 5c-8 5 -5 20 6 23c18 -2 81 -3 120 -3c40 0 91 1 118 3c9 -5 8 -20 1 -23l-24 -5c-67 -14 -72 -15 -95 -93l-60 -201
c-19 -64 -18 -70 38 -78z" />
    <glyph glyph-name="twooldstyle" unicode="&#xf732;" horiz-adv-x="423" 
d="M220 0h-107c-51 0 -86 -1 -107 -3c-6 3 -9 11 -5 19c98 60 130 81 228 169c68 61 77 96 77 131c0 50 -35 71 -71 71c-52 0 -88 -47 -108 -74c-11 0 -19 8 -18 19c28 44 79 104 160 104s116 -53 116 -102c0 -29 -12 -66 -42 -98c-26 -29 -81 -72 -199 -161
c-10 -7 -7 -17 8 -17h114c43 0 66 15 94 53c11 4 20 0 23 -7c-19 -30 -38 -68 -60 -107c-17 1 -34 2 -51 2c-18 1 -35 1 -52 1z" />
    <glyph glyph-name="threeoldstyle" unicode="&#xf733;" horiz-adv-x="378" 
d="M246 436c68 0 101 -39 101 -80c0 -76 -80 -123 -142 -151c-21 -10 -20 -18 -13 -19c50 -6 109 -40 109 -119c0 -76 -50 -159 -146 -214c-58 -33 -104 -41 -141 -41c-33 0 -40 33 -40 47c0 11 10 11 18 11s43 -12 74 -12c71 0 154 62 154 187c0 92 -52 104 -79 104
c-31 0 -52 -22 -57 -27c-3 -3 -6 -6 -9 -6c-14 4 -18 22 -11 33c43 24 67 38 122 77c58 41 84 84 84 118c0 41 -33 48 -54 48c-20 0 -50 -9 -86 -45c-12 0 -16 11 -13 22c25 31 79 67 129 67z" />
    <glyph glyph-name="fouroldstyle" unicode="&#xf734;" horiz-adv-x="485" 
d="M417 32l-104 -5l-58 -202c-7 -8 -30 -11 -46 -11c-11 0 -21 2 -25 7l62 205l-235 -8c-7 5 -9 12 -8 19l259 254c44 43 104 98 150 145c9 2 16 -2 17 -8l-101 -355l103 4c11 -10 4 -36 -14 -45zM86 66l172 6l77 242l-2 2z" />
    <glyph glyph-name="fiveoldstyle" unicode="&#xf735;" horiz-adv-x="332" 
d="M260 73c0 -144 -152 -248 -275 -271c-9 5 -13 17 -6 26c110 33 212 103 212 202c0 72 -31 114 -81 174c-14 17 -26 37 -24 57c0 21 16 50 36 79c21 31 44 59 62 67c10 4 38 9 82 14c39 5 70 8 95 15l4 -7c-6 -20 -17 -59 -51 -63l-62 -8c-27 -3 -57 -8 -78 -15
c-16 -6 -31 -25 -31 -44c0 -16 19 -44 49 -78c42 -50 68 -96 68 -148z" />
    <glyph glyph-name="sixoldstyle" unicode="&#xf736;" horiz-adv-x="430" 
d="M60 116c0 120 74 274 196 374c109 90 196 118 281 146c13 -4 15 -15 10 -24c-22 -8 -83 -33 -132 -66c-52 -34 -110 -72 -193 -185l1 -2c22 15 52 26 82 26c74 0 109 -52 109 -125c0 -55 -30 -135 -84 -192c-65 -68 -112 -81 -152 -82c-82 -2 -118 61 -118 130zM133 91
c0 -46 19 -74 51 -74c26 0 52 9 90 63c47 67 70 157 70 198c0 43 -24 74 -65 74c-32 0 -64 -19 -92 -57c-30 -41 -54 -121 -54 -204z" />
    <glyph glyph-name="sevenoldstyle" unicode="&#xf737;" horiz-adv-x="414" 
d="M145 422h234c28 0 63 2 73 3c6 -1 9 -6 7 -12c-12 -12 -37 -45 -96 -132l-323 -478c-3 -1 -7 -1 -10 -1c-10 0 -19 9 -20 20l363 537h-171c-58 0 -73 -27 -91 -53c-10 -4 -21 3 -24 11c19 33 41 69 58 105z" />
    <glyph glyph-name="eightoldstyle" unicode="&#xf738;" horiz-adv-x="418" 
d="M303 326c29 -43 68 -103 68 -164c0 -100 -82 -176 -184 -176c-121 0 -140 88 -140 120c0 93 110 161 177 207c-45 63 -60 101 -60 137c0 96 90 171 174 171c74 0 125 -41 125 -111c0 -88 -101 -139 -160 -184zM288 350c75 53 109 98 109 162c0 27 -13 77 -71 77
c-35 0 -95 -25 -95 -113c0 -42 20 -78 57 -126zM241 290c-95 -67 -124 -127 -124 -184c0 -49 32 -87 87 -87c67 0 99 59 99 109c0 58 -22 107 -62 162z" />
    <glyph glyph-name="nineoldstyle" unicode="&#xf739;" horiz-adv-x="412" 
d="M290 436c63 0 108 -41 108 -141c0 -92 -52 -199 -147 -298c-74 -77 -150 -137 -262 -195c-12 2 -17 11 -11 23c107 69 178 138 255 240l-2 2c-20 -10 -33 -15 -59 -15c-58 0 -106 40 -106 124c0 73 44 151 91 197c42 41 89 63 133 63zM283 406c-21 0 -45 -9 -76 -50
c-44 -58 -68 -153 -68 -205c0 -35 20 -70 54 -70c21 0 52 10 78 49c21 32 59 127 59 211c0 42 -19 65 -47 65z" />
    <glyph glyph-name="commasuperior" unicode="&#xf6e2;" horiz-adv-x="175" 
d="M148 343c0 15 -13 28 -33 34c-6 2 -13 11 -13 23c2 21 21 35 45 35c44 0 67 -39 67 -74c0 -68 -79 -117 -144 -135c-9 4 -14 13 -11 22c36 13 89 44 89 95z" />
    <glyph glyph-name="threequartersemdash" unicode="&#xf6de;" horiz-adv-x="750" 
d="M32 230h750l-16 -49h-750z" />
    <glyph glyph-name="periodsuperior" unicode="&#xf6e8;" horiz-adv-x="175" 
d="M160 417c30 0 45 -23 45 -46c0 -39 -28 -63 -57 -63c-28 0 -43 19 -43 47c0 36 26 62 55 62z" />
    <glyph glyph-name="asuperior" unicode="&#xf6e9;" horiz-adv-x="364" 
d="M371 579l22 46c13 5 37 -2 43 -11c-12 -26 -80 -183 -104 -248c-4 -12 0 -17 6 -17c13 0 37 12 78 48c7 0 12 -4 12 -12c-29 -37 -86 -77 -135 -77c-17 0 -22 14 -22 19s2 12 8 28l22 57l-1 -1l-2 2c-51 -56 -127 -105 -166 -105c-27 0 -40 20 -40 40c0 16 17 73 68 138
c37 47 70 75 102 92c30 15 49 20 75 20c15 0 26 -5 34 -19zM314 571c-19 0 -32 -7 -55 -27c-50 -41 -96 -134 -96 -183c0 -8 5 -13 11 -13c8 0 29 9 71 46c44 38 93 110 105 152c-5 13 -16 25 -36 25z" />
    <glyph glyph-name="bsuperior" unicode="&#xf6ea;" horiz-adv-x="404" 
d="M305 684l-79 -192h2c51 70 102 116 161 116c46 0 69 -27 69 -66c0 -47 -37 -109 -100 -165c-65 -56 -122 -69 -151 -69c-46 0 -69 29 -69 64c0 33 18 86 40 142l68 175c14 36 19 49 8 56l-16 10c-4 5 -2 11 2 14c15 5 64 15 101 14l3 -4c-16 -40 -28 -67 -39 -95z
M270 509c-50 -54 -73 -109 -73 -142c0 -23 14 -33 24 -33c12 0 40 11 73 45c49 49 106 139 106 178c0 17 -13 23 -24 23c-19 0 -59 -20 -106 -71z" />
    <glyph glyph-name="centsuperior" unicode="&#xf6e0;" horiz-adv-x="374" 
d="M270 372l87 282c-89 -4 -151 -79 -151 -167c0 -60 21 -99 64 -115zM388 652l-88 -288c4 -1 11 -1 17 -1c41 0 74 15 104 44c8 -2 14 -12 11 -16c-23 -32 -76 -65 -141 -65h-3l-22 -71c-5 -7 -27 -7 -32 0l23 74c-79 12 -114 71 -114 137c0 126 106 211 223 216l16 54
c9 7 25 7 32 0l-17 -54c36 -2 64 -11 75 -16c7 -7 8 -16 8 -28c-1 -20 -13 -37 -16 -37c-5 0 -8 1 -12 6c-13 21 -37 39 -64 45z" />
    <glyph glyph-name="dsuperior" unicode="&#xf6eb;" horiz-adv-x="403" 
d="M312 371l27 70l-2 1c-51 -65 -109 -134 -187 -134c-33 0 -49 23 -49 51c0 52 41 135 104 187c50 41 99 62 139 62c16 0 30 -8 39 -22l40 104c15 40 16 49 3 57l-14 9c-3 3 -2 11 2 14c14 5 68 14 98 13l5 -4c-14 -33 -26 -67 -49 -125c-60 -152 -96 -266 -103 -287
c-3 -9 -2 -16 5 -16c9 0 58 36 82 63c7 0 13 -2 13 -11c-20 -37 -90 -95 -139 -95c-15 0 -24 11 -24 23c0 8 2 20 10 40zM177 417c-24 -45 -24 -58 -24 -67c0 -6 5 -12 12 -12c11 0 50 10 103 60c54 50 87 112 94 137c7 26 -2 47 -21 47c-14 0 -35 -10 -57 -28
c-29 -25 -83 -92 -107 -137z" />
    <glyph glyph-name="esuperior" unicode="&#xf6ec;" horiz-adv-x="286" 
d="M302 608c38 0 61 -23 61 -49c0 -54 -70 -89 -191 -118c-2 -6 -10 -29 -10 -57c0 -22 17 -38 37 -38c28 0 53 14 86 41c7 -2 13 -8 11 -15c-46 -53 -96 -64 -130 -64c-51 0 -68 40 -68 74c0 45 27 133 109 193c38 28 68 33 95 33zM291 582c-13 0 -35 -4 -60 -30
c-29 -30 -44 -63 -51 -84c44 12 76 28 100 51c25 23 30 40 30 47s-8 16 -19 16z" />
    <glyph glyph-name="isuperior" unicode="&#xf6ed;" horiz-adv-x="228" 
d="M116 334l97 215c4 8 4 14 -1 14s-25 -9 -64 -38c-7 1 -12 6 -10 15c42 45 98 68 127 68c12 0 27 -15 19 -32l-95 -208c-3 -7 -4 -16 2 -16c14 0 54 25 81 53c7 -1 11 -6 11 -15c-11 -21 -88 -82 -152 -82c-9 0 -21 12 -15 26zM295 779c21 0 31 -13 31 -31
c0 -28 -19 -52 -47 -52c-22 0 -31 16 -31 31c0 19 12 52 47 52z" />
    <glyph glyph-name="lsuperior" unicode="&#xf6ee;" horiz-adv-x="224" 
d="M290 656l-106 -292c-5 -14 -6 -20 3 -20c17 0 54 35 88 69c8 0 13 -3 13 -13c-20 -36 -66 -92 -141 -92c-23 0 -30 10 -30 21c0 12 4 25 17 61l108 293c17 46 10 53 -1 58l-14 6c-4 3 -4 12 0 14c14 5 62 19 105 22l4 -4c-10 -26 -18 -46 -46 -123z" />
    <glyph glyph-name="msuperior" unicode="&#xf6ef;" horiz-adv-x="595" 
d="M250 608c18 0 27 -13 20 -29l-49 -116l3 -2c51 72 123 147 183 147c58 0 42 -56 26 -89l-23 -46l2 -2c60 78 123 137 176 137c62 0 46 -56 33 -88c-14 -36 -70 -152 -72 -157s-2 -11 3 -11c11 0 48 20 71 45c8 2 14 -5 12 -13c-27 -42 -90 -76 -136 -76
c-11 0 -23 9 -23 18c0 6 2 11 19 46c16 35 47 104 63 140c3 8 33 67 8 67c-20 0 -60 -34 -104 -82c-42 -46 -73 -102 -117 -181c-4 -6 -11 -8 -18 -8c-9 0 -34 2 -27 18c26 62 52 124 79 185c4 9 31 68 6 68c-20 0 -61 -33 -104 -82c-41 -45 -71 -102 -117 -181
c-4 -6 -11 -8 -18 -8c-9 0 -34 2 -27 18c4 9 86 214 90 224s4 17 -4 17c-16 0 -43 -15 -69 -36c-7 0 -12 7 -9 14c28 34 76 63 123 63z" />
    <glyph glyph-name="nsuperior" unicode="&#x207f;" horiz-adv-x="415" 
d="M270 579l-49 -116l3 -2c51 72 123 147 183 147c62 0 46 -56 33 -88c-14 -36 -70 -152 -72 -157s-2 -11 3 -11c11 0 48 20 71 45c8 2 14 -5 12 -13c-27 -42 -90 -76 -136 -76c-11 0 -23 9 -23 18c0 6 2 11 19 46c16 35 47 104 63 140c3 8 33 67 8 67
c-20 0 -61 -33 -104 -82c-41 -45 -71 -102 -117 -181c-4 -6 -11 -8 -18 -8c-9 0 -34 2 -27 18c4 9 86 214 90 224s4 17 -4 17c-16 0 -43 -15 -69 -36c-7 0 -12 7 -9 14c28 34 76 63 123 63c18 0 27 -13 20 -29z" />
    <glyph glyph-name="osuperior" unicode="&#xf6f0;" horiz-adv-x="328" 
d="M307 608c61 0 88 -38 85 -90c-2 -39 -25 -107 -82 -161c-48 -46 -92 -49 -114 -49c-50 0 -89 33 -85 94c3 49 33 115 80 157c41 36 84 49 116 49zM168 375c-1 -22 12 -41 34 -41c14 0 38 5 63 39c43 57 66 129 68 164c1 29 -11 45 -34 45c-17 0 -35 -7 -61 -39
c-37 -46 -69 -131 -70 -168z" />
    <glyph glyph-name="rsuperior" unicode="&#xf6f1;" horiz-adv-x="300" 
d="M227 608c39 0 25 -48 18 -68l-28 -75h4c18 26 54 83 73 105c21 23 40 38 59 38c29 0 33 -24 33 -35c0 -15 -7 -35 -17 -46c-11 -11 -25 -12 -28 3c-3 18 -9 28 -16 28s-16 -7 -28 -21c-42 -52 -86 -134 -128 -221c-3 -5 -7 -8 -13 -8c-9 0 -39 3 -34 18
c10 29 58 155 80 224c2 8 0 15 -7 15c-20 0 -39 -20 -54 -37c-8 -1 -13 3 -13 12c25 38 54 68 99 68z" />
    <glyph glyph-name="ssuperior" unicode="&#xf6f2;" horiz-adv-x="230" 
d="M255 608c32 0 52 -23 52 -41c0 -16 -8 -24 -15 -27c-5 -2 -14 0 -19 5c-14 13 -25 29 -49 29c-25 0 -35 -18 -35 -29c0 -15 6 -30 31 -63c21 -27 38 -47 38 -80c0 -60 -70 -94 -113 -94c-45 0 -70 21 -70 43c0 10 3 18 13 26c8 8 21 5 26 -2c12 -15 38 -35 60 -35
c23 0 37 18 37 41c0 12 -12 34 -36 63c-22 27 -31 49 -31 66c0 28 13 49 49 76c23 17 51 22 62 22z" />
    <glyph glyph-name="tsuperior" unicode="&#xf6f3;" horiz-adv-x="250" 
d="M344 560h-88l-68 -183c-5 -13 -1 -18 5 -18c14 0 63 37 88 64c9 0 14 -8 11 -16c-43 -59 -112 -99 -152 -99c-15 0 -25 11 -25 19c1 9 3 19 11 41l71 192h-59c-4 8 0 19 9 24l61 10l44 70c10 5 31 3 37 -4l-22 -70h84c5 -7 3 -23 -7 -30z" />
    <glyph glyph-name="parenleftinferior" unicode="&#x208d;" horiz-adv-x="240" 
d="M86 -49c0 -69 14 -132 39 -175c-2 -7 -10 -10 -18 -7c-52 53 -85 125 -85 204c0 90 38 181 112 244c47 39 94 61 131 72c8 -1 11 -8 9 -16c-34 -17 -79 -46 -113 -91c-53 -71 -75 -149 -75 -231z" />
    <glyph glyph-name="parenrightinferior" unicode="&#x208e;" horiz-adv-x="240" 
d="M110 104c0 69 -14 132 -39 175c2 7 10 10 18 7c52 -53 85 -125 85 -204c0 -90 -38 -181 -112 -244c-47 -39 -94 -61 -131 -72c-8 1 -11 8 -9 16c34 17 79 46 113 91c53 71 75 149 75 231z" />
    <glyph glyph-name="hyphensuperior" unicode="&#xf6e6;" horiz-adv-x="240" 
d="M151 539h176c11 -8 6 -39 -6 -48h-176c-9 10 -7 40 6 48z" />
    <glyph glyph-name="colonmonetary" unicode="&#x20a1;" horiz-adv-x="620" 
d="M491 595l-210 -545c16 -9 34 -14 54 -17l217 565c-21 1 -40 0 -61 -3zM358 1l-24 -64c-10 -6 -26 -6 -36 0l26 67c-19 2 -39 6 -56 12l-30 -79c-9 -6 -26 -6 -35 0l35 90c-76 31 -130 96 -130 217c0 104 49 204 129 273c59 51 135 88 227 102l30 78c9 7 26 7 35 0
l-27 -72c15 1 29 2 44 2c6 0 12 0 17 -1l27 71c8 7 24 7 34 0l-28 -73c44 -6 80 -19 96 -24c-14 -37 -32 -90 -41 -124c-3 -7 -20 -6 -23 1c13 60 3 99 -44 114l-215 -561c93 0 149 55 192 125c9 3 19 1 21 -7c-8 -24 -26 -72 -58 -127c-40 0 -94 -21 -157 -21
c-3 0 -7 0 -9 1zM253 68l199 520c-48 -14 -101 -41 -154 -93c-43 -43 -103 -149 -103 -268c0 -74 20 -128 58 -159z" />
    <glyph glyph-name="rupiah" unicode="&#xf6dd;" horiz-adv-x="890" 
d="M320 568l-66 -216c-12 -39 -11 -40 35 -40c98 0 196 67 198 171c2 73 -42 114 -121 114c-35 0 -39 -5 -46 -29zM520 21l108 305c-36 -8 -54 -15 -91 -35c-10 1 -14 9 -12 18c33 23 69 39 116 52l28 75c12 10 54 1 57 -13l-19 -57c7 0 17 2 35 2c49 0 133 -18 133 -107
c0 -86 -52 -162 -123 -221c-59 -49 -130 -53 -140 -53c-8 0 -15 2 -28 6c-8 -2 -13 -8 -15 -17l-40 -116c-25 -72 -24 -81 7 -85l38 -5c5 -7 5 -17 -3 -21c-75 0 -145 -4 -208 -6c-6 6 -6 15 0 21l21 4c52 10 56 30 70 69l57 160c-18 -1 -28 -1 -41 -1c-46 0 -72 9 -87 53
c-24 74 -40 129 -55 183c-13 48 -19 53 -46 53c-46 0 -51 -4 -59 -31l-43 -136c-22 -69 -24 -87 25 -93l23 -3c5 -8 2 -21 -4 -25c-40 2 -76 3 -114 3c-39 0 -71 -1 -101 -3c-7 5 -7 18 -1 25l22 3c45 6 55 15 79 93l123 391c22 71 17 80 -15 84l-36 4c-5 8 -4 20 5 23
c54 7 102 8 162 8c180 0 223 -78 220 -158c-3 -97 -91 -156 -167 -167c-13 -2 -17 -6 -10 -32c10 -41 28 -104 45 -154c19 -57 29 -86 84 -96zM699 337l-97 -272c-4 -10 -3 -19 1 -25c6 -7 20 -19 35 -19c12 0 70 10 110 73c44 69 54 135 54 178c0 44 -32 67 -74 67
c-15 0 -19 0 -29 -2z" />
    <glyph glyph-name="centoldstyle" unicode="&#xf7a2;" horiz-adv-x="426" 
d="M208 67l95 304c-97 -1 -167 -92 -167 -185c0 -64 25 -104 72 -119zM336 367l-95 -307c5 -2 12 -2 19 -2c47 0 84 17 113 45c9 0 16 -8 15 -18c-27 -34 -84 -69 -157 -69h-4l-27 -85c-9 -5 -28 -5 -35 0l28 88c-92 14 -131 82 -131 153c0 131 118 222 250 227l21 69
c8 8 24 8 34 0l-21 -69c36 -3 67 -13 83 -24c5 -5 6 -10 6 -16c0 -26 -15 -47 -26 -47c-2 0 -5 2 -7 4c-16 25 -39 43 -66 51z" />
    <glyph glyph-name="figuredash" unicode="&#x2012;" horiz-adv-x="500" 
d="M87 340h450l-14 -49h-450z" />
    <glyph glyph-name="hypheninferior" unicode="&#xf6e5;" horiz-adv-x="240" 
d="M16 60h176c11 -8 6 -39 -6 -48h-176c-9 10 -7 40 6 48z" />
    <glyph glyph-name="oneeighth" unicode="&#x215b;" horiz-adv-x="820" 
d="M683 393c61 0 108 -32 108 -88c-1 -58 -56 -80 -95 -95c36 -24 68 -54 68 -101c0 -71 -71 -116 -153 -116c-75 0 -130 34 -130 96s62 96 118 114c-27 16 -51 44 -51 80c0 58 55 110 135 110zM623 189c-47 -16 -80 -57 -80 -96c0 -50 36 -74 78 -74c44 0 82 31 82 77
c0 45 -37 69 -80 93zM672 224c33 11 63 41 64 82c0 35 -23 61 -62 61c-38 0 -69 -31 -69 -69c0 -33 25 -50 67 -74zM143 -14c188 223 373 445 557 668c12 0 29 -9 29 -25c-188 -223 -374 -446 -559 -669c-18 0 -27 11 -27 26zM176 332l58 195c7 24 9 33 8 38
c1 9 -7 12 -21 14l-30 5c-5 6 -2 14 2 17c57 9 105 25 126 35c5 1 10 -1 11 -6c-7 -20 -14 -38 -24 -71l-67 -228c-15 -51 -15 -61 20 -65l19 -2c5 -4 4 -16 -3 -19c-26 1 -54 2 -95 2c-37 0 -65 -1 -83 -2c-4 3 -4 16 0 19l18 2c41 5 46 15 61 66z" />
    <glyph glyph-name="threeeighths" unicode="&#x215c;" horiz-adv-x="820" 
d="M687 393c61 0 108 -32 108 -88c-1 -58 -56 -80 -95 -95c36 -24 68 -54 68 -101c0 -71 -71 -116 -153 -116c-75 0 -130 34 -130 96s62 96 118 114c-27 16 -51 44 -51 80c0 58 55 110 135 110zM627 189c-47 -16 -80 -57 -80 -96c0 -50 36 -74 78 -74c44 0 82 31 82 77
c0 45 -37 69 -80 93zM676 224c33 11 63 41 64 82c0 35 -23 61 -62 61c-38 0 -69 -31 -69 -69c0 -33 25 -50 67 -74zM172 -14c188 223 373 445 557 668c12 0 29 -9 29 -25c-188 -223 -374 -446 -559 -669c-18 0 -27 11 -27 26zM308 640c52 0 88 -29 88 -69
c0 -44 -58 -71 -97 -84c-7 -6 -2 -8 6 -10c37 -9 79 -37 79 -88c0 -116 -145 -181 -248 -181c-44 0 -73 13 -72 41c0 15 13 30 31 30c15 0 25 -10 34 -27c6 -12 16 -18 30 -18c82 0 151 69 151 147c0 42 -29 69 -70 69c-24 0 -52 -14 -71 -29c-11 5 -16 16 -8 31
c31 12 170 51 170 114c0 29 -24 41 -48 41c-34 0 -73 -27 -97 -59c-9 -1 -15 5 -15 13c26 43 78 79 137 79z" />
    <glyph glyph-name="fiveeighths" unicode="&#x215d;" horiz-adv-x="820" 
d="M690 393c61 0 108 -32 108 -88c-1 -58 -56 -80 -95 -95c36 -24 68 -54 68 -101c0 -71 -71 -116 -153 -116c-75 0 -130 34 -130 96s62 96 118 114c-27 16 -51 44 -51 80c0 58 55 110 135 110zM630 189c-47 -16 -80 -57 -80 -96c0 -50 36 -74 78 -74c44 0 82 31 82 77
c0 45 -37 69 -80 93zM679 224c33 11 63 41 64 82c0 35 -23 61 -62 61c-38 0 -69 -31 -69 -69c0 -33 25 -50 67 -74zM176 -14c188 223 373 445 557 668c12 0 29 -9 29 -25c-188 -223 -374 -446 -559 -669c-18 0 -27 11 -27 26zM387 585l-137 -17c-18 -2 -25 -5 -29 -14
l-12 -25c-4 -8 4 -11 15 -13l15 -3c55 -11 138 -43 138 -128c0 -134 -172 -183 -297 -185c-10 4 -11 21 -3 27c150 3 235 60 235 143c0 68 -80 92 -137 97c-20 2 -19 11 -14 21l53 113c6 12 9 16 22 18l180 21l4 -4c-3 -16 -20 -43 -33 -51z" />
    <glyph glyph-name="seveneighths" unicode="&#x215e;" horiz-adv-x="820" 
d="M689 393c61 0 108 -32 108 -88c-1 -58 -56 -80 -95 -95c36 -24 68 -54 68 -101c0 -71 -71 -116 -153 -116c-75 0 -130 34 -130 96s62 96 118 114c-27 16 -51 44 -51 80c0 58 55 110 135 110zM629 189c-47 -16 -80 -57 -80 -96c0 -50 36 -74 78 -74c44 0 82 31 82 77
c0 45 -37 69 -80 93zM678 224c33 11 63 41 64 82c0 35 -23 61 -62 61c-38 0 -69 -31 -69 -69c0 -33 25 -50 67 -74zM156 -14c188 223 373 445 557 668c12 0 29 -9 29 -25c-188 -223 -374 -446 -559 -669c-18 0 -27 11 -27 26zM258 633h109c37 0 69 0 90 2c3 -1 5 -5 4 -9
c-19 -24 -42 -54 -72 -98l-216 -311c-11 -5 -23 2 -27 14l217 312c10 14 17 27 17 31c0 6 -4 8 -15 8h-117c-46 0 -59 -6 -77 -33c-5 -5 -18 -2 -19 6c16 31 26 57 34 80c21 -1 38 -2 72 -2z" />
    <glyph glyph-name="onethird" unicode="&#x2153;" horiz-adv-x="820" 
d="M147 -14c188 223 373 445 557 668c12 0 29 -9 29 -25c-188 -223 -374 -446 -559 -669c-18 0 -27 11 -27 26zM168 332l58 195c7 24 9 33 8 38c1 9 -7 12 -21 14l-30 5c-5 6 -2 14 2 17c57 9 105 25 126 35c5 1 10 -1 11 -6c-7 -20 -14 -38 -24 -71l-67 -228
c-15 -51 -15 -61 20 -65l19 -2c5 -4 4 -16 -3 -19c-26 1 -54 2 -95 2c-37 0 -65 -1 -83 -2c-4 3 -4 16 0 19l18 2c41 5 46 15 61 66zM685 393c52 0 88 -29 88 -69c0 -44 -58 -71 -97 -84c-7 -6 -2 -8 6 -10c37 -9 79 -37 79 -88c0 -116 -145 -181 -248 -181
c-44 0 -73 13 -72 41c0 15 13 30 31 30c15 0 25 -10 34 -27c6 -12 16 -18 30 -18c82 0 151 69 151 147c0 42 -29 69 -70 69c-24 0 -52 -14 -71 -29c-11 5 -16 16 -8 31c31 12 170 51 170 114c0 29 -24 41 -48 41c-34 0 -73 -27 -97 -59c-9 -1 -15 5 -15 13
c26 43 78 79 137 79z" />
    <glyph glyph-name="twothirds" unicode="&#x2154;" horiz-adv-x="820" 
d="M180 -14c188 223 373 445 557 668c12 0 29 -9 29 -25c-188 -223 -374 -446 -559 -669c-18 0 -27 11 -27 26zM197 295h62c47 0 70 4 91 35c5 4 19 3 22 -3c-16 -26 -31 -57 -43 -82c-32 2 -61 2 -102 2h-86c-26 0 -63 -1 -75 -2c-6 4 -6 10 -3 15c40 24 69 45 125 90
s150 112 150 190c0 36 -26 62 -65 62c-42 0 -77 -37 -94 -58c-7 -3 -15 2 -16 10c28 51 81 86 138 86c64 0 109 -36 109 -94c0 -59 -52 -102 -115 -149l-50 -37c-60 -45 -66 -54 -66 -60c0 -4 5 -5 18 -5zM697 393c52 0 88 -29 88 -69c0 -44 -58 -71 -97 -84
c-7 -6 -2 -8 6 -10c37 -9 79 -37 79 -88c0 -116 -145 -181 -248 -181c-44 0 -73 13 -72 41c0 15 13 30 31 30c15 0 25 -10 34 -27c6 -12 16 -18 30 -18c82 0 151 69 151 147c0 42 -29 69 -70 69c-24 0 -52 -14 -71 -29c-11 5 -16 16 -8 31c31 12 170 51 170 114
c0 29 -24 41 -48 41c-34 0 -73 -27 -97 -59c-9 -1 -15 5 -15 13c26 43 78 79 137 79z" />
    <glyph glyph-name="zerosuperior" unicode="&#x2070;" 
d="M340 708c82 0 112 -63 112 -125c0 -76 -31 -159 -81 -213c-32 -36 -74 -62 -122 -62c-82 0 -113 59 -113 129c0 75 34 156 80 208c32 36 78 63 124 63zM351 454c20 49 35 116 35 169c0 28 -13 59 -46 59c-28 0 -55 -25 -76 -61c-35 -61 -62 -162 -62 -218
c0 -41 13 -69 46 -69c52 0 81 66 103 120z" />
    <glyph glyph-name="foursuperior" unicode="&#x2074;" 
d="M282 429h-157c-5 0 -8 6 -6 12c3 7 8 13 17 21l286 273c9 9 18 12 31 12c10 0 18 -3 18 -8c0 -4 -3 -8 -7 -13l-276 -257c-10 -9 -2 -11 17 -11h86c18 0 20 2 25 16l37 111c2 4 4 9 10 12c10 5 32 11 45 11s11 -8 7 -19l-39 -117c-4 -12 -4 -14 9 -14h42
c6 -5 2 -24 -8 -29h-38c-19 0 -20 -2 -23 -12l-12 -35c-11 -33 -14 -43 17 -47l24 -3c4 -6 1 -16 -4 -19c-19 1 -60 2 -94 2c-23 0 -54 -1 -84 -2c-5 3 -5 13 2 19l24 3c29 4 41 9 54 47l11 33c4 11 5 14 -14 14z" />
    <glyph glyph-name="fivesuperior" unicode="&#x2075;" 
d="M405 653l-137 -17c-18 -2 -25 -5 -29 -14l-12 -25c-5 -10 4 -13 15 -15l15 -3c55 -11 138 -43 138 -127c0 -133 -172 -182 -297 -184c-10 4 -11 21 -3 27c150 3 236 60 236 143c0 70 -81 94 -138 99c-20 2 -18 11 -14 19l53 113c6 12 9 16 22 18l180 21l4 -4
c-3 -16 -20 -43 -33 -51z" />
    <glyph glyph-name="sixsuperior" unicode="&#x2076;" 
d="M491 731c6 -4 7 -13 2 -19c-45 -11 -104 -25 -165 -64c-85 -56 -124 -154 -124 -232c0 -46 21 -82 66 -82c55 0 86 69 86 115c0 50 -27 72 -61 72c-5 0 -17 -1 -28 -4c-7 3 -7 11 -2 16c14 12 43 21 65 21c52 0 95 -37 95 -99c0 -77 -72 -147 -160 -147
c-82 0 -132 45 -132 128c0 80 53 168 139 224c81 53 161 66 219 71z" />
    <glyph glyph-name="sevensuperior" unicode="&#x2077;" 
d="M291 701h109c37 0 69 0 90 2c3 -1 5 -5 4 -9c-19 -24 -42 -54 -72 -98l-216 -311c-11 -5 -23 2 -27 14l217 312c10 14 17 27 17 31c0 6 -4 8 -15 8h-117c-46 0 -59 -6 -77 -33c-5 -5 -18 -2 -19 6c16 31 26 57 34 80c21 -1 38 -2 72 -2z" />
    <glyph glyph-name="eightsuperior" unicode="&#x2078;" 
d="M329 708c61 0 108 -32 108 -88c-1 -58 -56 -80 -95 -95c36 -24 68 -54 68 -101c0 -71 -71 -116 -153 -116c-75 0 -130 34 -130 96s62 96 118 114c-27 16 -51 44 -51 80c0 58 55 110 135 110zM269 504c-47 -16 -80 -57 -80 -96c0 -50 36 -74 78 -74c44 0 82 31 82 77
c0 45 -37 69 -80 93zM318 539c33 11 63 41 64 82c0 35 -23 61 -62 61c-38 0 -69 -31 -69 -69c0 -33 25 -50 67 -74z" />
    <glyph glyph-name="ninesuperior" unicode="&#x2079;" 
d="M170 567c0 70 65 141 154 141c85 0 126 -53 126 -127c0 -46 -16 -94 -52 -144c-54 -77 -151 -133 -273 -149c-8 3 -10 16 -4 22c75 14 142 48 190 106c52 63 71 136 71 190c0 37 -16 76 -63 76c-52 0 -83 -50 -83 -99c0 -40 22 -75 57 -75c12 0 21 1 27 2
c6 -1 7 -12 3 -16c-19 -14 -41 -20 -60 -20c-51 0 -93 37 -93 93z" />
    <glyph glyph-name="zeroinferior" unicode="&#x2080;" 
d="M185 229c82 0 112 -63 112 -125c0 -76 -31 -159 -81 -213c-32 -36 -74 -62 -122 -62c-82 0 -113 59 -113 129c0 75 34 156 80 208c32 36 78 63 124 63zM47 -76c0 -41 13 -69 46 -69c52 0 81 66 103 120c20 49 35 116 35 169c0 28 -12 59 -47 59c-27 0 -54 -25 -75 -61
c-35 -61 -62 -162 -62 -218z" />
    <glyph glyph-name="oneinferior" unicode="&#x2081;" 
d="M125 168l-30 5c-5 6 -2 14 2 17c57 9 105 25 126 35c5 1 10 -1 11 -6c-7 -20 -14 -38 -24 -71l-67 -228c-15 -51 -15 -61 20 -65l19 -2c5 -4 4 -16 -3 -19c-26 1 -54 2 -95 2c-37 0 -65 -1 -83 -2c-4 3 -4 16 0 19l18 2c41 5 46 15 61 66l58 195c7 24 9 33 8 38
c1 9 -7 12 -21 14z" />
    <glyph glyph-name="twoinferior" unicode="&#x2082;" 
d="M75 -116h62c47 0 70 4 91 35c5 4 19 3 22 -3c-16 -26 -31 -57 -43 -82c-32 2 -61 2 -102 2h-86c-26 0 -63 -1 -75 -2c-6 4 -6 10 -3 15c40 24 69 45 125 90s150 112 150 190c0 36 -26 62 -65 62c-42 0 -77 -37 -94 -58c-7 -3 -15 2 -16 10c28 51 81 86 138 86
c64 0 109 -36 109 -94c0 -59 -52 -102 -115 -149l-50 -37c-60 -45 -66 -54 -66 -60c0 -4 5 -5 18 -5z" />
    <glyph glyph-name="threeinferior" unicode="&#x2083;" 
d="M176 229c52 0 88 -29 88 -69c0 -44 -58 -71 -97 -84c-7 -6 -2 -8 6 -10c37 -9 79 -37 79 -88c0 -116 -145 -181 -248 -181c-44 0 -73 13 -72 41c0 15 13 30 31 30c15 0 25 -10 34 -27c6 -12 16 -18 30 -18c82 0 151 69 151 147c0 42 -29 69 -70 69c-24 0 -52 -14 -71 -29
c-11 5 -16 16 -8 31c31 12 170 51 170 114c0 29 -24 41 -48 41c-34 0 -73 -27 -97 -59c-9 -1 -15 5 -15 13c26 43 78 79 137 79z" />
    <glyph glyph-name="fourinferior" unicode="&#x2084;" 
d="M127 -50h-157c-5 0 -8 6 -6 12c3 7 8 13 17 21l286 273c9 9 18 12 31 12c10 0 18 -3 18 -8c0 -4 -3 -8 -7 -13l-276 -257c-10 -9 -2 -11 17 -11h86c18 0 20 2 25 16l37 111c2 4 4 9 10 12c10 5 32 11 45 11s11 -8 7 -19l-39 -117c-4 -12 -4 -14 9 -14h42
c6 -5 2 -24 -8 -29h-38c-19 0 -20 -2 -23 -12l-12 -35c-11 -33 -14 -43 17 -47l24 -3c4 -6 1 -16 -4 -19c-19 1 -60 2 -94 2c-23 0 -54 -1 -84 -2c-5 3 -5 13 2 19l24 3c29 4 41 9 54 47l11 33c4 11 5 14 -14 14z" />
    <glyph glyph-name="fiveinferior" unicode="&#x2085;" 
d="M250 174l-137 -17c-18 -2 -25 -5 -29 -14l-12 -25c-5 -10 4 -13 15 -15l15 -3c55 -11 138 -43 138 -127c0 -133 -172 -182 -297 -184c-10 4 -11 21 -3 27c150 3 236 60 236 143c0 70 -81 94 -138 99c-20 2 -18 11 -14 19l53 113c6 12 9 16 22 18l180 21l4 -4
c-3 -16 -20 -43 -33 -51z" />
    <glyph glyph-name="sixinferior" unicode="&#x2086;" 
d="M336 252c6 -4 7 -13 2 -19c-45 -11 -104 -25 -165 -64c-85 -56 -124 -154 -124 -232c0 -46 21 -82 66 -82c55 0 86 69 86 115c0 50 -27 72 -61 72c-5 0 -17 -1 -28 -4c-7 3 -7 11 -2 16c14 12 43 21 65 21c52 0 95 -37 95 -99c0 -77 -72 -147 -160 -147
c-82 0 -132 45 -132 128c0 80 53 168 139 224c81 53 161 66 219 71z" />
    <glyph glyph-name="seveninferior" unicode="&#x2087;" 
d="M136 222h109c37 0 69 0 90 2c3 -1 5 -5 4 -9c-19 -24 -42 -54 -72 -98l-216 -311c-11 -5 -23 2 -27 14l217 312c10 14 17 27 17 31c0 6 -4 8 -15 8h-117c-46 0 -59 -6 -77 -33c-5 -5 -18 -2 -19 6c16 31 26 57 34 80c21 -1 38 -2 72 -2z" />
    <glyph glyph-name="eightinferior" unicode="&#x2088;" 
d="M174 229c61 0 108 -32 108 -88c-1 -58 -56 -80 -95 -95c36 -24 68 -54 68 -101c0 -71 -71 -116 -153 -116c-75 0 -130 34 -130 96s62 96 118 114c-27 16 -51 44 -51 80c0 58 55 110 135 110zM114 25c-47 -16 -80 -57 -80 -96c0 -50 36 -74 78 -74c44 0 82 31 82 77
c0 45 -37 69 -80 93zM163 60c33 11 63 41 64 82c0 35 -23 61 -62 61c-38 0 -69 -31 -69 -69c0 -33 25 -50 67 -74z" />
    <glyph glyph-name="nineinferior" unicode="&#x2089;" 
d="M15 88c0 70 65 141 154 141c85 0 126 -53 126 -127c0 -46 -16 -94 -52 -144c-54 -77 -151 -133 -273 -149c-8 3 -10 16 -4 22c75 14 142 48 190 106c52 63 71 136 71 190c0 37 -16 76 -63 76c-52 0 -83 -50 -83 -99c0 -40 22 -75 57 -75c12 0 21 1 27 2c6 -1 7 -12 3 -16
c-19 -14 -41 -20 -60 -20c-51 0 -93 37 -93 93z" />
    <glyph glyph-name="centinferior" unicode="&#xf6df;" horiz-adv-x="374" 
d="M135 -107l87 282c-89 -4 -151 -79 -151 -167c0 -60 21 -99 64 -115zM253 173l-88 -288c4 -1 11 -1 17 -1c41 0 74 15 104 44c8 -2 14 -12 11 -16c-23 -32 -76 -65 -141 -65h-3l-22 -71c-5 -7 -27 -7 -32 0l23 74c-79 12 -114 71 -114 137c0 126 106 211 223 216l16 54
c9 7 25 7 32 0l-17 -54c36 -2 64 -11 75 -16c7 -7 8 -16 8 -28c-1 -20 -13 -37 -16 -37c-5 0 -8 1 -12 6c-13 21 -37 39 -64 45z" />
    <glyph glyph-name="dollarinferior" unicode="&#xf6e3;" horiz-adv-x="375" 
d="M182 3l-43 -146h2c62 0 98 31 98 71c0 32 -23 59 -57 75zM84 -225l17 58c-60 5 -99 31 -109 45c-7 17 -8 64 0 93c5 8 18 8 22 1c4 -46 35 -98 95 -111l46 155l-3 1c-54 18 -88 52 -88 99c0 67 63 112 154 113l15 53c5 9 26 9 32 0l-16 -55c29 -4 60 -13 78 -27
c4 -15 7 -38 1 -78c-2 -8 -17 -8 -22 -2c-5 31 -21 67 -66 78l-40 -136c66 -28 97 -67 97 -113c0 -77 -71 -118 -166 -119l-16 -55c-7 -8 -24 -6 -31 0zM172 74l38 128h-3c-54 0 -88 -25 -88 -66c0 -26 24 -48 53 -62z" />
    <glyph glyph-name="periodinferior" unicode="&#xf6e7;" horiz-adv-x="175" 
d="M25 -62c30 0 45 -23 45 -46c0 -39 -28 -63 -57 -63c-28 0 -43 19 -43 47c0 36 26 62 55 62z" />
    <glyph glyph-name="commainferior" unicode="&#xf6e1;" horiz-adv-x="175" 
d="M13 -136c0 15 -13 28 -33 34c-6 2 -13 11 -13 23c2 21 21 35 45 35c44 0 67 -39 67 -74c0 -68 -79 -117 -144 -135c-9 4 -14 13 -11 22c36 13 89 44 89 95z" />
    <glyph glyph-name="commaaccent" unicode="&#xf6c3;" horiz-adv-x="250" 
d="M154 -58c40 0 61 -35 61 -67c0 -70 -72 -112 -129 -123c-5 4 -8 14 -5 21c27 13 77 41 77 83c0 16 -11 29 -28 32c-7 2 -12 10 -12 22c0 19 16 32 36 32z" />
    <glyph glyph-name="Abreve" unicode="&#x102;" horiz-adv-x="596" 
d="M552 25l26 -3c6 -6 3 -21 -4 -25c-31 2 -69 3 -113 3c-46 0 -85 -1 -115 -3c-10 4 -10 21 -1 25l31 3c22 2 35 10 39 16c3 5 8 19 11 62l9 134c2 23 0 26 -21 26h-144c-30 0 -32 -1 -51 -31l-73 -114c-35 -55 -45 -70 -45 -75c0 -6 4 -12 23 -15l37 -6c8 -6 5 -21 -2 -25
c-31 2 -62 3 -102 3c-39 0 -75 -1 -111 -3c-5 6 -4 19 2 25l27 3c30 3 52 18 72 42c29 36 87 116 165 225l176 248c43 60 56 86 60 103c34 5 71 33 73 33c5 0 12 -4 12 -8c0 -17 -5 -60 -10 -147l-20 -378c-6 -111 -5 -112 49 -118zM293 303h126c17 0 19 2 20 20l16 219
c1 14 0 26 -2 26c-3 0 -9 -6 -38 -49l-139 -201c-8 -12 -5 -15 17 -15zM503 715c-66 0 -97 37 -81 114c5 4 17 4 20 0c2 -43 26 -65 70 -65s74 22 92 65c5 4 17 4 20 0c-12 -77 -55 -114 -121 -114z" />
    <glyph glyph-name="Amacron" unicode="&#x100;" horiz-adv-x="596" 
d="M552 25l26 -3c6 -6 3 -21 -4 -25c-31 2 -69 3 -113 3c-46 0 -85 -1 -115 -3c-10 4 -10 21 -1 25l31 3c22 2 35 10 39 16c3 5 8 19 11 62l9 134c2 23 0 26 -21 26h-144c-30 0 -32 -1 -51 -31l-73 -114c-35 -55 -45 -70 -45 -75c0 -6 4 -12 23 -15l37 -6c8 -6 5 -21 -2 -25
c-31 2 -62 3 -102 3c-39 0 -75 -1 -111 -3c-5 6 -4 19 2 25l27 3c30 3 52 18 72 42c29 36 87 116 165 225l176 248c43 60 56 86 60 103c34 5 71 33 73 33c5 0 12 -4 12 -8c0 -17 -5 -60 -10 -147l-20 -378c-6 -111 -5 -112 49 -118zM293 303h126c17 0 19 2 20 20l16 219
c1 14 0 26 -2 26c-3 0 -9 -6 -38 -49l-139 -201c-8 -12 -5 -15 17 -15zM608 722h-191c-9 12 -9 37 0 49h191c10 -12 10 -37 0 -49z" />
    <glyph glyph-name="Aogonek" unicode="&#x104;" horiz-adv-x="596" 
d="M293 303h126c17 0 19 2 20 20l16 219c1 14 0 26 -2 26c-3 0 -9 -6 -38 -49l-139 -201c-8 -12 -5 -15 17 -15zM414 263h-144c-30 0 -32 -1 -51 -31l-73 -114c-35 -55 -45 -70 -45 -75c0 -6 4 -12 23 -15l37 -6c8 -6 5 -21 -2 -25c-31 2 -62 3 -102 3c-39 0 -75 -1 -111 -3
c-5 6 -4 19 2 25l27 3c30 3 52 18 72 42c29 36 87 116 165 225l176 248c43 60 56 86 60 103c34 5 71 33 73 33c5 0 12 -4 12 -8c0 -17 -5 -60 -10 -147l-20 -378c-6 -111 -5 -112 49 -118l26 -3c6 -6 3 -21 -4 -25c-31 2 -69 3 -113 3c-30 -23 -69 -71 -69 -114
c0 -28 20 -47 46 -47c21 0 40 5 58 14c7 -2 8 -7 7 -15c-30 -32 -64 -46 -92 -46c-54 0 -80 30 -80 68c0 63 56 113 90 139c-49 0 -63 -1 -75 -2c-10 4 -10 21 -1 25l31 3c22 2 35 10 39 16c3 5 8 19 11 62l9 134c2 23 0 26 -21 26z" />
    <glyph glyph-name="Cacute" unicode="&#x106;" horiz-adv-x="646" 
d="M581 676c78 0 139 -22 164 -32c-16 -39 -36 -97 -45 -134c-4 -8 -24 -7 -27 1c19 87 -6 134 -109 134c-71 0 -164 -22 -256 -112c-50 -50 -118 -167 -118 -299c0 -142 67 -219 194 -219c104 0 167 61 215 140c10 4 21 2 24 -7c-9 -27 -31 -80 -65 -141
c-22 0 -49 -6 -79 -11c-29 -5 -62 -12 -97 -12c-130 0 -280 59 -280 269c0 116 61 227 143 301c84 76 205 122 336 122zM636 767l-144 -61c-6 2 -12 12 -9 20l122 98c9 8 17 12 23 12s16 -6 23 -19c9 -17 9 -29 6 -35c-3 -5 -10 -10 -21 -15z" />
    <glyph glyph-name="Ccaron" unicode="&#x10c;" horiz-adv-x="646" 
d="M581 676c78 0 139 -22 164 -32c-16 -39 -36 -97 -45 -134c-4 -8 -24 -7 -27 1c19 87 -6 134 -109 134c-71 0 -164 -22 -256 -112c-50 -50 -118 -167 -118 -299c0 -142 67 -219 194 -219c104 0 167 61 215 140c10 4 21 2 24 -7c-9 -27 -31 -80 -65 -141
c-22 0 -49 -6 -79 -11c-29 -5 -62 -12 -97 -12c-130 0 -280 59 -280 269c0 116 61 227 143 301c84 76 205 122 336 122zM709 823l-138 -108c-8 -5 -15 -9 -23 -9c-6 0 -12 3 -17 9l-88 108c-1 8 9 16 16 18l85 -63c8 -6 12 -7 17 -7c4 0 10 2 16 5l123 65c7 0 10 -11 9 -18z
" />
    <glyph glyph-name="Dcaron" unicode="&#x10e;" horiz-adv-x="739" 
d="M133 144l125 405c19 62 12 71 -17 75l-40 5c-6 4 -7 19 0 24c15 2 102 10 186 10c288 0 360 -146 360 -273c0 -130 -63 -238 -158 -303c-113 -77 -243 -90 -334 -90c-30 0 -66 3 -125 3c-41 0 -75 -1 -110 -3c-8 5 -8 19 -1 25l26 3c46 5 57 17 88 119zM347 593
l-149 -479c-18 -59 3 -82 91 -82c289 0 369 243 369 351c0 95 -15 249 -264 249c-31 0 -37 -7 -47 -39zM641 823l-138 -108c-8 -5 -15 -9 -23 -9c-6 0 -12 3 -17 9l-88 108c-1 8 9 16 16 18l85 -63c8 -6 12 -7 17 -7c4 0 10 2 16 5l123 65c7 0 10 -11 9 -18z" />
    <glyph glyph-name="Dcroat" unicode="&#x110;" horiz-adv-x="745" 
d="M90 361h110l58 188c19 62 12 71 -17 75l-40 5c-6 4 -7 19 0 24c15 2 102 10 186 10c288 0 360 -146 360 -273c0 -130 -63 -238 -158 -303c-113 -77 -243 -90 -334 -90c-30 0 -66 3 -125 3c-41 0 -75 -1 -110 -3c-8 5 -8 19 -1 25l26 3c46 5 57 17 88 119l56 182h-107
c-3 12 -1 28 8 35zM412 326h-148l-66 -212c-18 -59 3 -82 91 -82c289 0 369 243 369 351c0 95 -15 249 -264 249c-31 0 -37 -7 -47 -39l-72 -232h146c5 -12 2 -28 -9 -35z" />
    <glyph glyph-name="Ecaron" unicode="&#x11a;" horiz-adv-x="566" 
d="M132 144l116 372c29 94 31 107 -22 118l-20 4c-6 8 -5 21 6 25c18 -1 35 -2 53 -2c18 -1 37 -1 58 -1h189c64 0 111 0 141 3c-7 -17 -31 -97 -41 -133c-4 -8 -22 -7 -25 1c6 52 9 77 -35 89c-23 6 -54 9 -106 9h-59c-26 0 -30 -4 -39 -34l-64 -205c-9 -28 -10 -29 18 -29
h50c95 0 115 6 138 49l16 30c4 7 23 6 25 -2c-7 -17 -23 -60 -34 -97c-12 -38 -21 -75 -26 -97c-6 -8 -21 -7 -25 1v28c0 52 -26 53 -103 53h-50c-28 0 -30 -1 -39 -29l-41 -135c-17 -56 -27 -90 -17 -110c7 -14 26 -21 111 -21c110 0 150 6 213 104c8 5 19 3 23 -6
c-9 -29 -43 -105 -69 -132c-33 1 -71 1 -111 2c-39 0 -80 1 -118 1h-118c-41 0 -75 -1 -119 -3c-8 5 -8 19 -1 25l35 3c48 4 58 17 90 119zM614 823l-138 -108c-8 -5 -15 -9 -23 -9c-6 0 -12 3 -17 9l-88 108c-1 8 9 16 16 18l85 -63c8 -6 12 -7 17 -7c4 0 10 2 16 5l123 65
c7 0 10 -11 9 -18z" />
    <glyph glyph-name="Edotaccent" unicode="&#x116;" horiz-adv-x="566" 
d="M132 144l116 372c29 94 31 107 -22 118l-20 4c-6 8 -5 21 6 25c18 -1 35 -2 53 -2c18 -1 37 -1 58 -1h189c64 0 111 0 141 3c-7 -17 -31 -97 -41 -133c-4 -8 -22 -7 -25 1c6 52 9 77 -35 89c-23 6 -54 9 -106 9h-59c-26 0 -30 -4 -39 -34l-64 -205c-9 -28 -10 -29 18 -29
h50c95 0 115 6 138 49l16 30c4 7 23 6 25 -2c-7 -17 -23 -60 -34 -97c-12 -38 -21 -75 -26 -97c-6 -8 -21 -7 -25 1v28c0 52 -26 53 -103 53h-50c-28 0 -30 -1 -39 -29l-41 -135c-17 -56 -27 -90 -17 -110c7 -14 26 -21 111 -21c110 0 150 6 213 104c8 5 19 3 23 -6
c-9 -29 -43 -105 -69 -132c-33 1 -71 1 -111 2c-39 0 -80 1 -118 1h-118c-41 0 -75 -1 -119 -3c-8 5 -8 19 -1 25l35 3c48 4 58 17 90 119zM461 706c-23 0 -37 15 -37 38c0 31 24 53 48 53s36 -19 36 -38c0 -34 -23 -53 -47 -53z" />
    <glyph glyph-name="Emacron" unicode="&#x112;" horiz-adv-x="566" 
d="M132 144l116 372c29 94 31 107 -22 118l-20 4c-6 8 -5 21 6 25c18 -1 35 -2 53 -2c18 -1 37 -1 58 -1h189c64 0 111 0 141 3c-7 -17 -31 -97 -41 -133c-4 -8 -22 -7 -25 1c6 52 9 77 -35 89c-23 6 -54 9 -106 9h-59c-26 0 -30 -4 -39 -34l-64 -205c-9 -28 -10 -29 18 -29
h50c95 0 115 6 138 49l16 30c4 7 23 6 25 -2c-7 -17 -23 -60 -34 -97c-12 -38 -21 -75 -26 -97c-6 -8 -21 -7 -25 1v28c0 52 -26 53 -103 53h-50c-28 0 -30 -1 -39 -29l-41 -135c-17 -56 -27 -90 -17 -110c7 -14 26 -21 111 -21c110 0 150 6 213 104c8 5 19 3 23 -6
c-9 -29 -43 -105 -69 -132c-33 1 -71 1 -111 2c-39 0 -80 1 -118 1h-118c-41 0 -75 -1 -119 -3c-8 5 -8 19 -1 25l35 3c48 4 58 17 90 119zM558 722h-191c-9 12 -9 37 0 49h191c10 -12 10 -37 0 -49z" />
    <glyph glyph-name="Eogonek" unicode="&#x118;" horiz-adv-x="566" 
d="M245 0h-118c-41 0 -75 -1 -119 -3c-8 5 -8 19 -1 25l35 3c48 4 58 17 90 119l116 372c29 94 31 107 -22 118l-20 4c-6 8 -5 21 6 25c18 -1 35 -2 53 -2c18 -1 37 -1 58 -1h189c64 0 111 0 141 3c-7 -17 -31 -97 -41 -133c-4 -8 -22 -7 -25 1c6 52 9 77 -35 89
c-23 6 -54 9 -106 9h-59c-26 0 -30 -4 -39 -34l-64 -205c-9 -28 -10 -29 18 -29h50c95 0 115 6 138 49l16 30c4 7 23 6 25 -2c-7 -17 -23 -60 -34 -97c-12 -38 -21 -75 -26 -97c-6 -8 -21 -7 -25 1v28c0 52 -26 53 -103 53h-50c-28 0 -30 -1 -39 -29l-41 -135
c-17 -56 -27 -90 -17 -110c7 -14 26 -21 111 -21c110 0 150 6 213 104c8 5 19 3 23 -6c-9 -29 -43 -105 -69 -132h-17c-36 -25 -91 -78 -91 -122c0 -23 15 -37 41 -37c23 0 38 5 51 14c7 -2 8 -7 7 -15c-28 -32 -67 -46 -97 -46c-44 0 -63 30 -63 63c0 58 71 118 115 144
c-16 1 -36 1 -57 1c-39 1 -80 1 -118 1z" />
    <glyph glyph-name="Gbreve" unicode="&#x11e;" horiz-adv-x="703" 
d="M518 90l26 82c23 73 24 87 -36 95l-39 5c-7 6 -6 21 2 25c44 -2 78 -3 120 -3c43 0 90 1 114 3c7 -4 8 -20 -1 -25l-17 -5c-38 -11 -42 -15 -67 -95l-31 -99c-4 -13 -2 -24 8 -30c1 -4 0 -10 -4 -14c-69 -24 -157 -45 -210 -45c-177 0 -282 97 -282 260
c0 97 41 217 144 307c96 84 209 125 348 125c85 0 148 -22 171 -32c-17 -36 -37 -94 -47 -133c-4 -8 -22 -7 -25 1c18 92 -14 133 -111 133c-118 0 -196 -45 -262 -107c-72 -67 -130 -201 -130 -315c0 -159 98 -208 198 -208c70 0 110 10 131 75zM557 715
c-66 0 -97 37 -81 114c5 4 17 4 20 0c2 -43 26 -65 70 -65s74 22 92 65c5 4 17 4 20 0c-12 -77 -55 -114 -121 -114z" />
    <glyph glyph-name="Gcommaaccent" unicode="&#x122;" horiz-adv-x="703" 
d="M518 90l26 82c23 73 24 87 -36 95l-39 5c-7 6 -6 21 2 25c44 -2 78 -3 120 -3c43 0 90 1 114 3c7 -4 8 -20 -1 -25l-17 -5c-38 -11 -42 -15 -67 -95l-31 -99c-4 -13 -2 -24 8 -30c1 -4 0 -10 -4 -14c-69 -24 -157 -45 -210 -45c-177 0 -282 97 -282 260
c0 97 41 217 144 307c96 84 209 125 348 125c85 0 148 -22 171 -32c-17 -36 -37 -94 -47 -133c-4 -8 -22 -7 -25 1c18 92 -14 133 -111 133c-118 0 -196 -45 -262 -107c-72 -67 -130 -201 -130 -315c0 -159 98 -208 198 -208c70 0 110 10 131 75zM316 -58
c40 0 61 -35 61 -67c0 -70 -72 -112 -129 -123c-5 4 -8 14 -5 21c27 13 77 41 77 83c0 16 -11 29 -28 32c-7 2 -12 10 -12 22c0 19 16 32 36 32z" />
    <glyph glyph-name="Imacron" unicode="&#x12a;" horiz-adv-x="341" 
d="M133 144l117 372c30 94 32 109 -23 118l-24 4c-6 8 -5 21 6 25c40 -2 74 -3 116 -3c41 0 72 1 120 3c7 -4 9 -20 0 -25l-27 -4c-58 -9 -62 -19 -93 -118l-117 -372c-29 -93 -32 -114 19 -119l31 -3c6 -7 3 -21 -4 -25c-49 2 -83 3 -126 3c-41 0 -75 -1 -115 -3
c-8 5 -8 19 -1 25l31 3c48 5 58 17 90 119zM447 722h-191c-9 12 -9 37 0 49h191c10 -12 10 -37 0 -49z" />
    <glyph glyph-name="Iogonek" unicode="&#x12e;" horiz-adv-x="341" 
d="M133 144l117 372c30 94 32 109 -23 118l-24 4c-6 8 -5 21 6 25c40 -2 74 -3 116 -3c41 0 72 1 120 3c7 -4 9 -20 0 -25l-27 -4c-58 -9 -62 -19 -93 -118l-117 -372c-29 -93 -32 -114 19 -119l31 -3c6 -7 3 -21 -4 -25c-40 2 -70 3 -102 2c-39 -35 -62 -68 -62 -106
c0 -34 23 -51 55 -51c20 0 44 6 57 13c5 -3 8 -8 8 -17c-35 -34 -68 -47 -106 -47c-46 0 -79 29 -79 72c0 39 24 82 94 137c-38 0 -69 -1 -106 -3c-8 5 -8 19 -1 25l31 3c48 5 58 17 90 119z" />
    <glyph glyph-name="Kcommaaccent" unicode="&#x136;" horiz-adv-x="623" 
d="M133 144l117 372c30 94 32 109 -17 118l-23 4c-6 8 -5 21 6 25c32 -2 66 -3 108 -3c43 0 74 1 119 3c7 -4 8 -20 -3 -25l-20 -4c-59 -12 -63 -19 -95 -118l-42 -132c-7 -22 -6 -28 18 -28c15 0 29 3 43 10c21 12 62 46 105 87l100 95c54 52 65 66 65 74c0 6 -11 9 -24 12
l-19 4c-7 6 -5 22 4 25c33 -2 67 -3 110 -3c49 0 79 2 108 3c9 -5 8 -21 -1 -25l-21 -4c-18 -3 -43 -8 -67 -18c-26 -11 -78 -43 -177 -134l-128 -117c-17 -15 -19 -16 -8 -38l110 -220c27 -55 43 -76 91 -82l26 -3c7 -6 5 -22 -3 -25c-32 2 -75 3 -106 3
c-38 0 -75 -1 -113 -3c-4 8 -5 21 3 25l26 3c34 4 30 14 10 54l-105 206c-21 41 -31 45 -40 45c-19 0 -27 -9 -33 -28l-49 -158c-29 -93 -32 -114 19 -119l28 -3c6 -7 3 -21 -4 -25c-46 2 -81 3 -124 3c-41 0 -74 -1 -114 -3c-8 5 -8 19 -1 25l31 3c48 5 58 17 90 119z
M276 -58c40 0 61 -35 61 -67c0 -70 -72 -112 -129 -123c-5 4 -8 14 -5 21c27 13 77 41 77 83c0 16 -11 29 -28 32c-7 2 -12 10 -12 22c0 19 16 32 36 32z" />
    <glyph glyph-name="Lacute" unicode="&#x139;" horiz-adv-x="546" 
d="M324 516l-110 -354c-34 -110 -41 -131 81 -131c115 0 158 5 219 104c10 3 20 1 22 -6c-11 -34 -46 -105 -64 -132c-37 1 -77 2 -117 2c-40 1 -79 1 -114 1h-116c-41 0 -74 -1 -106 -3c-8 5 -8 19 -1 25l24 3c48 6 58 17 90 119l117 372c30 94 32 109 -23 118l-24 4
c-6 8 -5 21 6 25c39 -1 73 -3 114 -3c43 0 74 2 126 3c7 -4 9 -20 0 -25l-31 -4c-57 -7 -62 -19 -93 -118zM487 767l-144 -61c-6 2 -12 12 -9 20l122 98c9 8 17 12 23 12s16 -6 23 -19c9 -17 9 -29 6 -35c-3 -5 -10 -10 -21 -15z" />
    <glyph glyph-name="Lcaron" unicode="&#x13d;" horiz-adv-x="546" 
d="M324 516l-110 -354c-34 -110 -41 -131 81 -131c115 0 158 5 219 104c10 3 20 1 22 -6c-11 -34 -46 -105 -64 -132c-37 1 -77 2 -117 2c-40 1 -79 1 -114 1h-116c-41 0 -74 -1 -106 -3c-8 5 -8 19 -1 25l24 3c48 6 58 17 90 119l117 372c30 94 32 109 -23 118l-24 4
c-6 8 -5 21 6 25c39 -1 73 -3 114 -3c43 0 74 2 126 3c7 -4 9 -20 0 -25l-31 -4c-57 -7 -62 -19 -93 -118zM536 684c38 0 57 -34 57 -66c0 -64 -71 -110 -122 -123c-5 8 -7 15 -5 21c26 13 71 41 71 83c0 16 -10 27 -24 33c-6 2 -12 8 -12 21c0 18 16 31 35 31z" />
    <glyph glyph-name="Lcommaaccent" unicode="&#x13b;" horiz-adv-x="546" 
d="M324 516l-110 -354c-34 -110 -41 -131 81 -131c115 0 158 5 219 104c10 3 20 1 22 -6c-11 -34 -46 -105 -64 -132c-37 1 -77 2 -117 2c-40 1 -79 1 -114 1h-116c-41 0 -74 -1 -106 -3c-8 5 -8 19 -1 25l24 3c48 6 58 17 90 119l117 372c30 94 32 109 -23 118l-24 4
c-6 8 -5 21 6 25c39 -1 73 -3 114 -3c43 0 74 2 126 3c7 -4 9 -20 0 -25l-31 -4c-57 -7 -62 -19 -93 -118zM252 -58c40 0 61 -35 61 -67c0 -70 -72 -112 -129 -123c-5 4 -8 14 -5 21c27 13 77 41 77 83c0 16 -11 29 -28 32c-7 2 -12 10 -12 22c0 19 16 32 36 32z" />
    <glyph glyph-name="Nacute" unicode="&#x143;" horiz-adv-x="739" 
d="M155 233l79 256c18 58 33 101 33 119c0 14 -9 19 -26 22l-40 8c-8 7 -5 22 5 25c15 -1 30 -1 47 -2c16 0 34 -1 55 -1h62v-14c0 -11 10 -48 49 -145l101 -249c20 -48 37 -91 49 -113c7 0 12 12 17 28l79 251c30 95 48 166 48 185c0 18 -2 25 -25 29l-39 6
c-6 9 -2 21 6 25c35 -2 76 -3 113 -3c38 0 66 1 95 3c5 -4 7 -19 1 -25l-23 -4c-23 -4 -43 -9 -52 -18c-14 -14 -51 -104 -82 -201l-72 -224c-34 -106 -45 -144 -63 -206c-6 -6 -16 -7 -24 -6c-13 40 -27 84 -93 244l-79 192c-27 66 -51 132 -67 165c-5 0 -15 -33 -32 -88
l-78 -260c-21 -69 -38 -149 -42 -166c-8 -33 15 -37 49 -41l23 -3c6 -6 4 -20 -3 -25c-30 2 -68 3 -114 3c-36 0 -74 -1 -105 -3c-6 4 -10 18 -2 25l25 3c12 1 35 6 49 17c17 13 37 64 76 191zM628 767l-144 -61c-6 2 -12 12 -9 20l122 98c9 8 17 12 23 12s16 -6 23 -19
c9 -17 9 -29 6 -35c-3 -5 -10 -10 -21 -15z" />
    <glyph glyph-name="Ncaron" unicode="&#x147;" horiz-adv-x="739" 
d="M155 233l79 256c18 58 33 101 33 119c0 14 -9 19 -26 22l-40 8c-8 7 -5 22 5 25c15 -1 30 -1 47 -2c16 0 34 -1 55 -1h62v-14c0 -11 10 -48 49 -145l101 -249c20 -48 37 -91 49 -113c7 0 12 12 17 28l79 251c30 95 48 166 48 185c0 18 -2 25 -25 29l-39 6
c-6 9 -2 21 6 25c35 -2 76 -3 113 -3c38 0 66 1 95 3c5 -4 7 -19 1 -25l-23 -4c-23 -4 -43 -9 -52 -18c-14 -14 -51 -104 -82 -201l-72 -224c-34 -106 -45 -144 -63 -206c-6 -6 -16 -7 -24 -6c-13 40 -27 84 -93 244l-79 192c-27 66 -51 132 -67 165c-5 0 -15 -33 -32 -88
l-78 -260c-21 -69 -38 -149 -42 -166c-8 -33 15 -37 49 -41l23 -3c6 -6 4 -20 -3 -25c-30 2 -68 3 -114 3c-36 0 -74 -1 -105 -3c-6 4 -10 18 -2 25l25 3c12 1 35 6 49 17c17 13 37 64 76 191zM678 823l-138 -108c-8 -5 -15 -9 -23 -9c-6 0 -12 3 -17 9l-88 108
c-1 8 9 16 16 18l85 -63c8 -6 12 -7 17 -7c4 0 10 2 16 5l123 65c7 0 10 -11 9 -18z" />
    <glyph glyph-name="Ncommaaccent" unicode="&#x145;" horiz-adv-x="739" 
d="M155 233l79 256c18 58 33 101 33 119c0 14 -9 19 -26 22l-40 8c-8 7 -5 22 5 25c15 -1 30 -1 47 -2c16 0 34 -1 55 -1h62v-14c0 -11 10 -48 49 -145l101 -249c20 -48 37 -91 49 -113c7 0 12 12 17 28l79 251c30 95 48 166 48 185c0 18 -2 25 -25 29l-39 6
c-6 9 -2 21 6 25c35 -2 76 -3 113 -3c38 0 66 1 95 3c5 -4 7 -19 1 -25l-23 -4c-23 -4 -43 -9 -52 -18c-14 -14 -51 -104 -82 -201l-72 -224c-34 -106 -45 -144 -63 -206c-6 -6 -16 -7 -24 -6c-13 40 -27 84 -93 244l-79 192c-27 66 -51 132 -67 165c-5 0 -15 -33 -32 -88
l-78 -260c-21 -69 -38 -149 -42 -166c-8 -33 15 -37 49 -41l23 -3c6 -6 4 -20 -3 -25c-30 2 -68 3 -114 3c-36 0 -74 -1 -105 -3c-6 4 -10 18 -2 25l25 3c12 1 35 6 49 17c17 13 37 64 76 191zM324 -58c40 0 61 -35 61 -67c0 -70 -72 -112 -129 -123c-5 4 -8 14 -5 21
c27 13 77 41 77 83c0 16 -11 29 -28 32c-7 2 -12 10 -12 22c0 19 16 32 36 32z" />
    <glyph glyph-name="Ohungarumlaut" unicode="&#x150;" horiz-adv-x="730" 
d="M506 676c131 0 246 -89 237 -274c-5 -111 -56 -234 -135 -309c-61 -58 -145 -109 -262 -109c-170 0 -248 133 -244 261c3 123 54 250 160 340c79 67 163 91 244 91zM502 645c-64 0 -115 -30 -150 -60c-72 -61 -160 -204 -166 -378c-3 -94 35 -192 167 -192
c49 0 105 14 167 80c90 97 135 242 139 351c5 127 -57 199 -157 199zM634 836c6 0 15 -5 25 -12c15 -11 18 -23 12 -30c-4 -4 -10 -11 -19 -19l-73 -69c-9 2 -18 8 -16 16l47 96c7 14 13 18 24 18zM504 836c6 0 18 -6 26 -13c11 -10 15 -18 10 -27c-4 -6 -11 -14 -18 -21
l-73 -69c-9 2 -18 8 -16 16l47 96c7 14 13 18 24 18z" />
    <glyph glyph-name="Omacron" unicode="&#x14c;" horiz-adv-x="730" 
d="M506 676c131 0 246 -89 237 -274c-5 -111 -56 -234 -135 -309c-61 -58 -145 -109 -262 -109c-170 0 -248 133 -244 261c3 123 54 250 160 340c79 67 163 91 244 91zM502 645c-64 0 -115 -30 -150 -60c-72 -61 -160 -204 -166 -378c-3 -94 35 -192 167 -192
c49 0 105 14 167 80c90 97 135 242 139 351c5 127 -57 199 -157 199zM635 722h-191c-9 12 -9 37 0 49h191c10 -12 10 -37 0 -49z" />
    <glyph glyph-name="Racute" unicode="&#x154;" horiz-adv-x="574" 
d="M132 144l117 374c30 95 25 104 -9 108l-38 4c-5 8 -4 21 5 25c57 7 114 8 170 8c96 0 154 -20 189 -52c35 -31 46 -72 46 -114c0 -101 -96 -164 -172 -177c-14 -2 -16 -7 -12 -24c13 -54 32 -120 50 -173c23 -67 34 -97 99 -104c7 -4 2 -16 0 -19c-16 -2 -33 -3 -63 -3
c-48 0 -76 9 -93 59c-25 74 -43 132 -59 194c-12 46 -18 50 -50 50c-52 0 -57 -3 -66 -32l-39 -124c-29 -93 -32 -112 20 -119l24 -3c6 -7 3 -21 -4 -25c-42 2 -80 3 -120 3c-41 0 -75 -1 -106 -3c-8 5 -8 19 -1 25l22 3c48 7 58 17 90 119zM349 600l-70 -229
c-12 -41 -11 -42 40 -42c104 0 208 71 211 181c2 78 -45 122 -131 122c-39 0 -42 -6 -50 -32zM560 767l-144 -61c-6 2 -12 12 -9 20l122 98c9 8 17 12 23 12s16 -6 23 -19c9 -17 9 -29 6 -35c-3 -5 -10 -10 -21 -15z" />
    <glyph glyph-name="Rcaron" unicode="&#x158;" horiz-adv-x="574" 
d="M132 144l117 374c30 95 25 104 -9 108l-38 4c-5 8 -4 21 5 25c57 7 114 8 170 8c96 0 154 -20 189 -52c35 -31 46 -72 46 -114c0 -101 -96 -164 -172 -177c-14 -2 -16 -7 -12 -24c13 -54 32 -120 50 -173c23 -67 34 -97 99 -104c7 -4 2 -16 0 -19c-16 -2 -33 -3 -63 -3
c-48 0 -76 9 -93 59c-25 74 -43 132 -59 194c-12 46 -18 50 -50 50c-52 0 -57 -3 -66 -32l-39 -124c-29 -93 -32 -112 20 -119l24 -3c6 -7 3 -21 -4 -25c-42 2 -80 3 -120 3c-41 0 -75 -1 -106 -3c-8 5 -8 19 -1 25l22 3c48 7 58 17 90 119zM349 600l-70 -229
c-12 -41 -11 -42 40 -42c104 0 208 71 211 181c2 78 -45 122 -131 122c-39 0 -42 -6 -50 -32zM588 823l-138 -108c-8 -5 -15 -9 -23 -9c-6 0 -12 3 -17 9l-88 108c-1 8 9 16 16 18l85 -63c8 -6 12 -7 17 -7c4 0 10 2 16 5l123 65c7 0 10 -11 9 -18z" />
    <glyph glyph-name="Rcommaaccent" unicode="&#x156;" horiz-adv-x="574" 
d="M132 144l117 374c30 95 25 104 -9 108l-38 4c-5 8 -4 21 5 25c57 7 114 8 170 8c96 0 154 -20 189 -52c35 -31 46 -72 46 -114c0 -101 -96 -164 -172 -177c-14 -2 -16 -7 -12 -24c13 -54 32 -120 50 -173c23 -67 34 -97 99 -104c7 -4 2 -16 0 -19c-16 -2 -33 -3 -63 -3
c-48 0 -76 9 -93 59c-25 74 -43 132 -59 194c-12 46 -18 50 -50 50c-52 0 -57 -3 -66 -32l-39 -124c-29 -93 -32 -112 20 -119l24 -3c6 -7 3 -21 -4 -25c-42 2 -80 3 -120 3c-41 0 -75 -1 -106 -3c-8 5 -8 19 -1 25l22 3c48 7 58 17 90 119zM349 600l-70 -229
c-12 -41 -11 -42 40 -42c104 0 208 71 211 181c2 78 -45 122 -131 122c-39 0 -42 -6 -50 -32zM276 -58c40 0 61 -35 61 -67c0 -70 -72 -112 -129 -123c-5 4 -8 14 -5 21c27 13 77 41 77 83c0 16 -11 29 -28 32c-7 2 -12 10 -12 22c0 19 16 32 36 32z" />
    <glyph glyph-name="Sacute" unicode="&#x15a;" horiz-adv-x="471" 
d="M211 -16c-72 0 -141 22 -175 70c-3 36 5 86 18 116c6 5 16 5 21 -2c7 -87 48 -153 148 -153c64 0 146 41 146 141c0 74 -47 115 -100 157c-52 42 -104 102 -104 174c0 109 86 189 219 189c65 0 123 -25 145 -40c-14 -25 -27 -81 -37 -116c-7 -6 -21 -5 -27 1
c14 68 -5 124 -94 124c-91 0 -135 -59 -135 -128c0 -67 61 -116 97 -144c61 -47 108 -100 108 -182c0 -119 -91 -207 -230 -207zM509 767l-144 -61c-6 2 -12 12 -9 20l122 98c9 8 17 12 23 12s16 -6 23 -19c9 -17 9 -29 6 -35c-3 -5 -10 -10 -21 -15z" />
    <glyph glyph-name="Scedilla" unicode="&#x15e;" horiz-adv-x="471" 
d="M156 -83l50 67c-70 1 -137 23 -170 70c-3 36 5 86 18 116c6 5 16 5 21 -2c7 -87 48 -153 148 -153c64 0 146 41 146 141c0 74 -47 115 -100 157c-52 42 -104 102 -104 174c0 109 86 189 219 189c65 0 123 -25 145 -40c-14 -25 -27 -81 -37 -116c-7 -6 -21 -5 -27 1
c14 68 -5 124 -94 124c-91 0 -135 -59 -135 -128c0 -67 61 -116 97 -144c61 -47 108 -100 108 -182c0 -110 -78 -194 -200 -204l-20 -26c-6 -8 -9 -18 1 -26c22 -18 39 -38 39 -61c0 -47 -52 -81 -100 -81c-34 0 -50 14 -50 32c0 10 9 24 25 24c9 0 17 -7 24 -14
c8 -8 15 -15 21 -15c11 0 28 7 28 31s-22 48 -53 62v4z" />
    <glyph glyph-name="Scedilla" unicode="&#xf6c1;" horiz-adv-x="471" 
d="M156 -83l50 67c-70 1 -137 23 -170 70c-3 36 5 86 18 116c6 5 16 5 21 -2c7 -87 48 -153 148 -153c64 0 146 41 146 141c0 74 -47 115 -100 157c-52 42 -104 102 -104 174c0 109 86 189 219 189c65 0 123 -25 145 -40c-14 -25 -27 -81 -37 -116c-7 -6 -21 -5 -27 1
c14 68 -5 124 -94 124c-91 0 -135 -59 -135 -128c0 -67 61 -116 97 -144c61 -47 108 -100 108 -182c0 -110 -78 -194 -200 -204l-20 -26c-6 -8 -9 -18 1 -26c22 -18 39 -38 39 -61c0 -47 -52 -81 -100 -81c-34 0 -50 14 -50 32c0 10 9 24 25 24c9 0 17 -7 24 -14
c8 -8 15 -15 21 -15c11 0 28 7 28 31s-22 48 -53 62v4z" />
    <glyph glyph-name="Scommaaccent" unicode="&#x218;" horiz-adv-x="471" 
d="M211 -16c-72 0 -141 22 -175 70c-3 36 5 86 18 116c6 5 16 5 21 -2c7 -87 48 -153 148 -153c64 0 146 41 146 141c0 74 -47 115 -100 157c-52 42 -104 102 -104 174c0 109 86 189 219 189c65 0 123 -25 145 -40c-14 -25 -27 -81 -37 -116c-7 -6 -21 -5 -27 1
c14 68 -5 124 -94 124c-91 0 -135 -59 -135 -128c0 -67 61 -116 97 -144c61 -47 108 -100 108 -182c0 -119 -91 -207 -230 -207zM175 -58c40 0 61 -35 61 -67c0 -70 -72 -112 -129 -123c-5 4 -8 14 -5 21c27 13 77 41 77 83c0 16 -11 29 -28 32c-7 2 -12 10 -12 22
c0 19 16 32 36 32z" />
    <glyph glyph-name="Tcaron" unicode="&#x164;" horiz-adv-x="634" 
d="M306 660h370c51 0 65 3 85 23c5 2 15 0 17 -5c-20 -34 -51 -115 -57 -142c-4 -7 -18 -7 -23 0c5 79 2 93 -95 93h-61c-32 0 -33 -2 -46 -44l-138 -441c-29 -93 -32 -115 18 -119l37 -3c8 -7 7 -21 -4 -25c-54 2 -89 3 -132 3c-41 0 -75 -1 -122 -3c-8 5 -8 19 -1 25l39 3
c44 3 58 17 90 119l138 441c14 44 11 44 -21 44h-66c-99 0 -120 -24 -168 -90c-10 -4 -21 1 -23 10c25 40 58 102 72 134c4 5 15 5 19 0c-3 -18 11 -23 72 -23zM648 823l-138 -108c-8 -5 -15 -9 -23 -9c-6 0 -12 3 -17 9l-88 108c-1 8 9 16 16 18l85 -63c8 -6 12 -7 17 -7
c4 0 10 2 16 5l123 65c7 0 10 -11 9 -18z" />
    <glyph glyph-name="Tcommaaccent" unicode="&#x162;" horiz-adv-x="634" 
d="M306 660h370c51 0 65 3 85 23c5 2 15 0 17 -5c-20 -34 -51 -115 -57 -142c-4 -7 -18 -7 -23 0c5 79 2 93 -95 93h-61c-32 0 -33 -2 -46 -44l-138 -441c-29 -93 -32 -115 18 -119l37 -3c8 -7 7 -21 -4 -25c-54 2 -89 3 -132 3c-41 0 -75 -1 -122 -3c-8 5 -8 19 -1 25l39 3
c44 3 58 17 90 119l138 441c14 44 11 44 -21 44h-66c-99 0 -120 -24 -168 -90c-10 -4 -21 1 -23 10c25 40 58 102 72 134c4 5 15 5 19 0c-3 -18 11 -23 72 -23zM251 -58c40 0 61 -35 61 -67c0 -70 -72 -112 -129 -123c-5 4 -8 14 -5 21c27 13 77 41 77 83
c0 16 -11 29 -28 32c-7 2 -12 10 -12 22c0 19 16 32 36 32z" />
    <glyph glyph-name="Tcommaaccent" unicode="&#x21a;" horiz-adv-x="634" 
d="M306 660h370c51 0 65 3 85 23c5 2 15 0 17 -5c-20 -34 -51 -115 -57 -142c-4 -7 -18 -7 -23 0c5 79 2 93 -95 93h-61c-32 0 -33 -2 -46 -44l-138 -441c-29 -93 -32 -115 18 -119l37 -3c8 -7 7 -21 -4 -25c-54 2 -89 3 -132 3c-41 0 -75 -1 -122 -3c-8 5 -8 19 -1 25l39 3
c44 3 58 17 90 119l138 441c14 44 11 44 -21 44h-66c-99 0 -120 -24 -168 -90c-10 -4 -21 1 -23 10c25 40 58 102 72 134c4 5 15 5 19 0c-3 -18 11 -23 72 -23zM251 -58c40 0 61 -35 61 -67c0 -70 -72 -112 -129 -123c-5 4 -8 14 -5 21c27 13 77 41 77 83
c0 16 -11 29 -28 32c-7 2 -12 10 -12 22c0 19 16 32 36 32z" />
    <glyph glyph-name="Uhungarumlaut" unicode="&#x170;" horiz-adv-x="734" 
d="M159 266l78 250c29 94 31 110 -23 119l-25 4c-6 6 -5 20 4 24c42 -2 74 -3 117 -3s74 1 123 3c7 -4 8 -19 -1 -24l-28 -4c-57 -8 -61 -20 -92 -119l-72 -231c-46 -149 -33 -265 130 -265c139 0 207 124 247 248l46 141c21 65 36 130 40 155c7 44 12 64 -38 71l-28 4
c-6 7 -4 20 4 24c49 -2 74 -3 107 -3s69 1 108 3c8 -5 8 -19 0 -24l-23 -4c-51 -9 -59 -23 -79 -74c-9 -23 -29 -87 -49 -152l-46 -147c-22 -69 -55 -155 -117 -209c-52 -46 -126 -69 -189 -69c-182 0 -251 98 -194 282zM648 836c6 0 15 -5 25 -12c15 -11 18 -23 12 -30
c-4 -4 -10 -11 -19 -19l-73 -69c-9 2 -18 8 -16 16l47 96c7 14 13 18 24 18zM518 836c6 0 18 -6 26 -13c11 -10 15 -18 10 -27c-4 -6 -11 -14 -18 -21l-73 -69c-9 2 -18 8 -16 16l47 96c7 14 13 18 24 18z" />
    <glyph glyph-name="Umacron" unicode="&#x16a;" horiz-adv-x="734" 
d="M159 266l78 250c29 94 31 110 -23 119l-25 4c-6 6 -5 20 4 24c42 -2 74 -3 117 -3s74 1 123 3c7 -4 8 -19 -1 -24l-28 -4c-57 -8 -61 -20 -92 -119l-72 -231c-46 -149 -33 -265 130 -265c139 0 207 124 247 248l46 141c21 65 36 130 40 155c7 44 12 64 -38 71l-28 4
c-6 7 -4 20 4 24c49 -2 74 -3 107 -3s69 1 108 3c8 -5 8 -19 0 -24l-23 -4c-51 -9 -59 -23 -79 -74c-9 -23 -29 -87 -49 -152l-46 -147c-22 -69 -55 -155 -117 -209c-52 -46 -126 -69 -189 -69c-182 0 -251 98 -194 282zM632 722h-191c-9 12 -9 37 0 49h191
c10 -12 10 -37 0 -49z" />
    <glyph glyph-name="Uogonek" unicode="&#x172;" horiz-adv-x="734" 
d="M705 409l-46 -147c-22 -69 -55 -155 -117 -209c-43 -38 -101 -61 -155 -66c-36 -29 -77 -74 -77 -112c0 -23 15 -37 41 -37c23 0 38 5 51 14c7 -2 8 -7 7 -15c-28 -32 -67 -46 -97 -46c-44 0 -63 30 -63 63c0 50 51 100 94 131c-175 3 -240 101 -184 281l78 250
c29 94 31 110 -23 119l-25 4c-6 6 -5 20 4 24c42 -2 74 -3 117 -3s74 1 123 3c7 -4 8 -19 -1 -24l-28 -4c-57 -8 -61 -20 -92 -119l-72 -231c-46 -149 -33 -265 130 -265c139 0 207 124 247 248l46 141c21 65 36 130 40 155c7 44 12 64 -38 71l-28 4c-6 7 -4 20 4 24
c49 -2 74 -3 107 -3s69 1 108 3c8 -5 8 -19 0 -24l-23 -4c-51 -9 -59 -23 -79 -74c-9 -23 -29 -87 -49 -152z" />
    <glyph glyph-name="Uring" unicode="&#x16e;" horiz-adv-x="734" 
d="M159 266l78 250c29 94 31 110 -23 119l-25 4c-6 6 -5 20 4 24c42 -2 74 -3 117 -3s74 1 123 3c7 -4 8 -19 -1 -24l-28 -4c-57 -8 -61 -20 -92 -119l-72 -231c-46 -149 -33 -265 130 -265c139 0 207 124 247 248l46 141c21 65 36 130 40 155c7 44 12 64 -38 71l-28 4
c-6 7 -4 20 4 24c49 -2 74 -3 107 -3s69 1 108 3c8 -5 8 -19 0 -24l-23 -4c-51 -9 -59 -23 -79 -74c-9 -23 -29 -87 -49 -152l-46 -147c-22 -69 -55 -155 -117 -209c-52 -46 -126 -69 -189 -69c-182 0 -251 98 -194 282zM549 868c50 0 85 -39 85 -81c0 -43 -35 -81 -85 -81
s-85 38 -85 81c0 42 35 81 85 81zM504 787c0 -31 20 -53 45 -53c26 0 45 22 45 53c0 30 -19 52 -45 52c-25 0 -45 -22 -45 -52z" />
    <glyph glyph-name="Zacute" unicode="&#x179;" horiz-adv-x="601" 
d="M120 145l439 457c18 18 12 27 -28 27h-153c-110 0 -137 -13 -197 -100c-10 -5 -21 0 -23 12c21 35 44 89 60 144c3 3 9 3 12 0c5 -24 18 -25 96 -25h267c68 0 98 2 107 3c7 -1 9 -6 8 -12c-31 -20 -143 -139 -214 -212l-229 -238c-13 -14 -135 -143 -135 -153
c0 -9 11 -17 90 -17h88c83 0 148 2 186 22c26 14 59 50 82 89c6 4 18 -1 20 -8c-11 -41 -47 -112 -69 -137c-26 1 -59 2 -93 2c-34 1 -70 1 -104 1h-234c-52 0 -84 -1 -110 -3c-5 2 -7 11 -4 16c24 18 95 88 138 132zM559 767l-144 -61c-6 2 -12 12 -9 20l122 98
c9 8 17 12 23 12s16 -6 23 -19c9 -17 9 -29 6 -35c-3 -5 -10 -10 -21 -15z" />
    <glyph glyph-name="Zdotaccent" unicode="&#x17b;" horiz-adv-x="601" 
d="M120 145l439 457c18 18 12 27 -28 27h-153c-110 0 -137 -13 -197 -100c-10 -5 -21 0 -23 12c21 35 44 89 60 144c3 3 9 3 12 0c5 -24 18 -25 96 -25h267c68 0 98 2 107 3c7 -1 9 -6 8 -12c-31 -20 -143 -139 -214 -212l-229 -238c-13 -14 -135 -143 -135 -153
c0 -9 11 -17 90 -17h88c83 0 148 2 186 22c26 14 59 50 82 89c6 4 18 -1 20 -8c-11 -41 -47 -112 -69 -137c-26 1 -59 2 -93 2c-34 1 -70 1 -104 1h-234c-52 0 -84 -1 -110 -3c-5 2 -7 11 -4 16c24 18 95 88 138 132zM449 706c-23 0 -37 15 -37 38c0 31 24 53 48 53
s36 -19 36 -38c0 -34 -23 -53 -47 -53z" />
    <glyph glyph-name="Idotaccent" unicode="&#x130;" horiz-adv-x="341" 
d="M133 144l117 372c30 94 32 109 -23 118l-24 4c-6 8 -5 21 6 25c40 -2 74 -3 116 -3c41 0 72 1 120 3c7 -4 9 -20 0 -25l-27 -4c-58 -9 -62 -19 -93 -118l-117 -372c-29 -93 -32 -114 19 -119l31 -3c6 -7 3 -21 -4 -25c-49 2 -83 3 -126 3c-41 0 -75 -1 -115 -3
c-8 5 -8 19 -1 25l31 3c48 5 58 17 90 119zM349 706c-23 0 -37 15 -37 38c0 31 24 53 48 53s36 -19 36 -38c0 -34 -23 -53 -47 -53z" />
    <glyph glyph-name="abreve" unicode="&#x103;" horiz-adv-x="444" 
d="M374 367l28 64c17 8 43 -2 49 -15c-15 -37 -102 -258 -134 -349c-6 -17 -1 -23 7 -23c17 0 46 17 103 67c7 0 14 -5 14 -13c-42 -56 -113 -112 -168 -112c-23 0 -29 19 -29 27c0 7 2 16 10 39l33 90l-3 1c-71 -88 -173 -157 -220 -157c-28 0 -44 28 -44 56
c0 23 22 103 88 194c48 66 91 106 132 129c39 22 64 29 90 29c11 0 18 -3 24 -6c4 -2 15 -11 20 -21zM299 356c-24 0 -40 -11 -71 -39c-64 -57 -125 -188 -125 -259c0 -12 6 -19 15 -19c10 0 40 13 97 65c76 71 118 157 134 216c-7 19 -24 36 -50 36zM334 485
c-66 0 -97 37 -81 114c5 4 17 4 20 0c2 -43 26 -65 70 -65s74 22 92 65c5 4 17 4 20 0c-12 -77 -55 -114 -121 -114z" />
    <glyph glyph-name="amacron" unicode="&#x101;" horiz-adv-x="444" 
d="M374 367l28 64c17 8 43 -2 49 -15c-15 -37 -102 -258 -134 -349c-6 -17 -1 -23 7 -23c17 0 46 17 103 67c7 0 14 -5 14 -13c-42 -56 -113 -112 -168 -112c-23 0 -29 19 -29 27c0 7 2 16 10 39l33 90l-3 1c-71 -88 -173 -157 -220 -157c-28 0 -44 28 -44 56
c0 23 22 103 88 194c48 66 91 106 132 129c39 22 64 29 90 29c11 0 18 -3 24 -6c4 -2 15 -11 20 -21zM299 356c-24 0 -40 -11 -71 -39c-64 -57 -125 -188 -125 -259c0 -12 6 -19 15 -19c10 0 40 13 97 65c76 71 118 157 134 216c-7 19 -24 36 -50 36zM451 507h-185
c-10 12 -10 39 0 51h185c9 -12 9 -39 0 -51z" />
    <glyph glyph-name="aogonek" unicode="&#x105;" horiz-adv-x="444" 
d="M299 356c-24 0 -40 -11 -71 -39c-64 -57 -125 -188 -125 -259c0 -12 6 -19 15 -19c10 0 40 13 97 65c76 71 118 157 134 216c-7 19 -24 36 -50 36zM330 394c11 0 18 -3 24 -6c4 -2 15 -11 20 -21l28 64c17 8 43 -2 49 -15c-15 -37 -102 -258 -134 -349
c-6 -17 -1 -23 7 -23c17 0 46 17 103 67c7 0 14 -5 14 -13c-20 -27 -48 -55 -80 -81c-53 -42 -106 -99 -106 -142c0 -23 15 -37 41 -37c23 0 38 5 51 14c7 -2 8 -7 7 -15c-28 -32 -67 -46 -97 -46c-42 0 -63 26 -63 54c0 46 46 96 113 153c-10 -5 -17 -8 -23 -10
c-5 -2 -8 -2 -11 -2c-23 0 -29 19 -29 27c0 7 2 16 10 39l33 90l-3 1c-71 -88 -173 -157 -220 -157c-28 0 -44 28 -44 56c0 23 22 103 88 194c48 66 91 106 132 129c39 22 64 29 90 29z" />
    <glyph glyph-name="cacute" unicode="&#x107;" horiz-adv-x="338" 
d="M302 408c50 0 74 -28 74 -59c0 -40 -39 -47 -49 -47s-18 6 -20 18c-3 25 -2 55 -35 55c-22 0 -53 -21 -84 -67c-33 -49 -64 -130 -67 -207c-2 -50 19 -65 43 -65c33 0 70 26 108 61c10 1 16 -7 13 -17c-39 -51 -102 -94 -165 -94c-39 0 -75 29 -75 106
c0 65 39 179 127 258c42 38 85 58 130 58zM417 569l-126 -111c-7 0 -16 6 -16 13l94 143c7 11 15 21 24 20c7 0 17 -4 28 -15c9 -9 14 -19 13 -26c0 -6 -6 -15 -17 -24z" />
    <glyph glyph-name="ccaron" unicode="&#x10d;" horiz-adv-x="338" 
d="M302 408c50 0 74 -28 74 -59c0 -40 -39 -47 -49 -47s-18 6 -20 18c-3 25 -2 55 -35 55c-22 0 -53 -21 -84 -67c-33 -49 -64 -130 -67 -207c-2 -50 19 -65 43 -65c33 0 70 26 108 61c10 1 16 -7 13 -17c-39 -51 -102 -94 -165 -94c-39 0 -75 29 -75 106
c0 65 39 179 127 258c42 38 85 58 130 58zM270 472l-35 162c2 7 11 12 20 10l43 -87c6 -12 7 -15 10 -15c4 0 9 4 16 12l91 92c7 2 17 -5 17 -14l-125 -164c-8 -10 -17 -15 -23 -15c-7 0 -11 7 -14 19z" />
    <glyph glyph-name="dcaron" unicode="&#x10f;" horiz-adv-x="474" 
d="M391 377l72 206c20 56 23 73 9 83l-23 16c-2 4 -1 10 3 14c19 7 75 20 118 19l4 -6c-18 -56 -33 -94 -63 -177c-99 -273 -146 -433 -155 -463c-4 -13 -3 -23 6 -23c16 0 79 51 110 90c9 0 14 -4 15 -13c-27 -55 -118 -137 -170 -137c-21 0 -32 16 -32 32c0 12 3 28 13 57
l35 99l-4 1c-69 -92 -144 -189 -241 -189c-39 0 -60 32 -60 72c0 71 54 190 133 261c68 61 131 89 179 89c16 0 40 -10 51 -31zM338 378c-23 0 -50 -19 -76 -43c-40 -37 -112 -132 -143 -195c-31 -64 -31 -82 -31 -95c0 -12 10 -21 19 -21c15 0 66 18 135 89
c78 80 107 140 122 193c12 42 -1 72 -26 72zM650 715c38 0 57 -34 57 -66c0 -64 -71 -110 -122 -123c-5 8 -7 15 -5 21c26 13 71 41 71 83c0 16 -10 27 -24 33c-6 2 -12 8 -12 21c0 18 16 31 35 31z" />
    <glyph glyph-name="dcroat" unicode="&#x111;" horiz-adv-x="474" 
d="M338 378c-23 0 -50 -19 -76 -43c-40 -37 -112 -132 -143 -195c-31 -64 -31 -82 -31 -95c0 -12 10 -21 19 -21c15 0 66 18 135 89c78 80 107 140 122 193c12 42 -1 72 -26 72zM600 567l-20 -37h-69c-101 -276 -146 -431 -155 -461c-4 -13 -3 -23 6 -23c16 0 79 51 110 90
c9 0 14 -4 15 -13c-27 -55 -118 -137 -170 -137c-21 0 -32 16 -32 32c0 12 3 28 13 57l35 99l-4 1c-69 -92 -144 -189 -241 -189c-39 0 -60 32 -60 72c0 71 54 190 133 261c68 61 131 89 179 89c16 0 40 -10 51 -31l54 153h-125l20 37h118l4 11c22 61 24 78 10 88l-23 16
c-2 4 -1 10 3 14c19 7 75 20 118 19l4 -6c-14 -45 -27 -78 -51 -142h77z" />
    <glyph glyph-name="ecaron" unicode="&#x11b;" horiz-adv-x="346" 
d="M313 408c40 0 63 -34 63 -60c0 -76 -99 -126 -243 -166c-7 -17 -14 -49 -14 -89c0 -34 21 -57 48 -57c36 0 61 20 105 58c9 0 15 -8 13 -17c-61 -75 -118 -91 -160 -91c-60 0 -81 56 -81 105c0 63 40 185 149 269c52 40 91 48 120 48zM293 377c-14 0 -40 -9 -76 -48
c-39 -42 -62 -88 -74 -117c66 20 97 39 134 74c31 29 39 59 39 68c0 10 -5 23 -23 23zM270 476l-35 162c2 7 11 12 20 10l43 -87c6 -12 7 -15 10 -15c4 0 9 4 16 12l91 92c7 2 17 -5 17 -14l-125 -164c-8 -10 -17 -15 -23 -15c-7 0 -11 7 -14 19z" />
    <glyph glyph-name="edotaccent" unicode="&#x117;" horiz-adv-x="346" 
d="M313 408c40 0 63 -34 63 -60c0 -76 -99 -126 -243 -166c-7 -17 -14 -49 -14 -89c0 -34 21 -57 48 -57c36 0 61 20 105 58c9 0 15 -8 13 -17c-61 -75 -118 -91 -160 -91c-60 0 -81 56 -81 105c0 63 40 185 149 269c52 40 91 48 120 48zM293 377c-14 0 -40 -9 -76 -48
c-39 -42 -62 -88 -74 -117c66 20 97 39 134 74c31 29 39 59 39 68c0 10 -5 23 -23 23zM297 502c-24 0 -39 16 -39 40c0 33 25 56 51 56c25 0 38 -20 38 -40c0 -36 -25 -56 -50 -56z" />
    <glyph glyph-name="emacron" unicode="&#x113;" horiz-adv-x="346" 
d="M313 408c40 0 63 -34 63 -60c0 -76 -99 -126 -243 -166c-7 -17 -14 -49 -14 -89c0 -34 21 -57 48 -57c36 0 61 20 105 58c9 0 15 -8 13 -17c-61 -75 -118 -91 -160 -91c-60 0 -81 56 -81 105c0 63 40 185 149 269c52 40 91 48 120 48zM293 377c-14 0 -40 -9 -76 -48
c-39 -42 -62 -88 -74 -117c66 20 97 39 134 74c31 29 39 59 39 68c0 10 -5 23 -23 23zM402 502h-185c-10 12 -10 39 0 51h185c9 -12 9 -39 0 -51z" />
    <glyph glyph-name="eogonek" unicode="&#x119;" horiz-adv-x="346" 
d="M293 377c-14 0 -40 -9 -76 -48c-39 -42 -62 -88 -74 -117c66 20 97 39 134 74c31 29 39 59 39 68c0 10 -5 23 -23 23zM44 91c0 63 40 185 149 269c52 40 91 48 120 48c40 0 63 -34 63 -60c0 -76 -99 -126 -243 -166c-7 -17 -14 -49 -14 -89c0 -34 21 -57 48 -57
c36 0 61 20 105 58c9 0 15 -8 13 -17c-23 -29 -46 -49 -59 -60c-54 -44 -110 -97 -110 -142c0 -23 15 -37 41 -37c23 0 38 5 51 14c7 -2 8 -7 7 -15c-28 -32 -67 -46 -97 -46c-44 0 -63 30 -63 63c0 46 50 93 107 137c-9 -2 -16 -4 -23 -4c-6 -1 -10 -1 -14 -1
c-60 0 -81 56 -81 105z" />
    <glyph glyph-name="gbreve" unicode="&#x11f;" horiz-adv-x="382" 
d="M287 408c10 0 21 -5 32 -9s20 -9 24 -9c9 0 29 1 48 6s38 8 45 8c14 0 21 -10 21 -25c0 -23 -12 -31 -22 -31s-24 3 -33 5c-9 3 -30 6 -37 6c-5 0 -10 -3 -9 -6c2 -8 7 -24 7 -38c0 -81 -58 -157 -127 -200c-11 -7 -49 -20 -71 -26c-11 -6 -22 -20 -22 -35
c0 -12 7 -30 33 -47c23 -16 62 -38 98 -60c58 -34 75 -65 75 -97c0 -56 -81 -119 -244 -119c-73 0 -158 28 -158 95c0 76 117 124 171 141c-26 17 -32 32 -32 46c0 18 31 59 45 77c-19 5 -73 23 -73 90c0 56 31 124 81 168c48 41 95 60 148 60zM151 -236c46 0 132 20 132 68
c0 17 -11 39 -43 61c-42 28 -77 48 -93 50c-25 3 -64 -16 -93 -37c-27 -20 -38 -42 -38 -65c0 -47 67 -77 135 -77zM275 379c-17 0 -36 -7 -67 -41c-39 -45 -90 -133 -90 -184c0 -21 14 -35 30 -35c14 0 38 6 66 39c56 66 91 155 91 187c0 21 -15 34 -30 34zM285 490
c-69 0 -102 39 -85 120c5 4 18 4 21 0c2 -45 27 -66 73 -66c47 0 78 21 97 66c5 4 18 4 21 0c-13 -81 -58 -120 -127 -120z" />
    <glyph glyph-name="gcommaaccent" unicode="&#x123;" horiz-adv-x="382" 
d="M287 408c10 0 21 -5 32 -9s20 -9 24 -9c9 0 29 1 48 6s38 8 45 8c14 0 21 -10 21 -25c0 -23 -12 -31 -22 -31s-24 3 -33 5c-9 3 -30 6 -37 6c-5 0 -10 -3 -9 -6c2 -8 7 -24 7 -38c0 -81 -58 -157 -127 -200c-11 -7 -49 -20 -71 -26c-11 -6 -22 -20 -22 -35
c0 -12 7 -30 33 -47c23 -16 62 -38 98 -60c58 -34 75 -65 75 -97c0 -56 -81 -119 -244 -119c-73 0 -158 28 -158 95c0 76 117 124 171 141c-26 17 -32 32 -32 46c0 18 31 59 45 77c-19 5 -73 23 -73 90c0 56 31 124 81 168c48 41 95 60 148 60zM151 -236c46 0 132 20 132 68
c0 17 -11 39 -43 61c-42 28 -77 48 -93 50c-25 3 -64 -16 -93 -37c-27 -20 -38 -42 -38 -65c0 -47 67 -77 135 -77zM275 379c-17 0 -36 -7 -67 -41c-39 -45 -90 -133 -90 -184c0 -21 14 -35 30 -35c14 0 38 6 66 39c56 66 91 155 91 187c0 21 -15 34 -30 34zM310 505
c-39 0 -59 31 -59 62c0 63 71 106 125 121c6 -2 8 -13 6 -18c-28 -15 -77 -44 -77 -83c0 -16 10 -27 28 -34c7 -1 12 -7 12 -17c0 -18 -16 -31 -35 -31z" />
    <glyph glyph-name="imacron" unicode="&#x12b;" horiz-adv-x="278" 
d="M52 22l127 303c5 11 5 19 -2 19s-33 -12 -83 -53c-9 1 -15 9 -13 17c55 63 132 100 165 100c7 0 12 -6 16 -10c6 -5 6 -15 -6 -44l-119 -284c-4 -10 -5 -22 3 -22c17 0 70 35 104 74c10 -1 15 -8 15 -17c-15 -29 -118 -119 -187 -119c-5 0 -11 3 -16 9c-6 7 -9 16 -4 27z
M323 501h-185c-10 12 -10 40 0 52h185c9 -12 9 -40 0 -52z" />
    <glyph glyph-name="iogonek" unicode="&#x12f;" horiz-adv-x="278" 
d="M263 613c22 0 33 -15 33 -36c0 -30 -21 -60 -50 -60c-25 0 -34 19 -34 36c0 21 14 60 51 60zM246 408c7 0 12 -6 16 -10c6 -6 6 -15 -6 -44l-119 -284c-4 -10 -5 -22 3 -22c17 0 70 35 104 74c10 -1 15 -8 15 -17c-8 -16 -45 -50 -84 -82c-64 -52 -103 -109 -103 -148
c0 -23 15 -37 41 -37c23 0 38 5 51 14c7 -2 8 -7 7 -15c-28 -32 -67 -46 -97 -46c-44 0 -63 30 -63 61c0 48 44 95 115 160c-26 -12 -56 -26 -61 -26c-3 0 -9 3 -14 9c-6 7 -4 16 1 27l127 303c5 11 5 19 -2 19s-33 -12 -83 -53c-9 1 -15 9 -13 17c55 63 132 100 165 100z
" />
    <glyph glyph-name="kcommaaccent" unicode="&#x137;" horiz-adv-x="448" 
d="M40 12l183 552c23 70 24 83 7 91l-18 9c-6 4 -7 10 -2 15c30 14 79 28 122 36l6 -5c-8 -28 -19 -62 -49 -147l-103 -296h2c29 39 62 73 102 103c28 20 65 38 108 38c58 0 72 -34 72 -55c0 -12 -4 -39 -41 -73c-47 -43 -96 -77 -160 -88c-7 -4 -5 -13 -3 -19
c8 -29 26 -73 37 -94c12 -22 22 -33 32 -33c13 0 32 13 60 47c9 0 13 -4 13 -12c-35 -75 -85 -95 -101 -95c-18 0 -30 12 -46 40c-12 22 -37 80 -46 107c-8 26 -19 37 -37 33c-20 -5 -25 -10 -37 -40l-52 -127c-4 -9 -8 -13 -17 -13c-11 0 -40 3 -32 26zM393 339
c0 12 -9 26 -32 26c-26 0 -63 -22 -97 -51c-37 -31 -79 -80 -92 -109c-4 -10 -3 -17 10 -15c21 2 77 19 147 65c42 28 64 63 64 84zM174 -58c40 0 61 -35 61 -67c0 -70 -72 -112 -129 -123c-5 4 -8 14 -5 21c27 13 77 41 77 83c0 16 -11 29 -28 32c-7 2 -12 10 -12 22
c0 19 16 32 36 32z" />
    <glyph glyph-name="lacute" unicode="&#x13a;" horiz-adv-x="246" 
d="M281 537l-158 -472c-8 -23 -7 -33 4 -33c22 0 69 49 115 101c10 1 16 -4 16 -14c-26 -50 -89 -133 -172 -133c-30 0 -39 14 -39 30s5 34 22 85l159 473c24 70 14 80 -1 87l-18 8c-5 4 -5 13 0 16c18 7 80 26 126 30l5 -6c-13 -36 -23 -64 -59 -172zM411 792l-144 -61
c-6 2 -12 12 -9 20l122 98c9 8 17 12 23 12s16 -6 23 -19c9 -17 9 -29 6 -35c-3 -5 -10 -10 -21 -15z" />
    <glyph glyph-name="lcaron" unicode="&#x13e;" horiz-adv-x="246" 
d="M281 537l-158 -472c-8 -23 -7 -33 4 -33c22 0 69 49 115 101c10 1 16 -4 16 -14c-26 -50 -89 -133 -172 -133c-30 0 -39 14 -39 30s5 34 22 85l159 473c24 70 14 80 -1 87l-18 8c-5 4 -5 13 0 16c18 7 80 26 126 30l5 -6c-13 -36 -23 -64 -59 -172zM408 715
c38 0 57 -34 57 -66c0 -64 -71 -110 -122 -123c-5 8 -7 15 -5 21c26 13 71 41 71 83c0 16 -10 27 -24 33c-6 2 -12 8 -12 21c0 18 16 31 35 31z" />
    <glyph glyph-name="lcommaaccent" unicode="&#x13c;" horiz-adv-x="246" 
d="M281 537l-158 -472c-8 -23 -7 -33 4 -33c22 0 69 49 115 101c10 1 16 -4 16 -14c-26 -50 -89 -133 -172 -133c-30 0 -39 14 -39 30s5 34 22 85l159 473c24 70 14 80 -1 87l-18 8c-5 4 -5 13 0 16c18 7 80 26 126 30l5 -6c-13 -36 -23 -64 -59 -172zM66 -58
c40 0 61 -35 61 -67c0 -70 -72 -112 -129 -123c-5 4 -8 14 -5 21c27 13 77 41 77 83c0 16 -11 29 -28 32c-7 2 -12 10 -12 22c0 19 16 32 36 32z" />
    <glyph glyph-name="nacute" unicode="&#x144;" horiz-adv-x="501" 
d="M245 367l-68 -175l3 -2c71 108 170 218 245 218c39 0 56 -21 56 -54c0 -16 -8 -47 -16 -70c-18 -50 -90 -213 -93 -221c-4 -10 -5 -19 2 -19c17 0 65 33 94 68c14 2 16 -6 16 -14c-38 -64 -117 -112 -172 -112c-9 0 -24 13 -24 25c0 9 3 16 24 66c21 49 58 147 81 197
c8 18 21 53 21 73c0 12 -1 24 -16 24c-24 0 -83 -50 -138 -119c-53 -66 -94 -144 -153 -254c-5 -9 -9 -12 -18 -12c-11 0 -38 3 -29 26c5 13 111 301 116 315c5 13 5 23 -3 23c-23 0 -58 -21 -91 -50c-8 0 -13 7 -12 15c38 52 99 93 149 93c24 0 35 -18 26 -41zM461 569
l-126 -111c-7 0 -16 6 -16 13l94 143c7 11 15 21 24 20c7 0 17 -4 28 -15c9 -9 14 -19 13 -26c0 -6 -6 -15 -17 -24z" />
    <glyph glyph-name="ncaron" unicode="&#x148;" horiz-adv-x="501" 
d="M245 367l-68 -175l3 -2c71 108 170 218 245 218c39 0 56 -21 56 -54c0 -16 -8 -47 -16 -70c-18 -50 -90 -213 -93 -221c-4 -10 -5 -19 2 -19c17 0 65 33 94 68c14 2 16 -6 16 -14c-38 -64 -117 -112 -172 -112c-9 0 -24 13 -24 25c0 9 3 16 24 66c21 49 58 147 81 197
c8 18 21 53 21 73c0 12 -1 24 -16 24c-24 0 -83 -50 -138 -119c-53 -66 -94 -144 -153 -254c-5 -9 -9 -12 -18 -12c-11 0 -38 3 -29 26c5 13 111 301 116 315c5 13 5 23 -3 23c-23 0 -58 -21 -91 -50c-8 0 -13 7 -12 15c38 52 99 93 149 93c24 0 35 -18 26 -41zM320 474
l-35 162c2 7 11 12 20 10l43 -87c6 -12 7 -15 10 -15c4 0 9 4 16 12l91 92c7 2 17 -5 17 -14l-125 -164c-8 -10 -17 -15 -23 -15c-7 0 -11 7 -14 19z" />
    <glyph glyph-name="ncommaaccent" unicode="&#x146;" horiz-adv-x="501" 
d="M245 367l-68 -175l3 -2c71 108 170 218 245 218c39 0 56 -21 56 -54c0 -16 -8 -47 -16 -70c-18 -50 -90 -213 -93 -221c-4 -10 -5 -19 2 -19c17 0 65 33 94 68c14 2 16 -6 16 -14c-38 -64 -117 -112 -172 -112c-9 0 -24 13 -24 25c0 9 3 16 24 66c21 49 58 147 81 197
c8 18 21 53 21 73c0 12 -1 24 -16 24c-24 0 -83 -50 -138 -119c-53 -66 -94 -144 -153 -254c-5 -9 -9 -12 -18 -12c-11 0 -38 3 -29 26c5 13 111 301 116 315c5 13 5 23 -3 23c-23 0 -58 -21 -91 -50c-8 0 -13 7 -12 15c38 52 99 93 149 93c24 0 35 -18 26 -41zM200 -58
c40 0 61 -35 61 -67c0 -70 -72 -112 -129 -123c-5 4 -8 14 -5 21c27 13 77 41 77 83c0 16 -11 29 -28 32c-7 2 -12 10 -12 22c0 19 16 32 36 32z" />
    <glyph glyph-name="ohungarumlaut" unicode="&#x151;" horiz-adv-x="406" 
d="M294 408c71 0 106 -53 102 -126c-3 -55 -32 -151 -106 -227c-62 -64 -116 -69 -143 -69c-64 0 -106 47 -100 133c4 62 41 159 109 224c52 50 97 65 138 65zM287 378c-20 0 -44 -9 -73 -48c-58 -78 -97 -197 -100 -250c-2 -35 12 -64 41 -64c22 0 47 9 79 52
c44 59 91 191 93 244c1 31 -5 66 -40 66zM326 581l-91 -122c-7 0 -13 4 -14 11l52 141c7 20 12 31 24 31c9 0 17 -3 25 -9c11 -8 17 -15 17 -23c0 -9 -5 -18 -13 -29zM456 581l-91 -122c-7 0 -13 4 -14 11l52 141c7 20 12 31 24 31c9 0 17 -3 25 -9c11 -8 17 -15 17 -23
c0 -9 -5 -18 -13 -29z" />
    <glyph glyph-name="omacron" unicode="&#x14d;" horiz-adv-x="406" 
d="M294 408c71 0 106 -53 102 -126c-3 -55 -32 -151 -106 -227c-62 -64 -116 -69 -143 -69c-64 0 -106 47 -100 133c4 62 41 159 109 224c52 50 97 65 138 65zM287 378c-20 0 -44 -9 -73 -48c-58 -78 -97 -197 -100 -250c-2 -35 12 -64 41 -64c22 0 47 9 79 52
c44 59 91 191 93 244c1 31 -5 66 -40 66zM429 504h-185c-10 12 -8 39 2 51h185c9 -12 7 -39 -2 -51z" />
    <glyph glyph-name="racute" unicode="&#x155;" horiz-adv-x="341" 
d="M189 408c50 0 32 -68 23 -95l-43 -126h5c30 56 79 136 105 169c23 30 48 52 73 52c35 0 40 -34 40 -49s-9 -44 -21 -60c-12 -15 -28 -16 -32 5c-5 26 -11 39 -21 39c-9 0 -20 -10 -35 -30c-61 -78 -117 -200 -170 -315c-4 -8 -9 -12 -17 -12c-11 0 -40 4 -33 26
c13 40 76 217 103 315c3 11 1 21 -8 21c-26 0 -53 -28 -71 -52c-10 -2 -17 4 -16 16c32 54 70 96 118 96zM408 564l-126 -111c-7 0 -16 6 -16 13l94 143c7 11 15 21 24 20c7 0 17 -4 28 -15c9 -9 14 -19 13 -26c0 -6 -6 -15 -17 -24z" />
    <glyph glyph-name="rcaron" unicode="&#x159;" horiz-adv-x="341" 
d="M189 408c50 0 32 -68 23 -95l-43 -126h5c30 56 79 136 105 169c23 30 48 52 73 52c35 0 40 -34 40 -49s-9 -44 -21 -60c-12 -15 -28 -16 -32 5c-5 26 -11 39 -21 39c-9 0 -20 -10 -35 -30c-61 -78 -117 -200 -170 -315c-4 -8 -9 -12 -17 -12c-11 0 -40 4 -33 26
c13 40 76 217 103 315c3 11 1 21 -8 21c-26 0 -53 -28 -71 -52c-10 -2 -17 4 -16 16c32 54 70 96 118 96zM262 476l-35 162c2 7 11 12 20 10l43 -87c6 -12 7 -15 10 -15c4 0 9 4 16 12l91 92c7 2 17 -5 17 -14l-125 -164c-8 -10 -17 -15 -23 -15c-7 0 -11 7 -14 19z" />
    <glyph glyph-name="rcommaaccent" unicode="&#x157;" horiz-adv-x="341" 
d="M189 408c50 0 32 -68 23 -95l-43 -126h5c30 56 79 136 105 169c23 30 48 52 73 52c35 0 40 -34 40 -49s-9 -44 -21 -60c-12 -15 -28 -16 -32 5c-5 26 -11 39 -21 39c-9 0 -20 -10 -35 -30c-61 -78 -117 -200 -170 -315c-4 -8 -9 -12 -17 -12c-11 0 -40 4 -33 26
c13 40 76 217 103 315c3 11 1 21 -8 21c-26 0 -53 -28 -71 -52c-10 -2 -17 4 -16 16c32 54 70 96 118 96zM56 -58c40 0 61 -35 61 -67c0 -70 -72 -112 -129 -123c-5 4 -8 14 -5 21c27 13 77 41 77 83c0 16 -11 29 -28 32c-7 2 -12 10 -12 22c0 19 16 32 36 32z" />
    <glyph glyph-name="sacute" unicode="&#x15b;" horiz-adv-x="262" 
d="M225 408c37 0 60 -32 60 -57c0 -16 -10 -27 -18 -31c-7 -2 -13 0 -19 8c-17 17 -30 32 -61 32c-29 0 -41 -25 -41 -40c0 -21 5 -42 34 -91c25 -42 40 -67 38 -111c-1 -27 -15 -64 -52 -96c-26 -23 -63 -36 -101 -36s-61 30 -61 53c0 10 4 21 15 33c8 7 19 7 27 0
c13 -15 43 -40 69 -40c24 0 48 25 48 57c0 17 -12 48 -37 88c-26 42 -35 76 -35 93c0 39 17 68 60 105c29 25 61 33 74 33zM344 563l-126 -111c-7 0 -16 6 -16 13l94 143c7 11 15 21 24 20c7 0 17 -4 28 -15c9 -9 14 -19 13 -26c0 -6 -6 -15 -17 -24z" />
    <glyph glyph-name="scedilla" unicode="&#x15f;" horiz-adv-x="262" 
d="M21 -93l59 80c-4 -1 -10 -1 -15 -1c-38 0 -61 30 -61 53c0 10 4 21 15 33c8 7 19 7 27 0c13 -15 43 -40 69 -40c24 0 48 25 48 57c0 17 -12 48 -37 88c-26 42 -35 76 -35 93c0 39 17 68 60 105c29 25 61 33 74 33c37 0 60 -32 60 -57c0 -16 -10 -27 -18 -31
c-7 -2 -13 0 -19 8c-17 17 -30 32 -61 32c-29 0 -41 -25 -41 -40c0 -21 5 -42 34 -91c25 -42 40 -67 38 -111c-1 -27 -15 -64 -52 -96c-13 -12 -29 -21 -47 -26l-33 -45c-8 -10 -5 -18 5 -26c22 -18 37 -38 37 -65c0 -43 -54 -77 -102 -77c-34 0 -50 14 -50 32
c0 10 9 24 25 24c9 0 17 -7 24 -14c8 -8 15 -15 21 -15c11 0 28 7 28 31s-22 48 -53 62v4z" />
    <glyph glyph-name="scedilla" unicode="&#xf6c2;" horiz-adv-x="262" 
d="M21 -93l59 80c-4 -1 -10 -1 -15 -1c-38 0 -61 30 -61 53c0 10 4 21 15 33c8 7 19 7 27 0c13 -15 43 -40 69 -40c24 0 48 25 48 57c0 17 -12 48 -37 88c-26 42 -35 76 -35 93c0 39 17 68 60 105c29 25 61 33 74 33c37 0 60 -32 60 -57c0 -16 -10 -27 -18 -31
c-7 -2 -13 0 -19 8c-17 17 -30 32 -61 32c-29 0 -41 -25 -41 -40c0 -21 5 -42 34 -91c25 -42 40 -67 38 -111c-1 -27 -15 -64 -52 -96c-13 -12 -29 -21 -47 -26l-33 -45c-8 -10 -5 -18 5 -26c22 -18 37 -38 37 -65c0 -43 -54 -77 -102 -77c-34 0 -50 14 -50 32
c0 10 9 24 25 24c9 0 17 -7 24 -14c8 -8 15 -15 21 -15c11 0 28 7 28 31s-22 48 -53 62v4z" />
    <glyph glyph-name="scommaaccent" unicode="&#x219;" horiz-adv-x="262" 
d="M225 408c37 0 60 -32 60 -57c0 -16 -10 -27 -18 -31c-7 -2 -13 0 -19 8c-17 17 -30 32 -61 32c-29 0 -41 -25 -41 -40c0 -21 5 -42 34 -91c25 -42 40 -67 38 -111c-1 -27 -15 -64 -52 -96c-26 -23 -63 -36 -101 -36s-61 30 -61 53c0 10 4 21 15 33c8 7 19 7 27 0
c13 -15 43 -40 69 -40c24 0 48 25 48 57c0 17 -12 48 -37 88c-26 42 -35 76 -35 93c0 39 17 68 60 105c29 25 61 33 74 33zM50 -58c40 0 61 -35 61 -67c0 -70 -72 -112 -129 -123c-5 4 -8 14 -5 21c27 13 77 41 77 83c0 16 -11 29 -28 32c-7 2 -12 10 -12 22
c0 19 16 32 36 32z" />
    <glyph glyph-name="tcaron" unicode="&#x165;" horiz-adv-x="284" 
d="M337 346h-109l-90 -263c-6 -19 -1 -25 7 -25c15 0 81 52 114 90c10 0 16 -6 14 -18c-56 -83 -150 -144 -192 -144c-14 0 -27 15 -27 27c0 13 4 27 14 57l94 276h-78c-2 10 1 24 11 28l80 14l56 99c10 6 30 4 38 -6l-29 -98h109c7 -10 1 -30 -12 -37zM365 715
c38 0 57 -34 57 -66c0 -64 -71 -110 -122 -123c-5 8 -7 15 -5 21c26 13 71 41 71 83c0 16 -10 27 -24 33c-6 2 -12 8 -12 21c0 18 16 31 35 31z" />
    <glyph glyph-name="tcommaaccent" unicode="&#x163;" horiz-adv-x="284" 
d="M337 346h-109l-90 -263c-6 -19 -1 -25 7 -25c15 0 81 52 114 90c10 0 16 -6 14 -18c-56 -83 -150 -144 -192 -144c-14 0 -27 15 -27 27c0 13 4 27 14 57l94 276h-78c-2 10 1 24 11 28l80 14l56 99c10 6 30 4 38 -6l-29 -98h109c7 -10 1 -30 -12 -37zM69 -58
c40 0 61 -35 61 -67c0 -70 -72 -112 -129 -123c-5 4 -8 14 -5 21c27 13 77 41 77 83c0 16 -11 29 -28 32c-7 2 -12 10 -12 22c0 19 16 32 36 32z" />
    <glyph glyph-name="tcommaaccent" unicode="&#x21b;" horiz-adv-x="284" 
d="M337 346h-109l-90 -263c-6 -19 -1 -25 7 -25c15 0 81 52 114 90c10 0 16 -6 14 -18c-56 -83 -150 -144 -192 -144c-14 0 -27 15 -27 27c0 13 4 27 14 57l94 276h-78c-2 10 1 24 11 28l80 14l56 99c10 6 30 4 38 -6l-29 -98h109c7 -10 1 -30 -12 -37zM69 -58
c40 0 61 -35 61 -67c0 -70 -72 -112 -129 -123c-5 4 -8 14 -5 21c27 13 77 41 77 83c0 16 -11 29 -28 32c-7 2 -12 10 -12 22c0 19 16 32 36 32z" />
    <glyph glyph-name="uhungarumlaut" unicode="&#x171;" horiz-adv-x="496" 
d="M261 378l-112 -292c-9 -24 -4 -34 7 -34c15 0 55 32 107 83c91 90 143 206 176 267c21 4 45 -6 49 -18c-10 -27 -75 -191 -117 -310c-5 -13 -6 -25 4 -25c19 0 72 47 98 78c9 2 17 -2 18 -14c-26 -48 -122 -127 -175 -127c-16 0 -31 19 -25 35l68 183l-2 1
c-72 -91 -196 -219 -250 -219c-41 0 -46 41 -29 85l92 243c7 19 8 29 0 29c-19 0 -71 -44 -95 -69c-10 -2 -18 6 -17 15c26 40 126 119 173 119c13 0 36 -13 30 -30zM378 575l-91 -122c-7 0 -13 4 -14 11l52 141c7 20 12 31 24 31c9 0 17 -3 25 -9c11 -8 17 -15 17 -23
c0 -9 -5 -18 -13 -29zM508 575l-91 -122c-7 0 -13 4 -14 11l52 141c7 20 12 31 24 31c9 0 17 -3 25 -9c11 -8 17 -15 17 -23c0 -9 -5 -18 -13 -29z" />
    <glyph glyph-name="umacron" unicode="&#x16b;" horiz-adv-x="496" 
d="M261 378l-112 -292c-9 -24 -4 -34 7 -34c15 0 55 32 107 83c91 90 143 206 176 267c21 4 45 -6 49 -18c-10 -27 -75 -191 -117 -310c-5 -13 -6 -25 4 -25c19 0 72 47 98 78c9 2 17 -2 18 -14c-26 -48 -122 -127 -175 -127c-16 0 -31 19 -25 35l68 183l-2 1
c-72 -91 -196 -219 -250 -219c-41 0 -46 41 -29 85l92 243c7 19 8 29 0 29c-19 0 -71 -44 -95 -69c-10 -2 -18 6 -17 15c26 40 126 119 173 119c13 0 36 -13 30 -30zM446 501h-185c-10 12 -9 42 1 54h185c9 -12 8 -42 -1 -54z" />
    </font>
</defs>
</svg>
